<?xml version="1.0" encoding="utf-8"?>
<!-- Generator: Adobe Illustrator 16.0.0, SVG Export Plug-In . SVG Version: 6.00 Build 0)  -->
<!DOCTYPE svg PUBLIC "-//W3C//DTD SVG 1.1//EN" "http://www.w3.org/Graphics/SVG/1.1/DTD/svg11.dtd">
<svg version="1.1" id="Layer_1" xmlns="http://www.w3.org/2000/svg" xmlns:xlink="http://www.w3.org/1999/xlink" x="0px" y="0px"
	 width="20px" height="20px" viewBox="0 0 80 80" enable-background="new 0 0 80 80" xml:space="preserve">
<g>
	<path d="M-62-152.5h-60c-4.125,0-7.5,3.375-7.5,7.5v65c0,4.125,3.375,7.5,7.5,7.5h60c4.125,0,7.5-3.375,7.5-7.5v-65
		C-54.5-149.125-57.875-152.5-62-152.5L-62-152.5z M-61.958-79.728h-60.084v-65.546h60.084V-79.728z M-109.5-107.5h35v5h-35V-107.5z
		 M-109.5-97.5h35v5h-35V-97.5z M-104.5-130c0,4.142,3.357,7.5,7.5,7.5s7.5-3.359,7.5-7.5c0-4.142-3.357-7.5-7.5-7.5
		S-104.5-134.142-104.5-130L-104.5-130z M-92-122.5h-10c-4.125,0-7.5,2.25-7.5,4.999v5h25v-5C-84.5-120.25-87.875-122.5-92-122.5
		L-92-122.5z M-92-122.5"/>
</g>
<g>
	<path d="M77.113-79.652H2.887C1.289-79.652,0-81.02,0-82.695v-59.608c0-1.684,1.289-3.043,2.887-3.043h74.227
		c1.598,0,2.887,1.36,2.887,3.043v59.608C80-81.02,78.711-79.652,77.113-79.652L77.113-79.652z M5.772-85.74h68.455v-53.527H5.772
		V-85.74z M5.772-85.74"/>
	<path d="M19.579-113.178c-5.305,0-9.624-4.32-9.624-9.629c0-5.312,4.319-9.63,9.624-9.63c5.312,0,9.63,4.318,9.63,9.63
		C29.209-117.498,24.891-113.178,19.579-113.178L19.579-113.178z M19.579-126.358c-1.95,0-3.545,1.594-3.545,3.551
		c0,1.958,1.595,3.545,3.545,3.545c1.956,0,3.55-1.588,3.55-3.545C23.129-124.764,21.535-126.358,19.579-126.358L19.579-126.358z
		 M19.579-126.358"/>
	<path d="M26.174-92.568H12.997c-1.682,0-3.042-1.365-3.042-3.043v-13.176c0-1.678,1.36-3.045,3.042-3.045h13.177
		c1.676,0,3.035,1.367,3.035,3.045v13.176C29.209-93.934,27.85-92.568,26.174-92.568L26.174-92.568z M16.034-98.648h7.095v-7.096
		h-7.095V-98.648z M16.034-98.648"/>
	<g>
		<path d="M66.399-122.958H37.436c-1.676,0-3.035-1.364-3.035-3.042c0-1.678,1.359-3.038,3.035-3.038h28.964
			c1.676,0,3.035,1.36,3.035,3.038C69.435-124.322,68.075-122.958,66.399-122.958L66.399-122.958z M66.399-122.958"/>
		<path d="M66.399-109.781H37.436c-1.676,0-3.035-1.359-3.035-3.037c0-1.684,1.359-3.043,3.035-3.043h28.964
			c1.676,0,3.035,1.359,3.035,3.043C69.435-111.141,68.075-109.781,66.399-109.781L66.399-109.781z M66.399-109.781"/>
		<path d="M66.399-96.605H37.436c-1.676,0-3.035-1.365-3.035-3.045c0-1.676,1.359-3.033,3.035-3.033h28.964
			c1.676,0,3.035,1.357,3.035,3.033C69.435-97.971,68.075-96.605,66.399-96.605L66.399-96.605z M66.399-96.605"/>
	</g>
</g>
<g>
	<path d="M143.04-147.666h-7.018c-2.116,0-3.522,1.406-3.522,3.52v7.022c0,2.113,1.406,3.521,3.522,3.521h7.018
		c2.116,0,3.522-1.407,3.522-3.521v-7.022C146.563-146.26,145.156-147.666,143.04-147.666L143.04-147.666z M143.04-147.666"/>
	<path d="M143.04-119.542h-7.018c-2.116,0-3.522,1.41-3.522,3.523v7.036c0,2.116,1.406,3.522,3.522,3.522h7.018
		c2.116,0,3.522-1.406,3.522-3.522v-7.036C146.563-118.132,145.156-119.542,143.04-119.542L143.04-119.542z M143.04-119.542"/>
	<path d="M143.04-91.397h-7.018c-2.116,0-3.522,1.407-3.522,3.523v7.017c0,2.116,1.406,3.523,3.522,3.523h7.018
		c2.116,0,3.522-1.407,3.522-3.523v-7.017C146.563-89.99,145.156-91.397,143.04-91.397L143.04-91.397z M143.04-91.397"/>
	<path d="M208.978-147.666H159.75c-2.116,0-3.522,1.406-3.522,3.52v7.022c0,2.113,1.406,3.521,3.522,3.521h49.228
		c2.116,0,3.522-1.407,3.522-3.521v-7.022C212.5-146.26,211.094-147.666,208.978-147.666L208.978-147.666z M208.978-147.666"/>
	<path d="M208.978-119.542H159.75c-2.116,0-3.522,1.41-3.522,3.523v7.036c0,2.116,1.406,3.522,3.522,3.522h49.228
		c2.116,0,3.522-1.406,3.522-3.522v-7.036C212.5-118.132,211.094-119.542,208.978-119.542L208.978-119.542z M208.978-119.542"/>
	<path d="M208.978-91.397H159.75c-2.116,0-3.522,1.407-3.522,3.523v7.017c0,2.116,1.406,3.523,3.522,3.523h49.228
		c2.116,0,3.522-1.407,3.522-3.523v-7.017C212.5-89.99,211.094-91.397,208.978-91.397L208.978-91.397z M208.978-91.397"/>
</g>
<g>
	<g>
		<path fill-rule="evenodd" clip-rule="evenodd" d="M289.665-130.276c-4.914,0-8.884,3.984-8.884,8.888
			c0,4.913,3.97,8.897,8.884,8.897c4.905,0,8.889-3.984,8.889-8.897C298.554-126.292,294.579-130.276,289.665-130.276
			L289.665-130.276z M338.554-148.057h-71.107c-2.447,0-4.446,1.999-4.446,4.449v62.218c0,2.452,1.999,4.446,4.446,4.446h71.107
			c2.462,0,4.446-1.994,4.446-4.446v-62.218C343-146.058,341.016-148.057,338.554-148.057L338.554-148.057z M334.116-88.053
			c0,1.227-0.999,2.217-2.226,2.217h-35.999l24.898-24.89l13.326,13.313V-88.053z M334.116-109.804l-9.688-9.688
			c-0.154-0.218-0.305-0.422-0.5-0.609c-0.867-0.866-2.021-1.297-3.17-1.288c-1.127-0.009-2.275,0.413-3.143,1.277
			c-0.155,0.164-0.288,0.328-0.405,0.5l-33.772,33.784h-9.329c-1.227,0-2.226-0.999-2.226-2.226v-48.895
			c0-1.224,0.999-2.224,2.226-2.224h57.781c1.227,0,2.226,1,2.226,2.224V-109.804z M334.116-109.804"/>
	</g>
</g>
<g>
	<path d="M455.077-115.41c-3.715,1.768-6.742,7.139-10.285,3.596c-2.149-2.336-4.703-6.055-7.64-10.258
		c-3.174-4.521-7.218-8.406-11.977-3.965c-5.315,4.998-8.963,18.561-9.28,25.541l50.206,0.016
		C464.953-104.585,460.491-117.988,455.077-115.41L455.077-115.41z M455.077-115.41"/>
	<path d="M461.017-129.457c0,3.408-2.762,6.173-6.174,6.173c-3.408,0-6.173-2.765-6.173-6.173c0-3.412,2.765-6.178,6.173-6.178
		C458.255-135.635,461.017-132.869,461.017-129.457L461.017-129.457z M461.017-129.457"/>
	<path d="M473.665-143.548h-65.33c-1.013,0-1.835,0.821-1.835,1.835v9.28h-9.165c-1.012,0-1.835,0.823-1.835,1.835v47.311
		c0,1.013,0.823,1.835,1.835,1.835h65.326c1.013,0,1.835-0.822,1.835-1.835v-9.28h9.169c1.012,0,1.835-0.818,1.835-1.831v-47.314
		C475.5-142.727,474.677-143.548,473.665-143.548L473.665-143.548z M459.57-86.379h-59.145v-41.128h6.074v28.595
		c-0.922,3.564-1.489,6.983-1.605,9.53l50.206,0.016c-0.219-0.786-0.56-1.91-1.009-3.201h5.479V-86.379z M470.574-97.493h-59.148
		v-41.13h59.148V-97.493z M470.574-97.493"/>
</g>
<g>
	<path d="M469.842,63.895c-9.43-7.742-19.594-12.886-21.693-13.922c-0.236-0.117-0.385-0.352-0.385-0.617V34.668
		c1.864-1.242,3.078-3.344,3.078-5.705V13.715C450.842,6.146,444.693,0,437.126,0h-3.253c-7.563,0-13.711,6.146-13.711,13.715
		v15.219c0,2.391,1.211,4.492,3.073,5.703v14.688c0,0.266-0.146,0.5-0.386,0.619c-2.063,1.006-12.234,6.146-21.688,13.92
		c-1.718,1.391-2.691,3.489-2.691,5.703V80h74.059V69.566C472.529,67.379,471.554,65.285,469.842,63.895L469.842,63.895z
		 M469.842,63.895"/>
</g>
<g>
	<g>
		<path d="M338.577,32.885L317.23,54.231c-5.896,5.896-15.449,5.896-21.346,0l-7.115-7.115l7.115-7.115L303,47.116
			c1.965,1.96,5.154,1.965,7.115,0l21.347-21.347c1.96-1.963,1.96-5.154,0-7.118l-7.115-7.115c-1.961-1.961-5.155-1.961-7.116,0
			l-7.621,7.621c-3.534-2.078-7.548-2.971-11.523-2.702l12.029-12.034c5.896-5.895,15.454-5.895,21.347,0l7.115,7.115
			C344.474,17.431,344.474,26.99,338.577,32.885L338.577,32.885z M296.386,60.846l-7.616,7.616c-1.966,1.966-5.155,1.961-7.116,0
			l-7.115-7.115c-1.966-1.961-1.966-5.15,0-7.115l21.347-21.347c1.96-1.96,5.154-1.96,7.115,0l7.115,7.116l7.115-7.116l-7.115-7.115
			c-5.897-5.894-15.449-5.894-21.346,0l-21.347,21.347c-5.897,5.896-5.897,15.454,0,21.346l7.115,7.116
			c5.892,5.896,15.449,5.896,21.347,0l12.029-12.03C303.938,63.813,299.933,62.919,296.386,60.846L296.386,60.846z M296.386,60.846"
			/>
	</g>
</g>
<g>
	<path d="M210.25,34.084c3.221,1.475,2.951,2.699-0.598,2.699h-70.717c-3.531,0-6.436-2.904-6.436-6.436V4.633
		c0-3.547,2.637-5.227,5.84-3.736L210.25,34.084z M138.34,0.896"/>
	<path d="M138.936,49.648h47.877l-47.877,22.104V49.648 M138.936,43.211c-3.531,0-6.436,2.904-6.436,6.438v25.713
		c0,2.662,1.49,4.287,3.594,4.287c0.691,0,1.461-0.189,2.246-0.551l71.91-33.186c3.221-1.492,2.951-2.701-0.598-2.701H138.936
		L138.936,43.211z M138.936,43.211"/>
</g>
<g>
	<g>
		<path d="M24.754,13.711l9.523,5.339l-5.338-9.524l5.338-9.523l-9.523,5.339l-9.524-5.339l5.339,9.523l-5.339,9.524L24.754,13.711z
			 M24.754,13.711"/>
		<path d="M70.476,51.044l-9.523-5.32l5.339,9.524l-5.339,9.523l9.523-5.343L80,64.771l-5.339-9.523L80,45.724L70.476,51.044z
			 M70.476,51.044"/>
		<path d="M80,0.002l-9.524,5.339l-9.523-5.339l5.339,9.523l-5.339,9.524l9.523-5.339L80,19.05l-5.339-9.524L80,0.002z M80,0.002"/>
		<path d="M51.038,20.185c-1.525-1.507-3.795-1.507-5.32,0L1.13,64.771c-1.507,1.525-1.507,3.79,0,5.32l8.762,8.762
			c1.525,1.525,3.813,1.525,5.338,0l44.569-44.569c1.525-1.525,1.525-3.813,0-5.339L51.038,20.185z M46.853,41.148l-7.999-7.999
			l9.134-9.151l8.017,7.998L46.853,41.148z M46.853,41.148"/>
	</g>
</g>
</svg>
