<?xml version="1.0" encoding="utf-8"?>
<!-- Generator: Adobe Illustrator 16.0.0, SVG Export Plug-In . SVG Version: 6.00 Build 0)  -->
<!DOCTYPE svg PUBLIC "-//W3C//DTD SVG 1.1//EN" "http://www.w3.org/Graphics/SVG/1.1/DTD/svg11.dtd">
<svg version="1.1" id="Layer_1" xmlns="http://www.w3.org/2000/svg" xmlns:xlink="http://www.w3.org/1999/xlink" x="0px" y="0px"
	 width="20px" height="20px" viewBox="0 0 80 80" enable-background="new 0 0 80 80" xml:space="preserve">
<g>
	<path d="M-325-152.5h-60c-4.125,0-7.5,3.375-7.5,7.5v65c0,4.125,3.375,7.5,7.5,7.5h60c4.125,0,7.5-3.375,7.5-7.5v-65
		C-317.5-149.125-320.875-152.5-325-152.5L-325-152.5z M-324.958-79.728h-60.084v-65.546h60.084V-79.728z M-372.5-107.5h35v5h-35
		V-107.5z M-372.5-97.5h35v5h-35V-97.5z M-367.5-130c0,4.142,3.357,7.5,7.5,7.5s7.5-3.359,7.5-7.5c0-4.142-3.357-7.5-7.5-7.5
		S-367.5-134.142-367.5-130L-367.5-130z M-355-122.5h-10c-4.125,0-7.5,2.25-7.5,4.999v5h25v-5
		C-347.5-120.25-350.875-122.5-355-122.5L-355-122.5z M-355-122.5"/>
</g>
<g>
	<path d="M-185.887-79.652h-74.227c-1.598,0-2.887-1.367-2.887-3.043v-59.608c0-1.684,1.289-3.043,2.887-3.043h74.227
		c1.598,0,2.887,1.36,2.887,3.043v59.608C-183-81.02-184.289-79.652-185.887-79.652L-185.887-79.652z M-257.228-85.74h68.455
		v-53.527h-68.455V-85.74z M-257.228-85.74"/>
	<path d="M-243.421-113.178c-5.305,0-9.624-4.32-9.624-9.629c0-5.312,4.319-9.63,9.624-9.63c5.312,0,9.63,4.318,9.63,9.63
		C-233.791-117.498-238.109-113.178-243.421-113.178L-243.421-113.178z M-243.421-126.358c-1.95,0-3.545,1.594-3.545,3.551
		c0,1.958,1.595,3.545,3.545,3.545c1.956,0,3.55-1.588,3.55-3.545C-239.871-124.764-241.465-126.358-243.421-126.358
		L-243.421-126.358z M-243.421-126.358"/>
	<path d="M-236.826-92.568h-13.177c-1.682,0-3.042-1.365-3.042-3.043v-13.176c0-1.678,1.36-3.045,3.042-3.045h13.177
		c1.676,0,3.035,1.367,3.035,3.045v13.176C-233.791-93.934-235.15-92.568-236.826-92.568L-236.826-92.568z M-246.966-98.648h7.095
		v-7.096h-7.095V-98.648z M-246.966-98.648"/>
	<g>
		<path d="M-196.601-122.958h-28.964c-1.676,0-3.035-1.364-3.035-3.042c0-1.678,1.359-3.038,3.035-3.038h28.964
			c1.676,0,3.035,1.36,3.035,3.038C-193.565-124.322-194.925-122.958-196.601-122.958L-196.601-122.958z M-196.601-122.958"/>
		<path d="M-196.601-109.781h-28.964c-1.676,0-3.035-1.359-3.035-3.037c0-1.684,1.359-3.043,3.035-3.043h28.964
			c1.676,0,3.035,1.359,3.035,3.043C-193.565-111.141-194.925-109.781-196.601-109.781L-196.601-109.781z M-196.601-109.781"/>
		<path d="M-196.601-96.605h-28.964c-1.676,0-3.035-1.365-3.035-3.045c0-1.676,1.359-3.033,3.035-3.033h28.964
			c1.676,0,3.035,1.357,3.035,3.033C-193.565-97.971-194.925-96.605-196.601-96.605L-196.601-96.605z M-196.601-96.605"/>
	</g>
</g>
<g>
	<path d="M-119.96-147.666h-7.018c-2.116,0-3.522,1.406-3.522,3.52v7.022c0,2.113,1.406,3.521,3.522,3.521h7.018
		c2.116,0,3.522-1.407,3.522-3.521v-7.022C-116.438-146.26-117.844-147.666-119.96-147.666L-119.96-147.666z M-119.96-147.666"/>
	<path d="M-119.96-119.542h-7.018c-2.116,0-3.522,1.41-3.522,3.523v7.036c0,2.116,1.406,3.522,3.522,3.522h7.018
		c2.116,0,3.522-1.406,3.522-3.522v-7.036C-116.438-118.132-117.844-119.542-119.96-119.542L-119.96-119.542z M-119.96-119.542"/>
	<path d="M-119.96-91.397h-7.018c-2.116,0-3.522,1.407-3.522,3.523v7.017c0,2.116,1.406,3.523,3.522,3.523h7.018
		c2.116,0,3.522-1.407,3.522-3.523v-7.017C-116.438-89.99-117.844-91.397-119.96-91.397L-119.96-91.397z M-119.96-91.397"/>
	<path d="M-54.022-147.666h-49.228c-2.116,0-3.522,1.406-3.522,3.52v7.022c0,2.113,1.406,3.521,3.522,3.521h49.228
		c2.116,0,3.522-1.407,3.522-3.521v-7.022C-50.5-146.26-51.906-147.666-54.022-147.666L-54.022-147.666z M-54.022-147.666"/>
	<path d="M-54.022-119.542h-49.228c-2.116,0-3.522,1.41-3.522,3.523v7.036c0,2.116,1.406,3.522,3.522,3.522h49.228
		c2.116,0,3.522-1.406,3.522-3.522v-7.036C-50.5-118.132-51.906-119.542-54.022-119.542L-54.022-119.542z M-54.022-119.542"/>
	<path d="M-54.022-91.397h-49.228c-2.116,0-3.522,1.407-3.522,3.523v7.017c0,2.116,1.406,3.523,3.522,3.523h49.228
		c2.116,0,3.522-1.407,3.522-3.523v-7.017C-50.5-89.99-51.906-91.397-54.022-91.397L-54.022-91.397z M-54.022-91.397"/>
</g>
<g>
	<g>
		<path fill-rule="evenodd" clip-rule="evenodd" d="M26.665-130.276c-4.914,0-8.884,3.984-8.884,8.888
			c0,4.913,3.97,8.897,8.884,8.897c4.905,0,8.889-3.984,8.889-8.897C35.554-126.292,31.579-130.276,26.665-130.276L26.665-130.276z
			 M75.554-148.057H4.446c-2.447,0-4.446,1.999-4.446,4.449v62.218c0,2.452,1.999,4.446,4.446,4.446h71.107
			c2.462,0,4.446-1.994,4.446-4.446v-62.218C80-146.058,78.016-148.057,75.554-148.057L75.554-148.057z M71.116-88.053
			c0,1.227-0.999,2.217-2.226,2.217H32.892l24.898-24.89l13.326,13.313V-88.053z M71.116-109.804l-9.688-9.688
			c-0.154-0.218-0.305-0.422-0.5-0.609c-0.867-0.866-2.021-1.297-3.17-1.288c-1.127-0.009-2.275,0.413-3.143,1.277
			c-0.155,0.164-0.288,0.328-0.405,0.5L20.438-85.827h-9.329c-1.227,0-2.226-0.999-2.226-2.226v-48.895
			c0-1.224,0.999-2.224,2.226-2.224h57.781c1.227,0,2.226,1,2.226,2.224V-109.804z M71.116-109.804"/>
	</g>
</g>
<g>
	<path d="M192.077-115.41c-3.715,1.768-6.742,7.139-10.285,3.596c-2.149-2.336-4.703-6.055-7.64-10.258
		c-3.174-4.521-7.218-8.406-11.977-3.965c-5.315,4.998-8.963,18.561-9.28,25.541l50.206,0.016
		C201.953-104.585,197.491-117.988,192.077-115.41L192.077-115.41z M192.077-115.41"/>
	<path d="M198.017-129.457c0,3.408-2.762,6.173-6.174,6.173c-3.408,0-6.173-2.765-6.173-6.173c0-3.412,2.765-6.178,6.173-6.178
		C195.255-135.635,198.017-132.869,198.017-129.457L198.017-129.457z M198.017-129.457"/>
	<path d="M210.665-143.548h-65.33c-1.013,0-1.835,0.821-1.835,1.835v9.28h-9.165c-1.012,0-1.835,0.823-1.835,1.835v47.311
		c0,1.013,0.823,1.835,1.835,1.835h65.326c1.013,0,1.835-0.822,1.835-1.835v-9.28h9.169c1.012,0,1.835-0.818,1.835-1.831v-47.314
		C212.5-142.727,211.677-143.548,210.665-143.548L210.665-143.548z M196.57-86.379h-59.145v-41.128h6.074v28.595
		c-0.922,3.564-1.489,6.983-1.605,9.53l50.206,0.016c-0.219-0.786-0.56-1.91-1.009-3.201h5.479V-86.379z M207.574-97.493h-59.148
		v-41.13h59.148V-97.493z M207.574-97.493"/>
</g>
<g>
	<path d="M206.842,63.895c-9.43-7.742-19.594-12.886-21.693-13.922c-0.236-0.117-0.385-0.352-0.385-0.617V34.668
		c1.864-1.242,3.078-3.344,3.078-5.705V13.715C187.842,6.146,181.693,0,174.126,0h-3.253c-7.563,0-13.711,6.146-13.711,13.715
		v15.219c0,2.391,1.211,4.492,3.073,5.703v14.688c0,0.266-0.146,0.5-0.386,0.619c-2.063,1.006-12.234,6.146-21.688,13.92
		c-1.718,1.391-2.691,3.489-2.691,5.703V80h74.059V69.566C209.529,67.379,208.554,65.285,206.842,63.895L206.842,63.895z
		 M206.842,63.895"/>
</g>
<g>
	<g>
		<path d="M75.577,32.885L54.23,54.231c-5.896,5.896-15.449,5.896-21.346,0l-7.115-7.115l7.115-7.115L40,47.116
			c1.965,1.96,5.154,1.965,7.115,0L68.462,25.77c1.96-1.963,1.96-5.154,0-7.118l-7.115-7.115c-1.961-1.961-5.155-1.961-7.116,0
			l-7.621,7.621c-3.534-2.078-7.548-2.971-11.523-2.702L47.115,4.421c5.896-5.895,15.454-5.895,21.347,0l7.115,7.115
			C81.474,17.431,81.474,26.99,75.577,32.885L75.577,32.885z M33.386,60.846l-7.616,7.616c-1.966,1.966-5.155,1.961-7.116,0
			l-7.115-7.115c-1.966-1.961-1.966-5.15,0-7.115l21.347-21.347c1.96-1.96,5.154-1.96,7.115,0l7.115,7.116l7.115-7.116l-7.115-7.115
			c-5.897-5.894-15.449-5.894-21.346,0L4.423,47.116c-5.897,5.896-5.897,15.454,0,21.346l7.115,7.116
			c5.892,5.896,15.449,5.896,21.347,0l12.029-12.03C40.938,63.813,36.933,62.919,33.386,60.846L33.386,60.846z M33.386,60.846"/>
	</g>
</g>
</svg>
