<?xml version="1.0" encoding="utf-8"?>
<!-- Generator: Adobe Illustrator 16.0.0, SVG Export Plug-In . SVG Version: 6.00 Build 0)  -->
<!DOCTYPE svg PUBLIC "-//W3C//DTD SVG 1.1//EN" "http://www.w3.org/Graphics/SVG/1.1/DTD/svg11.dtd">
<svg version="1.1" id="Layer_1" xmlns="http://www.w3.org/2000/svg" xmlns:xlink="http://www.w3.org/1999/xlink" x="0px" y="0px"
	 width="20px" height="20px" viewBox="0 0 80 80" enable-background="new 0 0 80 80" xml:space="preserve">
<g>
	<path d="M70-152.5H10c-4.125,0-7.5,3.375-7.5,7.5v65c0,4.125,3.375,7.5,7.5,7.5h60c4.125,0,7.5-3.375,7.5-7.5v-65
		C77.5-149.125,74.125-152.5,70-152.5L70-152.5z M70.042-79.728H9.958v-65.546h60.084V-79.728z M22.5-107.5h35v5h-35V-107.5z
		 M22.5-97.5h35v5h-35V-97.5z M27.5-130c0,4.142,3.357,7.5,7.5,7.5s7.5-3.359,7.5-7.5c0-4.142-3.357-7.5-7.5-7.5
		S27.5-134.142,27.5-130L27.5-130z M40-122.5H30c-4.125,0-7.5,2.25-7.5,4.999v5h25v-5C47.5-120.25,44.125-122.5,40-122.5L40-122.5z
		 M40-122.5"/>
</g>
<g>
	<path d="M209.113-79.652h-74.227c-1.598,0-2.887-1.367-2.887-3.043v-59.608c0-1.684,1.289-3.043,2.887-3.043h74.227
		c1.598,0,2.887,1.36,2.887,3.043v59.608C212-81.02,210.711-79.652,209.113-79.652L209.113-79.652z M137.772-85.74h68.455v-53.527
		h-68.455V-85.74z M137.772-85.74"/>
	<path d="M151.579-113.178c-5.305,0-9.624-4.32-9.624-9.629c0-5.312,4.319-9.63,9.624-9.63c5.312,0,9.63,4.318,9.63,9.63
		C161.209-117.498,156.891-113.178,151.579-113.178L151.579-113.178z M151.579-126.358c-1.95,0-3.545,1.594-3.545,3.551
		c0,1.958,1.595,3.545,3.545,3.545c1.956,0,3.55-1.588,3.55-3.545C155.129-124.764,153.535-126.358,151.579-126.358L151.579-126.358
		z M151.579-126.358"/>
	<path d="M158.174-92.568h-13.177c-1.682,0-3.042-1.365-3.042-3.043v-13.176c0-1.678,1.36-3.045,3.042-3.045h13.177
		c1.676,0,3.035,1.367,3.035,3.045v13.176C161.209-93.934,159.85-92.568,158.174-92.568L158.174-92.568z M148.034-98.648h7.095
		v-7.096h-7.095V-98.648z M148.034-98.648"/>
	<g>
		<path d="M198.399-122.958h-28.964c-1.676,0-3.035-1.364-3.035-3.042c0-1.678,1.359-3.038,3.035-3.038h28.964
			c1.676,0,3.035,1.36,3.035,3.038C201.435-124.322,200.075-122.958,198.399-122.958L198.399-122.958z M198.399-122.958"/>
		<path d="M198.399-109.781h-28.964c-1.676,0-3.035-1.359-3.035-3.037c0-1.684,1.359-3.043,3.035-3.043h28.964
			c1.676,0,3.035,1.359,3.035,3.043C201.435-111.141,200.075-109.781,198.399-109.781L198.399-109.781z M198.399-109.781"/>
		<path d="M198.399-96.605h-28.964c-1.676,0-3.035-1.365-3.035-3.045c0-1.676,1.359-3.033,3.035-3.033h28.964
			c1.676,0,3.035,1.357,3.035,3.033C201.435-97.971,200.075-96.605,198.399-96.605L198.399-96.605z M198.399-96.605"/>
	</g>
</g>
<g>
	<path d="M275.04-147.666h-7.018c-2.116,0-3.522,1.406-3.522,3.52v7.022c0,2.113,1.406,3.521,3.522,3.521h7.018
		c2.116,0,3.522-1.407,3.522-3.521v-7.022C278.563-146.26,277.156-147.666,275.04-147.666L275.04-147.666z M275.04-147.666"/>
	<path d="M275.04-119.542h-7.018c-2.116,0-3.522,1.41-3.522,3.523v7.036c0,2.116,1.406,3.522,3.522,3.522h7.018
		c2.116,0,3.522-1.406,3.522-3.522v-7.036C278.563-118.132,277.156-119.542,275.04-119.542L275.04-119.542z M275.04-119.542"/>
	<path d="M275.04-91.397h-7.018c-2.116,0-3.522,1.407-3.522,3.523v7.017c0,2.116,1.406,3.523,3.522,3.523h7.018
		c2.116,0,3.522-1.407,3.522-3.523v-7.017C278.563-89.99,277.156-91.397,275.04-91.397L275.04-91.397z M275.04-91.397"/>
	<path d="M340.978-147.666H291.75c-2.116,0-3.522,1.406-3.522,3.52v7.022c0,2.113,1.406,3.521,3.522,3.521h49.228
		c2.116,0,3.522-1.407,3.522-3.521v-7.022C344.5-146.26,343.094-147.666,340.978-147.666L340.978-147.666z M340.978-147.666"/>
	<path d="M340.978-119.542H291.75c-2.116,0-3.522,1.41-3.522,3.523v7.036c0,2.116,1.406,3.522,3.522,3.522h49.228
		c2.116,0,3.522-1.406,3.522-3.522v-7.036C344.5-118.132,343.094-119.542,340.978-119.542L340.978-119.542z M340.978-119.542"/>
	<path d="M340.978-91.397H291.75c-2.116,0-3.522,1.407-3.522,3.523v7.017c0,2.116,1.406,3.523,3.522,3.523h49.228
		c2.116,0,3.522-1.407,3.522-3.523v-7.017C344.5-89.99,343.094-91.397,340.978-91.397L340.978-91.397z M340.978-91.397"/>
</g>
<g>
	<g>
		<path fill-rule="evenodd" clip-rule="evenodd" d="M421.665-130.276c-4.914,0-8.884,3.984-8.884,8.888
			c0,4.913,3.97,8.897,8.884,8.897c4.905,0,8.889-3.984,8.889-8.897C430.554-126.292,426.579-130.276,421.665-130.276
			L421.665-130.276z M470.554-148.057h-71.107c-2.447,0-4.446,1.999-4.446,4.449v62.218c0,2.452,1.999,4.446,4.446,4.446h71.107
			c2.462,0,4.446-1.994,4.446-4.446v-62.218C475-146.058,473.016-148.057,470.554-148.057L470.554-148.057z M466.116-88.053
			c0,1.227-0.999,2.217-2.226,2.217h-35.999l24.898-24.89l13.326,13.313V-88.053z M466.116-109.804l-9.688-9.688
			c-0.154-0.218-0.305-0.422-0.5-0.609c-0.867-0.866-2.021-1.297-3.17-1.288c-1.127-0.009-2.275,0.413-3.143,1.277
			c-0.155,0.164-0.288,0.328-0.405,0.5l-33.772,33.784h-9.329c-1.227,0-2.226-0.999-2.226-2.226v-48.895
			c0-1.224,0.999-2.224,2.226-2.224h57.781c1.227,0,2.226,1,2.226,2.224V-109.804z M466.116-109.804"/>
	</g>
</g>
<g>
	<path d="M587.077-115.41c-3.715,1.768-6.742,7.139-10.285,3.596c-2.149-2.336-4.703-6.055-7.64-10.258
		c-3.174-4.521-7.218-8.406-11.977-3.965c-5.315,4.998-8.963,18.561-9.28,25.541l50.206,0.016
		C596.953-104.585,592.491-117.988,587.077-115.41L587.077-115.41z M587.077-115.41"/>
	<path d="M593.017-129.457c0,3.408-2.762,6.173-6.174,6.173c-3.408,0-6.173-2.765-6.173-6.173c0-3.412,2.765-6.178,6.173-6.178
		C590.255-135.635,593.017-132.869,593.017-129.457L593.017-129.457z M593.017-129.457"/>
	<path d="M605.665-143.548h-65.33c-1.013,0-1.835,0.821-1.835,1.835v9.28h-9.165c-1.012,0-1.835,0.823-1.835,1.835v47.311
		c0,1.013,0.823,1.835,1.835,1.835h65.326c1.013,0,1.835-0.822,1.835-1.835v-9.28h9.169c1.012,0,1.835-0.818,1.835-1.831v-47.314
		C607.5-142.727,606.677-143.548,605.665-143.548L605.665-143.548z M591.57-86.379h-59.145v-41.128h6.074v28.595
		c-0.922,3.564-1.489,6.983-1.605,9.53l50.206,0.016c-0.219-0.786-0.56-1.91-1.009-3.201h5.479V-86.379z M602.574-97.493h-59.148
		v-41.13h59.148V-97.493z M602.574-97.493"/>
</g>
<g>
	<path d="M601.842,63.895c-9.43-7.742-19.594-12.886-21.693-13.922c-0.236-0.117-0.385-0.352-0.385-0.617V34.668
		c1.864-1.242,3.078-3.344,3.078-5.705V13.715C582.842,6.146,576.693,0,569.126,0h-3.253c-7.563,0-13.711,6.146-13.711,13.715
		v15.219c0,2.391,1.211,4.492,3.073,5.703v14.688c0,0.266-0.146,0.5-0.386,0.619c-2.063,1.006-12.234,6.146-21.688,13.92
		c-1.718,1.391-2.691,3.489-2.691,5.703V80h74.059V69.566C604.529,67.379,603.554,65.285,601.842,63.895L601.842,63.895z
		 M601.842,63.895"/>
</g>
<g>
	<g>
		<path d="M470.577,32.885L449.23,54.231c-5.896,5.896-15.449,5.896-21.346,0l-7.115-7.115l7.115-7.115L435,47.116
			c1.965,1.96,5.154,1.965,7.115,0l21.347-21.347c1.96-1.963,1.96-5.154,0-7.118l-7.115-7.115c-1.961-1.961-5.155-1.961-7.116,0
			l-7.621,7.621c-3.534-2.078-7.548-2.971-11.523-2.702l12.029-12.034c5.896-5.895,15.454-5.895,21.347,0l7.115,7.115
			C476.474,17.431,476.474,26.99,470.577,32.885L470.577,32.885z M428.386,60.846l-7.616,7.616c-1.966,1.966-5.155,1.961-7.116,0
			l-7.115-7.115c-1.966-1.961-1.966-5.15,0-7.115l21.347-21.347c1.96-1.96,5.154-1.96,7.115,0l7.115,7.116l7.115-7.116l-7.115-7.115
			c-5.897-5.894-15.449-5.894-21.346,0l-21.347,21.347c-5.897,5.896-5.897,15.454,0,21.346l7.115,7.116
			c5.892,5.896,15.449,5.896,21.347,0l12.029-12.03C435.938,63.813,431.933,62.919,428.386,60.846L428.386,60.846z M428.386,60.846"
			/>
	</g>
</g>
<g>
	<path d="M342.25,34.084c3.221,1.475,2.951,2.699-0.598,2.699h-70.717c-3.531,0-6.436-2.904-6.436-6.436V4.633
		c0-3.547,2.637-5.227,5.84-3.736L342.25,34.084z M270.34,0.896"/>
	<path d="M270.936,49.648h47.877l-47.877,22.104V49.648 M270.936,43.211c-3.531,0-6.436,2.904-6.436,6.438v25.713
		c0,2.662,1.49,4.287,3.594,4.287c0.691,0,1.461-0.189,2.246-0.551l71.91-33.186c3.221-1.492,2.951-2.701-0.598-2.701H270.936
		L270.936,43.211z M270.936,43.211"/>
</g>
<g>
	<g>
		<path d="M156.754,13.711l9.523,5.339l-5.338-9.524l5.338-9.523l-9.523,5.339l-9.524-5.339l5.339,9.523l-5.339,9.524
			L156.754,13.711z M156.754,13.711"/>
		<path d="M202.476,51.044l-9.523-5.32l5.339,9.524l-5.339,9.523l9.523-5.343L212,64.771l-5.339-9.523L212,45.724L202.476,51.044z
			 M202.476,51.044"/>
		<path d="M212,0.002l-9.524,5.339l-9.523-5.339l5.339,9.523l-5.339,9.524l9.523-5.339L212,19.05l-5.339-9.524L212,0.002z
			 M212,0.002"/>
		<path d="M183.038,20.185c-1.525-1.507-3.795-1.507-5.32,0L133.13,64.771c-1.507,1.525-1.507,3.79,0,5.32l8.762,8.762
			c1.525,1.525,3.813,1.525,5.338,0l44.569-44.569c1.525-1.525,1.525-3.813,0-5.339L183.038,20.185z M178.853,41.148l-7.999-7.999
			l9.134-9.151l8.017,7.998L178.853,41.148z M178.853,41.148"/>
	</g>
</g>
<g>
	<path d="M51.952,26.086H28.039c-1.078,0-1.953,0.875-1.953,1.953v1.309c0,1.078,0.875,1.952,1.953,1.952h23.913
		c1.087,0,1.962-0.874,1.962-1.952v-1.309C53.914,26.961,53.039,26.086,51.952,26.086L51.952,26.086z M52.173,38.264H27.827
		c-0.96,0-1.741,0.772-1.741,1.732v1.74c0,0.96,0.781,1.741,1.741,1.741h24.346c0.96,0,1.741-0.781,1.741-1.741v-1.74
		C53.914,39.036,53.133,38.264,52.173,38.264L52.173,38.264z M39.996,0C17.909,0,0,17.909,0,39.996C0,62.091,17.909,80,39.996,80
		C62.089,80,80,62.091,80,39.996C80,17.909,62.089,0,39.996,0L39.996,0z M39.996,73.045c-18.249,0-33.042-14.801-33.042-33.049
		c0-18.249,14.792-33.041,33.042-33.041c18.248,0,33.049,14.792,33.049,33.041C73.045,58.244,58.244,73.045,39.996,73.045
		L39.996,73.045z M52.173,50.432H27.827c-0.96,0-1.741,0.781-1.741,1.741v1.741c0,0.959,0.781,1.74,1.741,1.74h24.346
		c0.96,0,1.741-0.781,1.741-1.74v-1.741C53.914,51.213,53.133,50.432,52.173,50.432L52.173,50.432z M52.173,50.432"/>
</g>
</svg>
