<?xml version="1.0" encoding="utf-8"?>
<!-- Generator: Adobe Illustrator 16.0.0, SVG Export Plug-In . SVG Version: 6.00 Build 0)  -->
<!DOCTYPE svg PUBLIC "-//W3C//DTD SVG 1.1//EN" "http://www.w3.org/Graphics/SVG/1.1/DTD/svg11.dtd">
<svg version="1.1" id="Layer_1" xmlns="http://www.w3.org/2000/svg" xmlns:xlink="http://www.w3.org/1999/xlink" x="0px" y="0px"
	 width="20px" height="20px" viewBox="0 0 80 80" enable-background="new 0 0 80 80" xml:space="preserve">
<g>
	<path d="M-62,0h-60c-4.125,0-7.5,3.375-7.5,7.5v65c0,4.125,3.375,7.5,7.5,7.5h60c4.125,0,7.5-3.375,7.5-7.5v-65
		C-54.5,3.375-57.875,0-62,0L-62,0z M-61.958,72.772h-60.084V7.227h60.084V72.772z M-109.5,45h35v5h-35V45z M-109.5,55h35v5h-35V55z
		 M-104.5,22.5c0,4.142,3.357,7.5,7.5,7.5s7.5-3.359,7.5-7.5c0-4.142-3.357-7.5-7.5-7.5S-104.5,18.358-104.5,22.5L-104.5,22.5z
		 M-92,30h-10c-4.125,0-7.5,2.25-7.5,4.999v5h25v-5C-84.5,32.25-87.875,30-92,30L-92,30z M-92,30"/>
</g>
<g>
	<path d="M77.113,72.848H2.887C1.289,72.848,0,71.48,0,69.805V10.196c0-1.684,1.289-3.043,2.887-3.043h74.227
		c1.598,0,2.887,1.36,2.887,3.043v59.608C80,71.48,78.711,72.848,77.113,72.848L77.113,72.848z M5.772,66.76h68.455V13.232H5.772
		V66.76z M5.772,66.76"/>
	<path d="M19.579,39.323c-5.305,0-9.624-4.32-9.624-9.63c0-5.312,4.319-9.63,9.624-9.63c5.312,0,9.63,4.318,9.63,9.63
		C29.209,35.002,24.891,39.323,19.579,39.323L19.579,39.323z M19.579,26.142c-1.95,0-3.545,1.594-3.545,3.551
		s1.595,3.545,3.545,3.545c1.956,0,3.55-1.588,3.55-3.545S21.535,26.142,19.579,26.142L19.579,26.142z M19.579,26.142"/>
	<path d="M26.174,59.932H12.997c-1.682,0-3.042-1.365-3.042-3.043V43.713c0-1.678,1.36-3.045,3.042-3.045h13.177
		c1.676,0,3.035,1.367,3.035,3.045v13.176C29.209,58.566,27.85,59.932,26.174,59.932L26.174,59.932z M16.034,53.852h7.095v-7.096
		h-7.095V53.852z M16.034,53.852"/>
	<g>
		<path d="M66.399,29.542H37.436c-1.676,0-3.035-1.364-3.035-3.042c0-1.678,1.359-3.038,3.035-3.038h28.964
			c1.676,0,3.035,1.36,3.035,3.038C69.435,28.178,68.075,29.542,66.399,29.542L66.399,29.542z M66.399,29.542"/>
		<path d="M66.399,42.719H37.436c-1.676,0-3.035-1.359-3.035-3.038c0-1.684,1.359-3.043,3.035-3.043h28.964
			c1.676,0,3.035,1.359,3.035,3.043C69.435,41.359,68.075,42.719,66.399,42.719L66.399,42.719z M66.399,42.719"/>
		<path d="M66.399,55.895H37.436c-1.676,0-3.035-1.365-3.035-3.045c0-1.676,1.359-3.033,3.035-3.033h28.964
			c1.676,0,3.035,1.357,3.035,3.033C69.435,54.529,68.075,55.895,66.399,55.895L66.399,55.895z M66.399,55.895"/>
	</g>
</g>
</svg>
