<?xml version="1.0" encoding="utf-8"?>
<!-- Generator: Adobe Illustrator 16.0.0, SVG Export Plug-In . SVG Version: 6.00 Build 0)  -->
<!DOCTYPE svg PUBLIC "-//W3C//DTD SVG 1.1//EN" "http://www.w3.org/Graphics/SVG/1.1/DTD/svg11.dtd">
<svg version="1.1" id="Layer_1" xmlns="http://www.w3.org/2000/svg" xmlns:xlink="http://www.w3.org/1999/xlink" x="0px" y="0px"
	 width="20px" height="20px" viewBox="0 0 80 80" enable-background="new 0 0 80 80" xml:space="preserve">
<g>
	<path d="M-325,0h-60c-4.125,0-7.5,3.375-7.5,7.5v65c0,4.125,3.375,7.5,7.5,7.5h60c4.125,0,7.5-3.375,7.5-7.5v-65
		C-317.5,3.375-320.875,0-325,0L-325,0z M-324.958,72.772h-60.084V7.227h60.084V72.772z M-372.5,45h35v5h-35V45z M-372.5,55h35v5
		h-35V55z M-367.5,22.5c0,4.142,3.357,7.5,7.5,7.5s7.5-3.359,7.5-7.5c0-4.142-3.357-7.5-7.5-7.5S-367.5,18.358-367.5,22.5
		L-367.5,22.5z M-355,30h-10c-4.125,0-7.5,2.25-7.5,4.999v5h25v-5C-347.5,32.25-350.875,30-355,30L-355,30z M-355,30"/>
</g>
<g>
	<path d="M-185.887,72.848h-74.227c-1.598,0-2.887-1.367-2.887-3.043V10.196c0-1.684,1.289-3.043,2.887-3.043h74.227
		c1.598,0,2.887,1.36,2.887,3.043v59.608C-183,71.48-184.289,72.848-185.887,72.848L-185.887,72.848z M-257.228,66.76h68.455V13.232
		h-68.455V66.76z M-257.228,66.76"/>
	<path d="M-243.421,39.322c-5.305,0-9.624-4.32-9.624-9.629c0-5.312,4.319-9.63,9.624-9.63c5.312,0,9.63,4.318,9.63,9.63
		C-233.791,35.002-238.109,39.322-243.421,39.322L-243.421,39.322z M-243.421,26.142c-1.95,0-3.545,1.594-3.545,3.551
		c0,1.958,1.595,3.545,3.545,3.545c1.956,0,3.55-1.588,3.55-3.545C-239.871,27.736-241.465,26.142-243.421,26.142L-243.421,26.142z
		 M-243.421,26.142"/>
	<path d="M-236.826,59.932h-13.177c-1.682,0-3.042-1.365-3.042-3.043V43.713c0-1.678,1.36-3.045,3.042-3.045h13.177
		c1.676,0,3.035,1.367,3.035,3.045v13.176C-233.791,58.566-235.15,59.932-236.826,59.932L-236.826,59.932z M-246.966,53.852h7.095
		v-7.096h-7.095V53.852z M-246.966,53.852"/>
	<g>
		<path d="M-196.601,29.542h-28.964c-1.676,0-3.035-1.364-3.035-3.042c0-1.678,1.359-3.038,3.035-3.038h28.964
			c1.676,0,3.035,1.36,3.035,3.038C-193.565,28.178-194.925,29.542-196.601,29.542L-196.601,29.542z M-196.601,29.542"/>
		<path d="M-196.601,42.719h-28.964c-1.676,0-3.035-1.359-3.035-3.037c0-1.684,1.359-3.043,3.035-3.043h28.964
			c1.676,0,3.035,1.359,3.035,3.043C-193.565,41.359-194.925,42.719-196.601,42.719L-196.601,42.719z M-196.601,42.719"/>
		<path d="M-196.601,55.895h-28.964c-1.676,0-3.035-1.365-3.035-3.045c0-1.676,1.359-3.033,3.035-3.033h28.964
			c1.676,0,3.035,1.357,3.035,3.033C-193.565,54.529-194.925,55.895-196.601,55.895L-196.601,55.895z M-196.601,55.895"/>
	</g>
</g>
<g>
	<path d="M-119.96,4.834h-7.018c-2.116,0-3.522,1.406-3.522,3.52v7.022c0,2.113,1.406,3.521,3.522,3.521h7.018
		c2.116,0,3.522-1.407,3.522-3.521V8.354C-116.438,6.24-117.844,4.834-119.96,4.834L-119.96,4.834z M-119.96,4.834"/>
	<path d="M-119.96,32.958h-7.018c-2.116,0-3.522,1.41-3.522,3.523v7.036c0,2.116,1.406,3.522,3.522,3.522h7.018
		c2.116,0,3.522-1.406,3.522-3.522v-7.036C-116.438,34.368-117.844,32.958-119.96,32.958L-119.96,32.958z M-119.96,32.958"/>
	<path d="M-119.96,61.103h-7.018c-2.116,0-3.522,1.407-3.522,3.523v7.017c0,2.116,1.406,3.523,3.522,3.523h7.018
		c2.116,0,3.522-1.407,3.522-3.523v-7.017C-116.438,62.51-117.844,61.103-119.96,61.103L-119.96,61.103z M-119.96,61.103"/>
	<path d="M-54.022,4.834h-49.228c-2.116,0-3.522,1.406-3.522,3.52v7.022c0,2.113,1.406,3.521,3.522,3.521h49.228
		c2.116,0,3.522-1.407,3.522-3.521V8.354C-50.5,6.24-51.906,4.834-54.022,4.834L-54.022,4.834z M-54.022,4.834"/>
	<path d="M-54.022,32.958h-49.228c-2.116,0-3.522,1.41-3.522,3.523v7.036c0,2.116,1.406,3.522,3.522,3.522h49.228
		c2.116,0,3.522-1.406,3.522-3.522v-7.036C-50.5,34.368-51.906,32.958-54.022,32.958L-54.022,32.958z M-54.022,32.958"/>
	<path d="M-54.022,61.103h-49.228c-2.116,0-3.522,1.407-3.522,3.523v7.017c0,2.116,1.406,3.523,3.522,3.523h49.228
		c2.116,0,3.522-1.407,3.522-3.523v-7.017C-50.5,62.51-51.906,61.103-54.022,61.103L-54.022,61.103z M-54.022,61.103"/>
</g>
<g>
	<g>
		<path fill-rule="evenodd" clip-rule="evenodd" d="M26.665,22.224c-4.914,0-8.884,3.984-8.884,8.888
			c0,4.913,3.97,8.897,8.884,8.897c4.905,0,8.889-3.984,8.889-8.897C35.554,26.208,31.579,22.224,26.665,22.224L26.665,22.224z
			 M75.554,4.443H4.446C1.999,4.443,0,6.442,0,8.893V71.11c0,2.452,1.999,4.446,4.446,4.446h71.107c2.462,0,4.446-1.994,4.446-4.446
			V8.893C80,6.442,78.016,4.443,75.554,4.443L75.554,4.443z M71.116,64.447c0,1.227-0.999,2.217-2.226,2.217H32.892l24.898-24.89
			l13.326,13.313V64.447z M71.116,42.696l-9.688-9.688c-0.154-0.218-0.305-0.422-0.5-0.609c-0.867-0.866-2.021-1.297-3.17-1.288
			c-1.127-0.009-2.275,0.413-3.143,1.277c-0.155,0.164-0.288,0.328-0.405,0.5L20.438,66.673h-9.329
			c-1.227,0-2.226-0.999-2.226-2.226V15.553c0-1.224,0.999-2.224,2.226-2.224h57.781c1.227,0,2.226,1,2.226,2.224V42.696z
			 M71.116,42.696"/>
	</g>
</g>
</svg>
