<?xml version="1.0" encoding="utf-8"?>
<!-- Generator: Adobe Illustrator 16.0.0, SVG Export Plug-In . SVG Version: 6.00 Build 0)  -->
<!DOCTYPE svg PUBLIC "-//W3C//DTD SVG 1.1//EN" "http://www.w3.org/Graphics/SVG/1.1/DTD/svg11.dtd">
<svg version="1.1" id="Layer_1" xmlns="http://www.w3.org/2000/svg" xmlns:xlink="http://www.w3.org/1999/xlink" x="0px" y="0px"
	 width="20px" height="20px" viewBox="0 0 80 80" enable-background="new 0 0 80 80" xml:space="preserve">
<g>
	<path d="M-457.5-152.5h-60c-4.125,0-7.5,3.375-7.5,7.5v65c0,4.125,3.375,7.5,7.5,7.5h60c4.125,0,7.5-3.375,7.5-7.5v-65
		C-450-149.125-453.375-152.5-457.5-152.5L-457.5-152.5z M-457.458-79.728h-60.084v-65.546h60.084V-79.728z M-505-107.5h35v5h-35
		V-107.5z M-505-97.5h35v5h-35V-97.5z M-500-130c0,4.142,3.357,7.5,7.5,7.5s7.5-3.359,7.5-7.5c0-4.142-3.357-7.5-7.5-7.5
		S-500-134.142-500-130L-500-130z M-487.5-122.5h-10c-4.125,0-7.5,2.25-7.5,4.999v5h25v-5C-480-120.25-483.375-122.5-487.5-122.5
		L-487.5-122.5z M-487.5-122.5"/>
</g>
<g>
	<path d="M-318.387-79.652h-74.227c-1.598,0-2.887-1.367-2.887-3.043v-59.608c0-1.684,1.289-3.043,2.887-3.043h74.227
		c1.598,0,2.887,1.36,2.887,3.043v59.608C-315.5-81.02-316.789-79.652-318.387-79.652L-318.387-79.652z M-389.728-85.74h68.455
		v-53.527h-68.455V-85.74z M-389.728-85.74"/>
	<path d="M-375.921-113.178c-5.305,0-9.624-4.32-9.624-9.629c0-5.312,4.319-9.63,9.624-9.63c5.312,0,9.63,4.318,9.63,9.63
		C-366.291-117.498-370.609-113.178-375.921-113.178L-375.921-113.178z M-375.921-126.358c-1.95,0-3.545,1.594-3.545,3.551
		c0,1.958,1.595,3.545,3.545,3.545c1.956,0,3.55-1.588,3.55-3.545C-372.371-124.764-373.965-126.358-375.921-126.358
		L-375.921-126.358z M-375.921-126.358"/>
	<path d="M-369.326-92.568h-13.177c-1.682,0-3.042-1.365-3.042-3.043v-13.176c0-1.678,1.36-3.045,3.042-3.045h13.177
		c1.676,0,3.035,1.367,3.035,3.045v13.176C-366.291-93.934-367.65-92.568-369.326-92.568L-369.326-92.568z M-379.466-98.648h7.095
		v-7.096h-7.095V-98.648z M-379.466-98.648"/>
	<g>
		<path d="M-329.101-122.958h-28.964c-1.676,0-3.035-1.364-3.035-3.042c0-1.678,1.359-3.038,3.035-3.038h28.964
			c1.676,0,3.035,1.36,3.035,3.038C-326.065-124.322-327.425-122.958-329.101-122.958L-329.101-122.958z M-329.101-122.958"/>
		<path d="M-329.101-109.781h-28.964c-1.676,0-3.035-1.359-3.035-3.037c0-1.684,1.359-3.043,3.035-3.043h28.964
			c1.676,0,3.035,1.359,3.035,3.043C-326.065-111.141-327.425-109.781-329.101-109.781L-329.101-109.781z M-329.101-109.781"/>
		<path d="M-329.101-96.605h-28.964c-1.676,0-3.035-1.365-3.035-3.045c0-1.676,1.359-3.033,3.035-3.033h28.964
			c1.676,0,3.035,1.357,3.035,3.033C-326.065-97.971-327.425-96.605-329.101-96.605L-329.101-96.605z M-329.101-96.605"/>
	</g>
</g>
<g>
	<path d="M-252.46-147.666h-7.018c-2.116,0-3.522,1.406-3.522,3.52v7.022c0,2.113,1.406,3.521,3.522,3.521h7.018
		c2.116,0,3.522-1.407,3.522-3.521v-7.022C-248.938-146.26-250.344-147.666-252.46-147.666L-252.46-147.666z M-252.46-147.666"/>
	<path d="M-252.46-119.542h-7.018c-2.116,0-3.522,1.41-3.522,3.523v7.036c0,2.116,1.406,3.522,3.522,3.522h7.018
		c2.116,0,3.522-1.406,3.522-3.522v-7.036C-248.938-118.132-250.344-119.542-252.46-119.542L-252.46-119.542z M-252.46-119.542"/>
	<path d="M-252.46-91.397h-7.018c-2.116,0-3.522,1.407-3.522,3.523v7.017c0,2.116,1.406,3.523,3.522,3.523h7.018
		c2.116,0,3.522-1.407,3.522-3.523v-7.017C-248.938-89.99-250.344-91.397-252.46-91.397L-252.46-91.397z M-252.46-91.397"/>
	<path d="M-186.522-147.666h-49.228c-2.116,0-3.522,1.406-3.522,3.52v7.022c0,2.113,1.406,3.521,3.522,3.521h49.228
		c2.116,0,3.522-1.407,3.522-3.521v-7.022C-183-146.26-184.406-147.666-186.522-147.666L-186.522-147.666z M-186.522-147.666"/>
	<path d="M-186.522-119.542h-49.228c-2.116,0-3.522,1.41-3.522,3.523v7.036c0,2.116,1.406,3.522,3.522,3.522h49.228
		c2.116,0,3.522-1.406,3.522-3.522v-7.036C-183-118.132-184.406-119.542-186.522-119.542L-186.522-119.542z M-186.522-119.542"/>
	<path d="M-186.522-91.397h-49.228c-2.116,0-3.522,1.407-3.522,3.523v7.017c0,2.116,1.406,3.523,3.522,3.523h49.228
		c2.116,0,3.522-1.407,3.522-3.523v-7.017C-183-89.99-184.406-91.397-186.522-91.397L-186.522-91.397z M-186.522-91.397"/>
</g>
<g>
	<g>
		<path fill-rule="evenodd" clip-rule="evenodd" d="M-105.835-130.276c-4.914,0-8.884,3.984-8.884,8.888
			c0,4.913,3.97,8.897,8.884,8.897c4.905,0,8.889-3.984,8.889-8.897C-96.946-126.292-100.921-130.276-105.835-130.276
			L-105.835-130.276z M-56.946-148.057h-71.107c-2.447,0-4.446,1.999-4.446,4.449v62.218c0,2.452,1.999,4.446,4.446,4.446h71.107
			c2.462,0,4.446-1.994,4.446-4.446v-62.218C-52.5-146.058-54.484-148.057-56.946-148.057L-56.946-148.057z M-61.384-88.053
			c0,1.227-0.999,2.217-2.226,2.217h-35.999l24.898-24.89l13.326,13.313V-88.053z M-61.384-109.804l-9.688-9.688
			c-0.154-0.218-0.305-0.422-0.5-0.609c-0.867-0.866-2.021-1.297-3.17-1.288c-1.127-0.009-2.275,0.413-3.143,1.277
			c-0.155,0.164-0.288,0.328-0.405,0.5l-33.772,33.784h-9.329c-1.227,0-2.226-0.999-2.226-2.226v-48.895
			c0-1.224,0.999-2.224,2.226-2.224h57.781c1.227,0,2.226,1,2.226,2.224V-109.804z M-61.384-109.804"/>
	</g>
</g>
<g>
	<path d="M59.577-115.41c-3.715,1.768-6.742,7.139-10.285,3.596c-2.149-2.336-4.703-6.055-7.64-10.258
		c-3.174-4.521-7.218-8.406-11.977-3.965c-5.315,4.998-8.963,18.561-9.28,25.541l50.206,0.016
		C69.453-104.585,64.991-117.988,59.577-115.41L59.577-115.41z M59.577-115.41"/>
	<path d="M65.517-129.457c0,3.408-2.762,6.173-6.174,6.173c-3.408,0-6.173-2.765-6.173-6.173c0-3.412,2.765-6.178,6.173-6.178
		C62.755-135.635,65.517-132.869,65.517-129.457L65.517-129.457z M65.517-129.457"/>
	<path d="M78.165-143.548h-65.33c-1.013,0-1.835,0.821-1.835,1.835v9.28H1.835c-1.012,0-1.835,0.823-1.835,1.835v47.311
		c0,1.013,0.823,1.835,1.835,1.835h65.326c1.013,0,1.835-0.822,1.835-1.835v-9.28h9.169c1.012,0,1.835-0.818,1.835-1.831v-47.314
		C80-142.727,79.177-143.548,78.165-143.548L78.165-143.548z M64.07-86.379H4.926v-41.128H11v28.595
		c-0.922,3.564-1.489,6.983-1.605,9.53l50.206,0.016c-0.219-0.786-0.56-1.91-1.009-3.201h5.479V-86.379z M75.074-97.493H15.926
		v-41.13h59.148V-97.493z M75.074-97.493"/>
</g>
<g>
	<path d="M74.342,63.895c-9.43-7.742-19.594-12.886-21.693-13.922c-0.236-0.117-0.385-0.352-0.385-0.617V34.668
		c1.864-1.242,3.078-3.344,3.078-5.705V13.715C55.342,6.146,49.193,0,41.626,0h-3.253c-7.563,0-13.711,6.146-13.711,13.715v15.219
		c0,2.391,1.211,4.492,3.073,5.703v14.688c0,0.266-0.146,0.5-0.386,0.619c-2.063,1.006-12.234,6.146-21.688,13.92
		c-1.718,1.391-2.691,3.489-2.691,5.703V80h74.059V69.566C77.029,67.379,76.054,65.285,74.342,63.895L74.342,63.895z M74.342,63.895
		"/>
</g>
</svg>
