<?xml version="1.0" encoding="utf-8"?>
<!-- Generator: Adobe Illustrator 22.1.0, SVG Export Plug-In . SVG Version: 6.00 Build 0)  -->
<svg version="1.1" id="Layer_1" xmlns="http://www.w3.org/2000/svg" xmlns:xlink="http://www.w3.org/1999/xlink" x="0px" y="0px"
	 viewBox="0 0 828.9 507.1" style="enable-background:new 0 0 828.9 507.1;" xml:space="preserve">
<style type="text/css">
	.st0{fill:#F28222;}
</style>
<g>
	<path class="st0" d="M327,46.6l23.1,23.1l-60.7,60.7l-21.9,3.9c-1.5,0.3-2.8-0.1-3.9-1.2s-1.5-2.4-1.2-3.9l3.9-21.9L327,46.6z
		 M284.7,79.5l-20.4-20.4c-1.2-1.2-1.8-2.8-1.8-4.6c0-1.8,0.6-3.4,1.8-4.6l18.4-18.4c1.2-1.2,2.8-1.8,4.6-1.8c1.8,0,3.4,0.6,4.6,1.8
		l6.9,6.9l-12.7,12.7c-0.4,0.3-0.6,0.6-0.6,1.1s0.2,0.9,0.6,1.1l2.2,2.2c0.3,0.3,0.6,0.4,1.1,0.4s0.9-0.1,1.1-0.4l12.7-12.7l9,9
		L284.7,79.5z M365.2,104.8c1.2,1.2,1.8,2.8,1.8,4.6c0,1.8-0.6,3.4-1.8,4.6l-18.4,18.4c-1.2,1.2-2.8,1.8-4.6,1.8
		c-1.8,0-3.4-0.6-4.6-1.8l-20.4-20.6l27.6-27.4l9,9L341.1,106c-0.3,0.3-0.4,0.6-0.4,1.1s0.1,0.9,0.4,1.1l2.2,2.2
		c0.3,0.4,0.6,0.6,1.1,0.6s0.9-0.2,1.1-0.6l12.7-12.7L365.2,104.8z M364.2,55.6l-9.4,9.4l-23.1-23.1l9.4-9.4
		c1.9-1.9,4.2-2.9,6.9-2.9c2.7,0,5,1,6.9,2.9l9.2,9.2c1.9,1.9,2.9,4.2,2.9,6.9S366.1,53.7,364.2,55.6z"/>
</g>
<g>
	<path class="st0" d="M249.3,275.9v-52.3h19.6v45.7c0,1.8-0.6,3.3-1.9,4.6c-1.3,1.3-2.8,1.9-4.6,1.9H249.3z M259.1,262.8
		c-1,0-1.7,0.3-2.3,0.9c-0.6,0.6-0.9,1.4-0.9,2.3s0.3,1.7,0.9,2.3c0.6,0.6,1.4,0.9,2.3,0.9c1,0,1.7-0.3,2.3-0.9
		c0.6-0.6,0.9-1.4,0.9-2.3s-0.3-1.7-0.9-2.3C260.9,263.1,260.1,262.8,259.1,262.8z M348.2,266.7c1.4,1.1,2.1,2.5,2.3,4.3
		c0.2,1.8-0.3,3.4-1.5,4.9l-1.8,2.2c-1.1,1.5-2.6,2.3-4.4,2.6c-1.8,0.2-3.4-0.3-4.8-1.5l-1-0.8l-6.5,7.8c-1.2,1.6-2.9,2.6-5,2.9
		s-4-0.3-5.6-1.6l-3.7-3.3c-2.3,2.9-5.3,4.5-8.9,4.9c-3.6,0.4-6.8-0.5-9.5-2.9l-18.6-16.7h-3.7v-45.7l11.2-11.2
		c1.2-1.2,2.7-1.8,4.5-1.8h17.2l-16.7,15.3c-3,2.7-4.6,6.1-4.7,10.2c-0.1,4.1,1.2,7.6,3.9,10.5c2.7,2.9,6.1,4.5,10.1,4.7
		s7.6-1.1,10.7-3.8l6.1-5.7L348.2,266.7z M338.2,210.6c1.8,0,3.3,0.6,4.5,1.8l11.2,11.2V263c-0.5-0.5-1.1-1-1.6-1.4l-29.8-24.1
		l5.3-4.9c0.7-0.7,1.1-1.5,1.1-2.3c0.1-0.9-0.2-1.7-0.8-2.3c-0.6-0.7-1.4-1-2.2-1c-0.9,0-1.7,0.3-2.3,0.8l-16.3,15.1
		c-1.8,1.4-3.8,2-6.1,1.8c-2.3-0.1-4.2-1-5.5-2.6c-1.4-1.6-2-3.5-2-5.7c0-2.2,0.9-4.1,2.7-5.6l20-18.6c1.2-1.1,2.7-1.6,4.5-1.6
		H338.2z M360.4,223.6H380v52.3H367c-1.8,0-3.3-0.6-4.6-1.9c-1.3-1.3-1.9-2.8-1.9-4.6V223.6z M370.2,269.4c1,0,1.7-0.3,2.3-0.9
		c0.6-0.6,0.9-1.4,0.9-2.3s-0.3-1.7-0.9-2.3c-0.6-0.6-1.4-0.9-2.3-0.9s-1.7,0.3-2.3,0.9c-0.6,0.6-0.9,1.4-0.9,2.3s0.3,1.7,0.9,2.3
		C368.5,269.1,369.3,269.4,370.2,269.4z"/>
</g>
<g>
	<path class="st0" d="M260.2,381.3c0.4-0.7,0.9-1.2,1.5-1.5s1.3-0.4,1.9-0.3l51.1,6.5l-18.8,31c-0.4,0.7-1,1.2-1.6,1.4s-1.4,0.3-2,0
		L251.8,407c-1.1-0.3-1.8-0.9-2.2-1.8c-0.4-1-0.3-1.9,0.2-2.9L260.2,381.3z M336.3,425.2c1,0,1.8-0.1,2.7-0.4l28-8v36.4
		c0,1.5-0.5,2.8-1.4,4s-2.1,1.9-3.5,2.3l-44.3,11c-2,0.5-4.2,0.5-6.3,0l-44.1-11c-1.4-0.4-2.5-1.2-3.5-2.3s-1.4-2.5-1.4-4v-36.4
		l28,8c0.8,0.3,1.7,0.4,2.7,0.4c1.8,0,3.4-0.4,4.9-1.3c1.5-0.9,2.7-2,3.7-3.4l13.1-21.9l13.1,21.9c1,1.4,2.2,2.5,3.7,3.4
		C332.9,424.7,334.6,425.2,336.3,425.2z M379.6,402.3c0.5,1,0.6,1.9,0.2,2.9c-0.4,1-1.2,1.6-2.2,1.8l-40.4,11.4
		c-0.7,0.3-1.4,0.3-2,0c-0.7-0.3-1.2-0.7-1.6-1.4l-18.8-31l51.1-6.5c0.7-0.1,1.3,0,1.9,0.3c0.6,0.3,1.1,0.9,1.5,1.5L379.6,402.3z"/>
</g>
<g>
	<g>
		<path class="st0" d="M557.6,438.2c-4.6,0-8.7,1.4-12.3,4.3l-20.8-13.1c0.5-2.9,0.5-5.7,0-8.6l20.8-13.1c3.5,2.9,7.6,4.3,12.3,4.3
			c5.5,0,10.1-1.9,13.9-5.7c3.8-3.8,5.7-8.4,5.7-13.9s-1.9-10.1-5.7-13.9c-3.8-3.8-8.4-5.7-13.9-5.7c-5.4,0-10.1,1.9-13.9,5.7
			c-3.8,3.8-5.7,8.4-5.7,13.9c0,1.5,0.1,2.9,0.4,4.3l-20.8,13.1c-3.5-2.9-7.6-4.3-12.3-4.3c-5.5,0-10.1,1.9-13.9,5.7
			s-5.7,8.4-5.7,13.9s1.9,10.1,5.7,13.9c3.8,3.8,8.4,5.7,13.9,5.7c4.6,0,8.7-1.4,12.3-4.3l20.8,13.1c-0.3,1.4-0.4,2.8-0.4,4.3
			c0,5.4,1.9,10.1,5.7,13.9c3.8,3.8,8.4,5.7,13.9,5.7c5.5,0,10.1-1.9,13.9-5.7c3.8-3.8,5.7-8.5,5.7-13.9c0-5.5-1.9-10.1-5.7-13.9
			C567.7,440.1,563,438.2,557.6,438.2z"/>
	</g>
	<g>
		<path class="st0" d="M575.8,37.6c-1-1-2.1-1.4-3.5-1.4h-81.7c-1.4,0-2.5,0.5-3.5,1.4c-1,1-1.4,2.1-1.4,3.5v81.7
			c0,1.4,0.5,2.5,1.4,3.5c1,1,2.1,1.4,3.5,1.4h53.9V99.9c0-1.4,0.5-2.5,1.4-3.5c1-1,2.1-1.4,3.5-1.4h27.8V41.1
			C577.2,39.7,576.7,38.6,575.8,37.6z M551.1,101.5v26.1h1.2c1.4,0,2.5-0.5,3.5-1.4l20-20c1-1,1.4-2.1,1.4-3.5v-1.2H551.1z"/>
	</g>
	<g>
		<path class="st0" d="M543.6,289.9c-0.6-0.6-1.4-0.9-2.3-0.9c-1,0-1.7,0.3-2.4,0.9c-0.6,0.6-0.9,1.4-0.9,2.4s0.3,1.7,0.9,2.3
			c0.6,0.6,1.4,0.9,2.4,0.9c0.9,0,1.7-0.3,2.3-0.9c0.6-0.6,0.9-1.4,0.9-2.3S544.2,290.5,543.6,289.9z M524,289.9
			c-0.6-0.6-1.4-0.9-2.4-0.9c-0.9,0-1.7,0.3-2.3,0.9c-0.6,0.6-0.9,1.4-0.9,2.4v9.8h6.5v-9.8C524.9,291.3,524.6,290.5,524,289.9z
			 M566.5,218c-0.6-0.6-1.4-0.9-2.3-0.9h-2.7c-1.9-4.2-4.5-7.9-7.8-10.9c-0.8,0.4-1.5,0.7-2.3,0.9c-1.9,0.5-3.7,0.7-5.5,0.7h-2.6
			c-3.4,1.6-7.2,2.4-11.6,2.4c-4.4,0-8.3-0.8-11.6-2.4c-0.1,0-0.1,0-0.1,0h-1.7c-0.7,0-1.3,0-2,0c-2.6-0.1-4.7-0.6-6.5-1.5
			c-0.1,0-0.2-0.1-0.2-0.1c-3.4,3.1-6,6.8-7.9,11h-2.7c-1,0-1.7,0.3-2.3,0.9c-0.6,0.6-0.9,1.4-0.9,2.3V240c0,1,0.3,1.7,0.9,2.3
			c0.6,0.6,1.4,0.9,2.3,0.9h2.9c2.5,5.9,6.4,10.6,11.8,14.2c5.5,3.6,11.4,5.4,18,5.4c6.5,0,12.5-1.8,18-5.4
			c5.4-3.6,9.4-8.3,11.8-14.2h2.9c1,0,1.7-0.3,2.3-0.9c0.6-0.6,0.9-1.4,0.9-2.3v-19.6C567.4,219.4,567.1,218.6,566.5,218z
			 M556,230.2c0,5.5-1.9,10.1-5.7,13.9s-8.4,5.7-13.9,5.7h-9.8c-5.5,0-10.1-1.9-13.9-5.7s-5.7-8.4-5.7-13.9v-4.9
			c0-2.3,1-4.3,2.9-5.8c1.9-1.6,4.2-2.4,7-2.4h29.4c2.7,0,5,0.8,6.9,2.4c1.9,1.6,2.9,3.5,2.9,5.8V230.2z M570.2,272
			c-4.7-5.2-10.5-8.2-17.5-9c-6.5,4.2-13.6,6.3-21.2,6.3c-7.6,0-14.7-2.1-21.2-6.3c-6.9,0.8-12.8,3.8-17.5,9c-4.7,5.2-7,11.2-7,18.2
			v2c0,2.7,1,5,2.9,6.9c1.9,1.9,4.2,2.9,7,2.9h16.3V289c0-1.8,0.6-3.3,1.9-4.6c1.3-1.3,2.8-1.9,4.6-1.9h26.1c1.8,0,3.3,0.6,4.6,1.9
			c1.3,1.3,1.9,2.8,1.9,4.6V302h16.3c2.7,0,5-1,6.9-2.9c1.9-1.9,2.9-4.2,2.9-6.9v-2C577.2,283.3,574.9,277.2,570.2,272z"/>
	</g>
</g>
<g>
	<g>
		<path class="st0" d="M82.4,47.6c1,0.5,1.4,1.4,1.4,2.7v74.3c0,1.1-0.5,1.9-1.5,2.6c-1,0.6-2.1,0.6-3.2,0.1
			c-6.3-3.1-14.2-5.5-23.9-7.1c-6.5-1.2-13.5-2-20.8-2.5c-1.8,0-3.2-0.6-4.4-1.8c-1.2-1.2-1.7-2.7-1.7-4.3v-69c0-1.9,0.7-3.5,2-4.7
			c1.4-1.2,3-1.8,4.9-1.6c8,0.4,15.6,1.4,22.7,2.9C68.1,41.1,76.3,43.9,82.4,47.6z M139,36.2c1.9-0.1,3.5,0.4,4.9,1.6
			c1.4,1.2,2,2.8,2,4.7v69c0,1.6-0.6,3.1-1.7,4.3c-1.2,1.2-2.6,1.8-4.4,1.8c-7.4,0.4-14.3,1.2-20.8,2.5c-9.7,1.6-17.6,4-23.9,7.1
			c-1.1,0.5-2.1,0.5-3.2-0.1c-1-0.6-1.5-1.5-1.5-2.6V50.3c0-1.2,0.5-2.1,1.4-2.7c6.1-3.7,14.3-6.5,24.5-8.6
			C123.4,37.5,130.9,36.6,139,36.2z"/>
	</g>
	<g>
		<path class="st0" d="M132,373.5c1.8-1,3.5-0.9,5.2,0.3c1.7,1.2,2.4,2.8,2.1,4.8l-14.7,88.2c-0.3,1.5-1.1,2.7-2.6,3.5
			c-1.4,0.8-2.8,0.9-4.2,0.2l-25.5-10.6l-12.9,15.7c-1,1.2-2.1,1.8-3.6,1.8s-2.7-0.4-3.7-1.3c-1-0.9-1.5-2.1-1.5-3.8V456l49.2-60
			c0.4-0.5,0.3-1.1-0.2-1.5s-1.1-0.5-1.6-0.1L59.5,446l-21.6-9c-1.9-0.8-2.9-2.2-3.1-4.3c-0.1-2,0.7-3.5,2.7-4.5L132,373.5z"/>
	</g>
	<g>
		<path class="st0" d="M138.7,276.4c0.5,0.5,0.7,1.1,0.7,1.7v8.2c0,0.7-0.2,1.3-0.7,1.7s-1.1,0.7-1.7,0.7H37.3
			c-0.7,0-1.3-0.2-1.7-0.7s-0.7-1.1-0.7-1.7v-73.5c0-0.7,0.2-1.3,0.7-1.7s1.1-0.7,1.7-0.7h8.2c0.7,0,1.3,0.2,1.7,0.7
			s0.7,1.1,0.7,1.7v62.9h89C137.6,275.7,138.2,275.9,138.7,276.4z M105.1,216.9c-1.4,0-2.5,0.5-3.5,1.4s-1.4,2.1-1.4,3.5
			s0.5,2.5,1.4,3.5l6.7,6.7l-14.7,14.9l-11.4-11.4c-0.4-0.4-1-0.6-1.6-0.6s-1.3,0.2-1.8,0.6l-24.3,24.1c-0.4,0.4-0.6,1-0.6,1.6
			s0.2,1.3,0.6,1.8l5.9,5.9c0.4,0.5,1,0.8,1.6,0.8s1.3-0.3,1.8-0.8l16.7-16.7l11.2,11.4c0.5,0.4,1.2,0.6,1.8,0.6s1.2-0.2,1.6-0.6
			l22.5-22.3l6.7,6.7c1,1,2.1,1.4,3.5,1.4c1.4,0,2.5-0.5,3.5-1.4s1.4-2.1,1.4-3.5v-22.9c0-1.4-0.5-2.5-1.4-3.5s-2.1-1.4-3.5-1.4
			H105.1z"/>
	</g>
</g>
<g>
	<g>
		<path class="st0" d="M679.7,398.9c0-1.4,0.4-2.6,1.1-3.7c0.7-1.1,1.7-1.9,3-2.5l28.6-11.4v78.4l-28.2,12.9
			c-1.1,0.4-2.1,0.3-3.1-0.4s-1.4-1.6-1.4-2.7V398.9z M718.9,459.8v-78.4l39.2,13.1v78.4L718.9,459.8z M792.8,381.5
			c1.1-0.4,2.1-0.3,3.1,0.4s1.4,1.6,1.4,2.7v70.7c0,1.4-0.4,2.6-1.1,3.7c-0.7,1.1-1.7,1.9-3,2.5l-28.6,11.4v-78.4L792.8,381.5z"/>
	</g>
	<g>
		<path class="st0" d="M783,76c6,1.2,11,4.2,14.9,9c3.9,4.8,5.9,10.3,5.9,16.5c0,4.8-1.2,9.2-3.5,13.2s-5.5,7.2-9.5,9.5
			c-4,2.3-8.4,3.5-13.2,3.5h-75.2c-5.3,0-10.2-1.3-14.7-4c-4.5-2.7-8.1-6.2-10.7-10.7c-2.7-4.5-4-9.4-4-14.7
			c0-6.4,1.8-12.1,5.5-17.2c3.7-5,8.4-8.6,14.1-10.6v-1.6c0-5.9,1.5-11.3,4.4-16.3c2.9-5,6.9-9,11.9-11.9s10.5-4.4,16.4-4.4
			s11.4,1.5,16.4,4.5c5,3,9,6.9,11.8,11.8c3.3-2.2,6.9-3.3,10.8-3.3c5.4,0,10.1,1.9,13.9,5.7s5.7,8.4,5.7,13.9
			C784.3,71.3,783.9,73.7,783,76z"/>
	</g>
	<g>
		<path class="st0" d="M738.5,262.8c-1.8,0-3.9-0.8-6.5-2.5c-1.5-0.8-3.6-2.3-6.3-4.5l-2-1.4c-16.7-12.3-28.1-20.7-34.1-25.3l-1.4-1
			c-1.2-1-1.8-2.2-1.8-3.9v-3.9c0-2.7,1-5,2.9-6.9s4.2-2.9,6.9-2.9h85c2.7,0,5,1,6.9,2.9s2.9,4.2,2.9,6.9v3.9c0,1.6-0.6,2.9-1.8,3.9
			l-1,0.8c-5.9,4.6-17.4,13.1-34.5,25.5l-2,1.4c-2.7,2.2-4.8,3.7-6.3,4.5C742.5,262,740.3,262.8,738.5,262.8z M788.8,236.5
			c-4.9,3.8-15.4,11.5-31.5,23.1l-2,1.6c-3.1,2.5-5.7,4.2-7.8,5.3c-3.3,1.9-6.3,2.9-9,2.9c-2.7,0-5.7-0.9-9-2.7
			c-1.9-1.1-4.5-2.9-7.8-5.3l-2-1.8c-16.5-12-27-19.7-31.5-23.1c-0.4-0.3-0.9-0.3-1.3-0.1c-0.5,0.2-0.7,0.6-0.7,1.1v41.7
			c0,2.7,1,5,2.9,6.9s4.2,2.9,6.9,2.9h85c2.7,0,5-1,6.9-2.9s2.9-4.2,2.9-6.9v-41.7c0-0.5-0.2-1-0.7-1.2
			C789.6,236,789.2,236.1,788.8,236.5z"/>
	</g>
</g>
<g>
	<path class="st0" d="M558.8,192.9c0,2.1-0.6,4.2-1.7,6c-1.4,2.4-3.8,4.3-6.1,5.1c-0.2,0-0.3,0.1-0.5,0.1c-1.6,0.4-3.2,0.6-4.8,0.6
		h-3.3l-0.3,0.1c-3,1.5-6.5,2.2-10.6,2.2c-4.1,0-7.6-0.7-10.6-2.2c-0.3-0.1-0.6-0.2-0.8-0.2c-0.1,0-0.2,0-0.3,0h-1.8
		c-0.6,0-1.2,0-1.8,0c-1.7-0.1-3.1-0.4-4.3-0.8c-0.4-0.1-0.7-0.3-1-0.4c-1.3-0.6-2.5-1.5-3.5-2.6c-2-2.2-3.1-5.1-3.1-8
		c0-2.4,1.9-4.3,4.3-4.3c1.1,0,2.3,0.8,3.5,2.3c0.8,0.9,1.8,2.1,3.2,3.1l2,1.5l0.4-2.4c0.4-2.4,1.6-8.5,3.3-11.8c2.5-5,3.6-7,6.9-7
		c0.8,0,1.9,0.9,2.6,1.5l1,1l1-1c0.8-0.8,1.7-1.5,2.6-1.5c3.3,0,4.5,2.2,6.9,7c1.7,3.4,2.8,8.9,3.3,11.8l0.4,2.4l2-1.5
		c1.4-1.1,2.5-2.3,3.2-3.1c1.2-1.5,2.5-2.3,3.6-2.3C556.9,188.6,558.8,190.5,558.8,192.9z"/>
</g>
</svg>
