<svg id="Layer_1" data-name="Layer 1" xmlns="http://www.w3.org/2000/svg" viewBox="0 0 1600 1200"><defs><style>.cls-1{fill:#f28222;}</style></defs><title>Artboard 1</title><path class="cls-1" d="M214.29,28.57h-200A14.34,14.34,0,0,0,0,42.86v100a14.34,14.34,0,0,0,14.29,14.28h200a14.32,14.32,0,0,0,14.28-14.28v-100A14.32,14.32,0,0,0,214.29,28.57Zm-128.58,100H71.43L42.86,80.94v47.63H28.57V57.14H42.86l28.57,47.63V57.14H85.71Zm42.86-57.14H114.29V85.71h14.28V100H114.29v14.29h14.28v14.28H100V57.14h28.57ZM200,128.57H185.71L171.43,100l-14.29,28.57H142.86V57.14h14.28V100l14.29-28.57L185.71,100V57.14H200Z"/><path class="cls-1" d="M657.14,85.71H485.71a28.67,28.67,0,0,0-28.57,28.58V228.57a28.66,28.66,0,0,0,28.57,28.57H657.14a28.66,28.66,0,0,0,28.57-28.57V114.29A28.67,28.67,0,0,0,657.14,85.71Zm14.29,142.86a14.29,14.29,0,0,1-14.29,14.29H485.71a14.31,14.31,0,0,1-14.28-14.29V157.14h200Zm0-100h-200V114.29A14.32,14.32,0,0,1,485.71,100H657.14a14.3,14.3,0,0,1,14.29,14.29Z"/><rect class="cls-1" x="485.71" y="171.43" width="85.71" height="14.29"/><rect class="cls-1" x="485.71" y="200" width="28.57" height="14.29"/><rect class="cls-1" x="614.29" y="171.43" width="42.86" height="28.57"/><circle class="cls-1" cx="971.43" cy="228.57" r="28.57"/><circle class="cls-1" cx="1100" cy="228.57" r="28.57"/><path class="cls-1" d="M1135.71,57.14H992.86a7.16,7.16,0,0,0-7.15,7.15V85.71H950a12.72,12.72,0,0,0-10.35,6.39l-22.18,44.37A35.93,35.93,0,0,0,914.29,150v42.86a19.8,19.8,0,0,0,5.05,12.19l4.18,4.19a19.45,19.45,0,0,0,7.9,4.29,42.63,42.63,0,0,1,80.22.76h48.13a42.65,42.65,0,0,1,80-1.44,7.06,7.06,0,0,0,3.1-5.71V64.29A7.18,7.18,0,0,0,1135.71,57.14Zm-150,85.72H942.86L957.14,100h28.57Z"/><rect class="cls-1" x="1385.71" y="214.29" width="42.86" height="42.86"/><rect class="cls-1" x="1442.86" y="185.71" width="42.86" height="71.43"/><rect class="cls-1" x="1500" y="157.14" width="42.86" height="100"/><rect class="cls-1" x="1557.14" y="128.57" width="42.86" height="128.57"/><polygon class="cls-1" points="1568.47 81.17 1526.2 81.17 1470.68 122.81 1441.88 108.41 1371.43 167.12 1371.43 185.71 1443.83 125.36 1472.18 139.54 1530.94 95.45 1574.39 95.45 1600 69.85 1600 49.64 1568.47 81.17"/><path class="cls-1" d="M200,485.71H0V714.29H228.57v-200Zm-142.86,0H171.43v71.43H57.14ZM28.57,700V614.29H185.71V700Zm185.72-14.29H200V671.43h14.29Z"/><rect class="cls-1" x="128.57" y="500" width="28.57" height="42.86"/><rect class="cls-1" x="57.14" y="671.43" width="100" height="14.29"/><rect class="cls-1" x="57.14" y="642.86" width="71.43" height="14.29"/><path class="cls-1" d="M457.14,485.71V714.29H685.71V485.71Zm85.72,28.58h14.28v14.28H542.86Zm-28.57,0h14.28v14.28H514.29Zm-28.58,0H500v14.28H485.71ZM657.14,685.71H485.71V542.86H657.14Z"/><path class="cls-1" d="M914.29,485.71V714.29h228.57V485.71ZM1000,514.29h14.29v14.28H1000Zm-28.57,0h14.28v14.28H971.43Zm-28.57,0h14.28v14.28H942.86Zm171.43,171.42H942.86V542.86h171.43Z"/><polygon class="cls-1" points="1085.74 614.29 1057.17 614.27 1057.14 571.41 1000.03 571.41 1000.03 614.29 971.43 614.27 1028.6 671.43 1085.74 614.29"/><path class="cls-1" d="M1371.43,485.71V714.29H1600V485.71Zm85.71,28.58h14.29v14.28h-14.29Zm-28.57,0h14.29v14.28h-14.29Zm-28.57,0h14.29v14.28H1400Zm171.43,171.42H1400V542.86h171.43Z"/><polygon class="cls-1" points="1457.17 671.43 1514.29 671.43 1514.29 628.56 1542.89 628.57 1485.71 571.41 1428.57 628.56 1457.14 628.57 1457.17 671.43"/><path class="cls-1" d="M1585.8,1091.16l-30.41-17.75c-6.79-4-17.89-10.44-24.7-14.4l-31.53-17.74c-6.78-4-13.45-.78-13.45,7.08v100c0,7.84,6.67,11.05,13.45,7.09l31-17.74c6.81-4,18.2-10.44,25-14.4l30.55-17.75C1592.44,1101.59,1592.58,1095.12,1585.8,1091.16Z"/><path class="cls-1" d="M690.74,1041.27,661.83,1059c-6.78,4-19.17,10.44-26,14.4l-7.31,3.52v-28.58c0-7.86-3.51-11-10.29-7.08L588.87,1059c-6.78,4-17.39,10.44-24.17,14.4l-30.16,17.75c-6.81,4-6.67,10.43.11,14.39l30.5,17.75c6.78,4,17.91,10.43,24.72,14.4l28.38,17.74c6.81,4,10.32.75,10.32-7.09v-28.57l8.07,3.52c6.8,4,18.91,10.43,25.69,14.4l27.88,17.74c6.8,4,9.79.75,9.79-7.09v-100C700,1040.49,697.52,1037.3,690.74,1041.27Z"/><path class="cls-1" d="M216.24,1044.56l-30.43,17.74-24.68,14.4-19.81,11.55v-34.57a7.16,7.16,0,0,0-7.14-7.14H120.93a7.16,7.16,0,0,0-7.15,7.14v95.93a7.16,7.16,0,0,0,7.15,7.14h13.25a7.16,7.16,0,0,0,7.14-7.14V1115l19.81,11.55,24.68,14.4,30.43,17.74c6.78,4,12.33.76,12.33-7.08v-100C228.57,1043.78,223,1040.6,216.24,1044.56Z"/><rect class="cls-1" x="1014.29" y="1042.86" width="42.86" height="128.57" rx="14.29" ry="14.29"/><rect class="cls-1" x="1085.71" y="1042.86" width="42.86" height="128.57" rx="14.29" ry="14.29"/></svg>