<svg id="print-shoppe-logo" data-name="print-shoppe-logo" xmlns="http://www.w3.org/2000/svg" viewBox="0 0 892.9 284.13"><defs><style>.cls-1{fill:#484a97;}.cls-2{fill:#5862a8;}</style></defs><path class="cls-1" d="M54.91,134.61a20.78,20.78,0,0,1,7.82,7.86,22.17,22.17,0,0,1,2.82,11.11,23.36,23.36,0,0,1-2.63,11.11,19.83,19.83,0,0,1-7.22,7.82,19.61,19.61,0,0,1-25.41-4.32v21.2a4.08,4.08,0,0,1-6.87,2.91,3.88,3.88,0,0,1-1.14-2.91V153.58a21.9,21.9,0,0,1,2.87-11.11,21.13,21.13,0,0,1,18.73-10.72A21.75,21.75,0,0,1,54.91,134.61ZM51,166.34a13.82,13.82,0,0,0,5-5.26,15.24,15.24,0,0,0,1.85-7.5A15.48,15.48,0,0,0,56,146a13.72,13.72,0,0,0-5-5.3,13.68,13.68,0,0,0-19.2,5.3,15.79,15.79,0,0,0-1.8,7.54,15.54,15.54,0,0,0,1.8,7.5,13.65,13.65,0,0,0,5,5.26,14,14,0,0,0,14.21,0Z"/><path class="cls-1" d="M111.73,132.85c1.57.83,2.36,1.88,2.36,3.14a2.78,2.78,0,0,1-.08.78,3.05,3.05,0,0,1-3.15,2.52,6.13,6.13,0,0,1-1.17-.16,30.68,30.68,0,0,0-5.11-.55,14.8,14.8,0,0,0-9.11,2.59,8.3,8.3,0,0,0-3.45,7v22.93A4,4,0,0,1,91,174a3.93,3.93,0,0,1-3,1,4,4,0,0,1-2.9-1,3.89,3.89,0,0,1-1-2.95V136a3.57,3.57,0,0,1,3.93-3.93Q92,132.06,92,136v1.49a16.57,16.57,0,0,1,5.81-4.32,17.56,17.56,0,0,1,7.38-1.57A14,14,0,0,1,111.73,132.85Z"/><path class="cls-1" d="M137.45,116.24a5.13,5.13,0,1,1-3.65-1.53A5,5,0,0,1,137.45,116.24Zm-6.52,16.92a4,4,0,0,1,2.87-1.1,3.78,3.78,0,0,1,4,4V171a4,4,0,0,1-1.1,2.87,3.84,3.84,0,0,1-2.9,1.14,3.9,3.9,0,0,1-4-4V136.07A3.86,3.86,0,0,1,130.93,133.16Z"/><path class="cls-1" d="M190.5,134a16.56,16.56,0,0,1,6.75,6.87,22.64,22.64,0,0,1,2.44,10.87v19.32a4,4,0,1,1-8,0V151.77q0-6.36-3.42-9.62a12.61,12.61,0,0,0-9.07-3.26,13.43,13.43,0,0,0-6,1.34,10.67,10.67,0,0,0-4.24,3.61,9,9,0,0,0-1.53,5.11v22.14a4,4,0,0,1-1.1,2.87,4.22,4.22,0,0,1-5.77,0,3.9,3.9,0,0,1-1.14-2.87v-35a3.86,3.86,0,0,1,1.14-2.91,4,4,0,0,1,6.87,2.91v.86a17.49,17.49,0,0,1,6-3.89,21,21,0,0,1,17.12,1Z"/><path class="cls-1" d="M240.33,168.27a4.08,4.08,0,0,1,1,2.82,3.53,3.53,0,0,1-1.3,2.83,5,5,0,0,1-3.34,1.1h-1.41a13,13,0,0,1-7-2,14,14,0,0,1-5-5.46,16.47,16.47,0,0,1-1.81-7.78V140.39h-3.61a3.78,3.78,0,0,1-2.67-.95,3.05,3.05,0,0,1-1-2.35,3.27,3.27,0,0,1,1-2.52,3.77,3.77,0,0,1,2.67-.94h3.61V122.32a3.93,3.93,0,1,1,7.85,0v11.31H236a3.77,3.77,0,0,1,2.67.94,3.27,3.27,0,0,1,1,2.52,3.05,3.05,0,0,1-1,2.35,3.78,3.78,0,0,1-2.67.95h-6.68v19.39a8.09,8.09,0,0,0,1.73,5.27,5.28,5.28,0,0,0,4.24,2.11h2.67A3.1,3.1,0,0,1,240.33,168.27Z"/><path class="cls-1" d="M563.2,133.4a15.57,15.57,0,0,1,6.4,4.55,4,4,0,0,1,1,2.51,3.16,3.16,0,0,1-1.33,2.44,3.65,3.65,0,0,1-2.2.63,5.32,5.32,0,0,1-3.69-1.5,11.81,11.81,0,0,0-4.17-2.55,16.9,16.9,0,0,0-5.34-.74A12.74,12.74,0,0,0,548,140a3.76,3.76,0,0,0-2.31,3.42,4.32,4.32,0,0,0,.78,2.63,7,7,0,0,0,3,2,36.34,36.34,0,0,0,6.36,1.77q8.55,1.72,12.13,4.79a10,10,0,0,1,3.57,7.93,11.55,11.55,0,0,1-2,6.56,13.06,13.06,0,0,1-5.77,4.64,22.59,22.59,0,0,1-9.15,1.68,30.18,30.18,0,0,1-10.05-1.65,19.31,19.31,0,0,1-7.38-4.31,3.31,3.31,0,0,1-1-2.44,3.66,3.66,0,0,1,1.57-3.06,4.79,4.79,0,0,1,2.75-1.1,4.21,4.21,0,0,1,3,1.41,12,12,0,0,0,4.48,2.87,16.62,16.62,0,0,0,6.35,1.22,13.5,13.5,0,0,0,7-1.5,4.49,4.49,0,0,0,2.47-4,4.75,4.75,0,0,0-2.44-4.05q-2.43-1.6-8.24-2.71Q538,153.12,538,143.6a9.68,9.68,0,0,1,2.28-6.51,13.82,13.82,0,0,1,6-4,22.87,22.87,0,0,1,7.85-1.33A24.07,24.07,0,0,1,563.2,133.4Z"/><path class="cls-1" d="M619.39,134a16.56,16.56,0,0,1,6.75,6.87,22.52,22.52,0,0,1,2.44,10.87v19.32a4,4,0,1,1-8,0V151.77q0-6.36-3.42-9.62a12.59,12.59,0,0,0-9.07-3.26,13.43,13.43,0,0,0-6,1.34,10.67,10.67,0,0,0-4.24,3.61A9,9,0,0,0,596.3,149v22.14a4,4,0,0,1-1.1,2.87,3.84,3.84,0,0,1-2.9,1.14,3.9,3.9,0,0,1-4-4v-53.4a3.88,3.88,0,0,1,1.14-2.91,4,4,0,0,1,2.87-1.1,3.78,3.78,0,0,1,4,4v19.24a17.68,17.68,0,0,1,6-3.89,21,21,0,0,1,17.12,1Z"/><path class="cls-1" d="M679.2,134.53a20.07,20.07,0,0,1,7.69,7.74,24.31,24.31,0,0,1,0,22.54,19.79,19.79,0,0,1-7.66,7.74,22.33,22.33,0,0,1-11.19,2.78,22.56,22.56,0,0,1-11.23-2.78,19.76,19.76,0,0,1-7.7-7.74,24.55,24.55,0,0,1,0-22.54,19.76,19.76,0,0,1,7.7-7.74,22.56,22.56,0,0,1,11.23-2.78A22.22,22.22,0,0,1,679.2,134.53Zm-18.31,6.17a13.29,13.29,0,0,0-5,5.26,15.83,15.83,0,0,0-1.81,7.62,15.61,15.61,0,0,0,1.81,7.58,13.38,13.38,0,0,0,5,5.22,14.62,14.62,0,0,0,14.38,0,13,13,0,0,0,4.94-5.22,15.94,15.94,0,0,0,1.77-7.58,16.16,16.16,0,0,0-1.77-7.62,12.92,12.92,0,0,0-4.94-5.26,14.69,14.69,0,0,0-14.38,0Z"/><path class="cls-1" d="M740.92,134.61a20.71,20.71,0,0,1,7.82,7.86,22.17,22.17,0,0,1,2.82,11.11,23.36,23.36,0,0,1-2.63,11.11,19.83,19.83,0,0,1-7.22,7.82,19.61,19.61,0,0,1-25.41-4.32v21.2a4.08,4.08,0,0,1-6.87,2.91,3.88,3.88,0,0,1-1.14-2.91V153.58a21.9,21.9,0,0,1,2.87-11.11,21.13,21.13,0,0,1,18.73-10.72A21.73,21.73,0,0,1,740.92,134.61ZM737,166.34a13.82,13.82,0,0,0,5-5.26,15.24,15.24,0,0,0,1.85-7.5A15.48,15.48,0,0,0,742,146a13.72,13.72,0,0,0-5-5.3,13.68,13.68,0,0,0-19.2,5.3,15.79,15.79,0,0,0-1.8,7.54,15.54,15.54,0,0,0,1.8,7.5,13.65,13.65,0,0,0,5,5.26,14,14,0,0,0,14.21,0Z"/><path class="cls-1" d="M802.81,134.61a20.68,20.68,0,0,1,7.81,7.86,22.07,22.07,0,0,1,2.83,11.11,23.48,23.48,0,0,1-2.63,11.11,19.93,19.93,0,0,1-7.23,7.82,19.58,19.58,0,0,1-25.4-4.32v21.2a4.09,4.09,0,0,1-6.88,2.91,3.88,3.88,0,0,1-1.14-2.91V153.58A21.9,21.9,0,0,1,773,142.47a21.16,21.16,0,0,1,18.73-10.72A21.79,21.79,0,0,1,802.81,134.61Zm-3.93,31.73a14,14,0,0,0,5-5.26,15.34,15.34,0,0,0,1.84-7.5,15.58,15.58,0,0,0-1.84-7.54,13.87,13.87,0,0,0-5-5.3,13.67,13.67,0,0,0-19.2,5.3,15.68,15.68,0,0,0-1.81,7.54,15.44,15.44,0,0,0,1.81,7.5,13.85,13.85,0,0,0,19.2,5.26Z"/><path class="cls-1" d="M869.6,155.35a3.64,3.64,0,0,1-2.6,1H837.16a13.85,13.85,0,0,0,5,8.87,16,16,0,0,0,15,2.52,14.72,14.72,0,0,0,4.2-2.13,4.12,4.12,0,0,1,2.59-.86,3.35,3.35,0,0,1,2.36.79,3.42,3.42,0,0,1,1.41,2.67,2.85,2.85,0,0,1-1.25,2.35,21.76,21.76,0,0,1-6.64,3.46,24,24,0,0,1-19.12-1.45,20.19,20.19,0,0,1-8-7.74,21.9,21.9,0,0,1-2.87-11.23,23.19,23.19,0,0,1,2.71-11.27,19.6,19.6,0,0,1,7.54-7.78,21.58,21.58,0,0,1,10.95-2.78,19.73,19.73,0,0,1,10.45,2.67,17.57,17.57,0,0,1,6.75,7.46,24.6,24.6,0,0,1,2.36,11A3.3,3.3,0,0,1,869.6,155.35Zm-27.84-13.71a14.16,14.16,0,0,0-4.52,8.41h26.15a14,14,0,0,0-3.92-8.41,11.55,11.55,0,0,0-8.41-3.14A13.58,13.58,0,0,0,841.76,141.64Z"/><path class="cls-1" d="M491.33,139.09a15.45,15.45,0,0,0-19,10.7c-16.91,60.46-73,64.33-75.6,64.47a15.43,15.43,0,0,0,.29,30.83c.38,0,.76,0,1.14,0,27.86-1.23,85.42-21,103.88-87A15.44,15.44,0,0,0,491.33,139.09Z"/><path class="cls-2" d="M430.45,171.56c17.32-17.15,26.09-38.43,26.13-63.24A90.61,90.61,0,0,0,450.06,74a88,88,0,0,0-19.52-28.91C413,27.72,391.89,18.9,367.65,18.9h0a85.88,85.88,0,0,0-62.93,26.18c-17.27,17.36-26,38.6-26.08,63.19l0,127.32A26.95,26.95,0,0,0,305.82,263a27.21,27.21,0,0,0,19.3-7.76,26.78,26.78,0,0,0,8.16-19.61V195.22a2.84,2.84,0,0,1,3.86-2.64,89.36,89.36,0,0,0,30.42,5.11,88.23,88.23,0,0,0,33.93-6.48A89.87,89.87,0,0,0,430.45,171.56ZM367.6,184.47h0q-24.27,0-43-13.31a2.83,2.83,0,0,0-4.48,2.29l0,62.18a13.7,13.7,0,0,1-4.14,10.14,14,14,0,0,1-10.09,4,13.79,13.79,0,0,1-14.06-14.19l.05-127.32q.06-31.59,22.21-53.89T367.6,32.12q31.14,0,53.59,22.3A74.12,74.12,0,0,1,437.81,79a76.52,76.52,0,0,1,5.55,29.31q0,31.86-22.21,53.89A77.29,77.29,0,0,1,396.43,179,74.76,74.76,0,0,1,367.6,184.47Z"/><path class="cls-1" d="M401.63,74.31a50.08,50.08,0,0,0-15.3-10.45A46.31,46.31,0,0,0,367.61,60a45.83,45.83,0,0,0-18.9,3.84,47.9,47.9,0,0,0-15.17,10.39,48.92,48.92,0,0,0-10.22,15.3,48.24,48.24,0,0,0,0,37.44,49.8,49.8,0,0,0,10.16,15.35,49,49,0,0,0,15.23,10.39,45.55,45.55,0,0,0,18.84,3.84h.06a45.53,45.53,0,0,0,18.72-3.84,47.14,47.14,0,0,0,15.24-10.45A49.31,49.31,0,0,0,411.84,127a48,48,0,0,0,0-37.33A49.59,49.59,0,0,0,401.63,74.31Z"/></svg>