<svg id="Layer_1" data-name="Layer 1" xmlns="http://www.w3.org/2000/svg" viewBox="0 0 547.92 547.92"><defs><style>.cls-1{fill:#fff;}</style></defs><title>Artboard 1</title><path class="cls-1" d="M499.59,269.92a34.63,34.63,0,0,0-42.57,24C419.16,429.27,293.54,437.94,287.73,438.27a34.54,34.54,0,0,0,.65,69c.85,0,1.69,0,2.54,0,62.39-2.76,191.3-47,232.63-194.77A34.55,34.55,0,0,0,499.59,269.92Z"/><path class="cls-1" d="M363.25,342.63C402,304.24,421.68,256.57,421.78,201a203,203,0,0,0-14.61-76.87A196.58,196.58,0,0,0,363.45,59.4C324.27,20.52,276.9.78,222.63.78h-.1c-27.34,0-53,4.93-76.48,14.7S101,40,81.6,59.4C42.92,98.28,23.28,145.85,23.18,200.91L23.08,486c0,17,6,32.07,17.57,43.62A60.22,60.22,0,0,0,84.17,547.4,61,61,0,0,0,127.4,530c11.94-11.64,18.25-26.84,18.25-43.91v-90.5a6.38,6.38,0,0,1,8.65-5.92,200.26,200.26,0,0,0,68.13,11.45c27,0,52.6-4.84,76-14.51S343.62,362.17,363.25,342.63ZM222.53,371.54h-.1q-54.36,0-96.27-29.81a6.32,6.32,0,0,0-10,5.13l-.09,139.26a30.63,30.63,0,0,1-9.28,22.69,31.41,31.41,0,0,1-22.6,9c-9.08,0-16.58-3-22.5-9.07s-9-13.52-9-22.7l.1-285.11q.15-70.75,49.74-120.69t120-49.84q69.72,0,120,49.94a165.63,165.63,0,0,1,37.2,55.07c8.29,20.23,12.44,42,12.44,65.62q0,71.36-49.74,120.69Q317,346.87,287.07,359.3T222.53,371.54Z"/><path class="cls-1" d="M298.72,124.85a112.73,112.73,0,0,0-34.25-23.4,103.81,103.81,0,0,0-41.93-8.6,102.59,102.59,0,0,0-42.31,8.6,107.07,107.07,0,0,0-34,23.27A109.51,109.51,0,0,0,123.36,159a108.09,108.09,0,0,0,0,83.84,111.23,111.23,0,0,0,22.75,34.38,109.83,109.83,0,0,0,34.12,23.28,102,102,0,0,0,42.18,8.59h.13a102.11,102.11,0,0,0,41.93-8.59,106.15,106.15,0,0,0,34.12-23.41,110.89,110.89,0,0,0,23-34.25,107.45,107.45,0,0,0,0-83.58A111.16,111.16,0,0,0,298.72,124.85Z"/></svg>