<?xml version="1.0" encoding="utf-8"?>
<!-- Generator: Adobe Illustrator 22.1.0, SVG Export Plug-In . SVG Version: 6.00 Build 0)  -->
<svg version="1.1" id="_x34_687a0c2-bd42-4093-8bbc-92d10a889ded"
	 xmlns="http://www.w3.org/2000/svg" xmlns:xlink="http://www.w3.org/1999/xlink" x="0px" y="0px" viewBox="0 0 956.9 796"
	 style="enable-background:new 0 0 956.9 796;" xml:space="preserve">
<style type="text/css">
	.st0{display:none;fill:#484A97;}
	.st1{opacity:0.9;}
	.st2{opacity:0.8;}
	.st3{fill:url(#SVGID_1_);}
	.st4{fill:#FFFFFF;}
	.st5{fill:#A5D7D4;}
	.st6{opacity:0.7;}
	.st7{opacity:0.6;}
	.st8{opacity:0.5;}
	.st9{opacity:0.4;}
	.st10{opacity:0.3;}
	.st11{fill:#6C63FF;}
	.st12{fill:url(#SVGID_2_);}
	.st13{fill:#F28222;}
	.st14{fill:url(#SVGID_3_);}
	.st15{fill:#F5F5F5;}
	.st16{opacity:0.8;fill:#E0E0E0;enable-background:new    ;}
	.st17{fill:#FF5252;}
	.st18{fill:#FFFF00;}
	.st19{fill:#69F0AE;}
	.st20{fill:url(#SVGID_4_);}
	.st21{fill:#E0E0E0;}
	.st22{fill:url(#SVGID_5_);}
	.st23{opacity:5.000000e-02;fill:#6C80AA;enable-background:new    ;}
	.st24{fill:#AFDBD8;}
	.st25{opacity:8.000000e-02;enable-background:new    ;}
	.st26{fill:none;stroke:#A5D7D4;stroke-width:2;stroke-miterlimit:10;stroke-dasharray:12;}
	.st27{display:none;opacity:0.8;fill:#484A97;}
	.st28{fill:#484A97;}
</style>
<rect x="-20.4" y="-18.1" class="st0" width="990" height="832"/>
<g class="st1">
	<g class="st2">
		
			<linearGradient id="SVGID_1_" gradientUnits="userSpaceOnUse" x1="705.9597" y1="301.095" x2="705.9597" y2="759.815" gradientTransform="matrix(1 0 0 -1 0 797.63)">
			<stop  offset="0" style="stop-color:#808080;stop-opacity:0.25"/>
			<stop  offset="0.54" style="stop-color:#808080;stop-opacity:0.12"/>
			<stop  offset="1" style="stop-color:#808080;stop-opacity:0.1"/>
		</linearGradient>
		<rect x="500.5" y="37.8" class="st3" width="411" height="458.7"/>
	</g>
	<rect x="507.2" y="344.1" class="st4" width="397.4" height="142.5"/>
	<rect x="539.9" y="377.9" class="st5" width="15.4" height="73"/>
	<g class="st6">
		<rect x="570.3" y="377.9" class="st5" width="15.4" height="73"/>
	</g>
	<g class="st7">
		<rect x="600.7" y="377.9" class="st5" width="15.4" height="73"/>
	</g>
	<g class="st8">
		<rect x="631.1" y="377.9" class="st5" width="15.4" height="73"/>
	</g>
	<g class="st8">
		<rect x="661.5" y="377.9" class="st5" width="15.4" height="73"/>
	</g>
	<g class="st9">
		<rect x="691.9" y="377.9" class="st5" width="15.4" height="73"/>
	</g>
	<g class="st10">
		<rect x="722.3" y="377.9" class="st5" width="15.4" height="73"/>
	</g>
	<circle class="st11" cx="848.4" cy="413.9" r="37.2"/>
	<rect x="507.2" y="196.1" class="st4" width="397.4" height="142.5"/>
	<rect x="539.9" y="229.9" class="st5" width="15.4" height="73"/>
	<g class="st6">
		<rect x="570.3" y="229.9" class="st5" width="15.4" height="73"/>
	</g>
	<g class="st7">
		<rect x="600.7" y="229.9" class="st5" width="15.4" height="73"/>
	</g>
	<g class="st8">
		<rect x="631.1" y="229.9" class="st5" width="15.4" height="73"/>
	</g>
	<g class="st8">
		<rect x="661.5" y="229.9" class="st5" width="15.4" height="73"/>
	</g>
	<g class="st9">
		<rect x="691.9" y="229.9" class="st5" width="15.4" height="73"/>
	</g>
	<g class="st10">
		<rect x="722.3" y="229.9" class="st5" width="15.4" height="73"/>
	</g>
	<circle class="st11" cx="848.4" cy="265.9" r="37.2"/>
	<rect x="507.2" y="48.1" class="st4" width="397.4" height="142.5"/>
	<rect x="539.9" y="81.9" class="st5" width="15.4" height="73"/>
	<g class="st6">
		<rect x="570.3" y="81.9" class="st5" width="15.4" height="73"/>
	</g>
	<g class="st7">
		<rect x="600.7" y="81.9" class="st5" width="15.4" height="73"/>
	</g>
	<g class="st8">
		<rect x="631.1" y="81.9" class="st5" width="15.4" height="73"/>
	</g>
	<g class="st8">
		<rect x="661.5" y="81.9" class="st5" width="15.4" height="73"/>
	</g>
	<g class="st9">
		<rect x="691.9" y="81.9" class="st5" width="15.4" height="73"/>
	</g>
	<g class="st10">
		<rect x="722.3" y="81.9" class="st5" width="15.4" height="73"/>
	</g>
	
		<linearGradient id="SVGID_2_" gradientUnits="userSpaceOnUse" x1="848.3997" y1="639.675" x2="848.3997" y2="719.795" gradientTransform="matrix(1 0 0 -1 0 797.63)">
		<stop  offset="0" style="stop-color:#808080;stop-opacity:0.25"/>
		<stop  offset="0.54" style="stop-color:#808080;stop-opacity:0.12"/>
		<stop  offset="1" style="stop-color:#808080;stop-opacity:0.1"/>
	</linearGradient>
	<circle class="st12" cx="848.4" cy="117.9" r="40.1"/>
	<circle class="st13" cx="848.4" cy="266.9" r="40.1"/>
	<circle class="st13" cx="848.4" cy="414.9" r="40.1"/>
	<circle class="st13" cx="848.4" cy="117.9" r="37.2"/>
	<g class="st2">
		
			<linearGradient id="SVGID_3_" gradientUnits="userSpaceOnUse" x1="520.5597" y1="-25.365" x2="520.5597" y2="341.615" gradientTransform="matrix(1 0 0 -1 -167 707.82)">
			<stop  offset="0" style="stop-color:#808080;stop-opacity:0.25"/>
			<stop  offset="0.54" style="stop-color:#808080;stop-opacity:0.12"/>
			<stop  offset="1" style="stop-color:#808080;stop-opacity:0.1"/>
		</linearGradient>
		<path class="st14" d="M628.6,733.2H78.5V382c0-8.7,7.1-15.8,15.8-15.8h518.4c8.7,0,15.8,7.1,15.8,15.8L628.6,733.2z"/>
	</g>
	<path class="st4" d="M101.9,372.7h503.3c8.7,0,15.8,7.1,15.8,15.8v344.7l0,0H86.1l0,0V388.5C86.1,379.7,93.2,372.7,101.9,372.7z"/>
	<rect x="103.3" y="393.6" class="st15" width="500.5" height="328.3"/>
	<rect x="105.2" y="409.6" class="st16" width="498.3" height="295.3"/>
	<rect x="105.2" y="393.9" class="st15" width="498.3" height="15.7"/>
	<circle class="st17" cx="115.9" cy="401.5" r="3.8"/>
	<circle class="st18" cx="126.4" cy="401.5" r="3.8"/>
	<circle class="st19" cx="136.9" cy="401.5" r="3.8"/>
	<g class="st2">
		
			<linearGradient id="SVGID_4_" gradientUnits="userSpaceOnUse" x1="520.9601" y1="-50.3675" x2="520.9601" y2="9.305" gradientTransform="matrix(1 0 0 -1 -167 707.82)">
			<stop  offset="0" style="stop-color:#808080;stop-opacity:0.25"/>
			<stop  offset="0.54" style="stop-color:#808080;stop-opacity:0.12"/>
			<stop  offset="1" style="stop-color:#808080;stop-opacity:0.1"/>
		</linearGradient>
		<path class="st20" d="M644,756.8c-30.6,2.3-556.5,1.4-574.8,0c-24.1-11.6-23.7-56.7-23.7-56.7l241.1-1.6l0.8,13.7h103.2l4-12.1
			h267.3C661.9,700.1,667.2,741.5,644,756.8z"/>
	</g>
	<path class="st15" d="M658,703.8H396c2.9,3.3,2.6,8.4-0.7,11.3c-1.5,1.3-3.4,2-5.4,2h-100c-4.4,0.1-8.1-3.5-8.1-7.9
		c0-2,0.7-3.9,2-5.4H49.1c0,0-0.4,39.1,23.4,49.2c18.1,1.2,537.6,2,567.8,0C663.3,739.6,658,703.8,658,703.8z"/>
	<circle class="st21" cx="103.5" cy="712.2" r="3.2"/>
	<circle class="st21" cx="113.2" cy="712.2" r="3.2"/>
	<circle class="st21" cx="122.9" cy="712.2" r="3.2"/>
	<g class="st6">
		
			<linearGradient id="SVGID_5_" gradientUnits="userSpaceOnUse" x1="505.0097" y1="36.515" x2="505.0097" y2="286.635" gradientTransform="matrix(1 0 0 -1 -167 707.82)">
			<stop  offset="0" style="stop-color:#808080;stop-opacity:0.25"/>
			<stop  offset="0.54" style="stop-color:#808080;stop-opacity:0.12"/>
			<stop  offset="1" style="stop-color:#808080;stop-opacity:0.1"/>
		</linearGradient>
		<path class="st22" d="M338,421.2l-97.1,59.7c0,0,0,123.2,97.1,190.4c97.1-67.2,97.1-190.4,97.1-190.4L338,421.2z"/>
	</g>
	<path class="st5" d="M338,428.2l-91.5,56.4c0,0,0,116.3,91.6,179.7c91.6-63.4,91.6-179.7,91.6-179.7L338,428.2z"/>
	<path class="st23" d="M339.6,428.2l-1.6,1v234l1.6,1.1c91.6-63.4,91.6-179.7,91.6-179.7L339.6,428.2z"/>
	<path class="st24" d="M338,441.9l-81,49.9c0,0,0,102.8,81,158.9c81-56.1,81-158.9,81-158.9L338,441.9z"/>
	<path class="st25" d="M338,442.2V651c81-56.1,81-158.9,81-158.9L338,442.2z"/>
	<polyline class="st26" points="284.5,344.2 284.5,137.2 455.5,137.2 	"/>
	<polyline class="st26" points="231.5,281.2 231.5,74.2 402.5,74.2 	"/>
	<polyline class="st26" points="761.5,515.2 761.5,677.2 671.5,677.2 	"/>
	<polyline class="st26" points="815.5,551.2 815.5,713.2 725.5,713.2 	"/>
</g>
<rect x="-16.5" y="-18" class="st27" width="990" height="832"/>
<g>
	<g>
		<path class="st28" d="M133,344.4c0.5,0.6,0.8,1.2,0.8,2c0,0.7-0.2,1.3-0.6,2L117,373.3v14c0,0.9-0.3,1.6-0.9,2.2
			c-0.6,0.6-1.3,0.9-2.2,0.9c-0.8,0-1.6-0.3-2.2-0.9s-0.9-1.3-0.9-2.2v-14l-16-24.9c-0.4-0.7-0.7-1.3-0.7-1.9c0-0.8,0.3-1.5,0.9-2.1
			c0.6-0.6,1.4-0.8,2.2-0.8c0.6,0,1.2,0.1,1.6,0.4c0.4,0.3,0.8,0.7,1.2,1.3l14,22.3l14.3-22.5c0.6-1,1.6-1.5,2.8-1.5
			C131.9,343.5,132.5,343.8,133,344.4z"/>
	</g>
	<g>
		<path class="st28" d="M156.9,359.5c2.5,1.4,4.5,3.4,5.9,5.9c1.4,2.5,2.1,5.4,2.1,8.6c0,3.2-0.7,6.1-2.1,8.6
			c-1.4,2.5-3.4,4.5-5.9,5.9c-2.5,1.4-5.4,2.1-8.6,2.1c-3.2,0-6.1-0.7-8.6-2.1c-2.5-1.4-4.5-3.4-5.9-5.9c-1.4-2.5-2.1-5.4-2.1-8.6
			c0-3.2,0.7-6.1,2.1-8.6c1.4-2.5,3.4-4.5,5.9-5.9c2.5-1.4,5.4-2.1,8.6-2.1C151.5,357.3,154.4,358.1,156.9,359.5z M142.9,364.2
			c-1.6,1-2.9,2.3-3.8,4c-0.9,1.7-1.4,3.7-1.4,5.8c0,2.2,0.5,4.1,1.4,5.8c0.9,1.7,2.2,3,3.8,4s3.5,1.4,5.5,1.4c2,0,3.9-0.5,5.5-1.4
			s2.9-2.3,3.8-4c0.9-1.7,1.4-3.6,1.4-5.8c0-2.2-0.4-4.1-1.4-5.8c-0.9-1.7-2.2-3.1-3.8-4c-1.6-1-3.5-1.4-5.5-1.4
			C146.3,362.7,144.5,363.2,142.9,364.2z"/>
	</g>
	<g>
		<path class="st28" d="M203.3,358.4c0.6,0.6,0.8,1.3,0.8,2.2v26.8c0,0.9-0.3,1.6-0.8,2.2c-0.6,0.6-1.3,0.9-2.2,0.9
			c-0.9,0-1.6-0.3-2.2-0.9c-0.6-0.6-0.9-1.3-0.9-2.2v-0.7c-1.3,1.3-2.8,2.3-4.6,3c-1.8,0.7-3.6,1-5.6,1c-2.8,0-5.2-0.6-7.4-1.8
			c-2.2-1.2-3.9-2.9-5.2-5.3c-1.2-2.3-1.9-5.1-1.9-8.3v-14.8c0-0.9,0.3-1.6,0.9-2.2c0.6-0.6,1.3-0.9,2.2-0.9c0.9,0,1.6,0.3,2.2,0.9
			c0.6,0.6,0.9,1.3,0.9,2.2v14.8c0,3.2,0.9,5.7,2.6,7.4c1.7,1.7,4,2.5,6.9,2.5c1.7,0,3.2-0.3,4.6-1c1.4-0.7,2.5-1.6,3.2-2.8
			c0.8-1.2,1.2-2.5,1.2-3.9v-16.9c0-0.9,0.3-1.7,0.9-2.2c0.6-0.6,1.3-0.8,2.2-0.8C202,357.5,202.7,357.8,203.3,358.4z"/>
	</g>
	<g>
		<path class="st28" d="M236,358.2c1.2,0.6,1.8,1.4,1.8,2.4c0,0.3,0,0.5-0.1,0.6c-0.4,1.3-1.2,1.9-2.4,1.9c-0.2,0-0.5,0-0.9-0.1
			c-1.6-0.3-2.9-0.4-3.9-0.4c-2.9,0-5.2,0.7-7,2c-1.8,1.3-2.6,3.1-2.6,5.3v17.5c0,1-0.3,1.7-0.8,2.2c-0.5,0.5-1.3,0.8-2.3,0.8
			c-1,0-1.7-0.2-2.2-0.8c-0.5-0.5-0.8-1.2-0.8-2.3v-26.8c0-1,0.3-1.7,0.8-2.2c0.5-0.5,1.3-0.8,2.2-0.8c2,0,3,1,3,3v1.1
			c1.2-1.4,2.7-2.5,4.4-3.3c1.8-0.8,3.6-1.2,5.6-1.2C233.1,357.2,234.8,357.5,236,358.2z"/>
	</g>
	<g>
		<path class="st28" d="M268.1,345.5c0.8,0.8,1.2,1.7,1.2,2.8s-0.4,2-1.2,2.8c-0.8,0.8-1.7,1.2-2.8,1.2s-2-0.4-2.8-1.2
			c-0.8-0.8-1.2-1.7-1.2-2.8s0.4-2,1.2-2.8c0.8-0.8,1.7-1.2,2.8-1.2S267.3,344.7,268.1,345.5z M263.1,358.4c0.6-0.6,1.3-0.8,2.2-0.8
			c0.9,0,1.7,0.3,2.2,0.8c0.6,0.6,0.8,1.3,0.8,2.2v26.7c0,0.9-0.3,1.6-0.8,2.2c-0.6,0.6-1.3,0.9-2.2,0.9c-0.9,0-1.6-0.3-2.2-0.9
			c-0.6-0.6-0.9-1.3-0.9-2.2v-26.7C262.2,359.7,262.5,359,263.1,358.4z"/>
	</g>
	<g>
		<path class="st28" d="M303.5,359.1c2.2,1.2,3.9,3,5.2,5.3c1.2,2.3,1.9,5.1,1.9,8.3v14.8c0,0.9-0.3,1.6-0.9,2.2
			c-0.6,0.6-1.3,0.9-2.2,0.9c-0.9,0-1.6-0.3-2.2-0.9c-0.6-0.6-0.9-1.3-0.9-2.2v-14.8c0-3.2-0.9-5.7-2.6-7.4
			c-1.7-1.7-4.1-2.5-6.9-2.5c-1.7,0-3.2,0.3-4.6,1c-1.4,0.7-2.5,1.6-3.2,2.8c-0.8,1.2-1.2,2.5-1.2,3.9v16.9c0,0.9-0.3,1.6-0.8,2.2
			c-0.6,0.6-1.3,0.9-2.2,0.9c-0.9,0-1.6-0.3-2.2-0.9c-0.6-0.6-0.9-1.3-0.9-2.2v-26.8c0-0.9,0.3-1.7,0.9-2.2c0.6-0.6,1.3-0.8,2.2-0.8
			c0.9,0,1.7,0.3,2.2,0.8c0.6,0.6,0.8,1.3,0.8,2.2v0.7c1.3-1.3,2.8-2.3,4.6-3c1.8-0.7,3.6-1.1,5.6-1.1
			C298.8,357.3,301.3,357.9,303.5,359.1z"/>
	</g>
	<g>
		<path class="st28" d="M329.4,351.3c-1.4,1.5-2,3.4-2,5.9v1.6h6.1c0.8,0,1.5,0.2,2,0.7c0.5,0.5,0.8,1.1,0.8,1.9
			c0,0.7-0.3,1.3-0.8,1.8c-0.5,0.5-1.2,0.7-2,0.7h-6.1v23.4c0,0.9-0.3,1.7-0.8,2.2c-0.6,0.6-1.3,0.8-2.3,0.8c-0.8,0-1.5-0.3-2.1-0.8
			c-0.6-0.6-0.9-1.3-0.9-2.2v-23.4h-2.6c-0.8,0-1.5-0.2-2-0.7c-0.5-0.5-0.8-1.1-0.8-1.8c0-0.8,0.3-1.4,0.8-1.9
			c0.5-0.5,1.2-0.7,2-0.7h2.6v-1c0-2.8,0.6-5.3,1.7-7.5c1.1-2.1,2.7-3.8,4.8-5c2.1-1.2,4.4-1.8,7.1-1.8c0.9,0,1.6,0.3,2.2,0.8
			c0.6,0.5,0.9,1.2,0.9,2c0,0.8-0.3,1.5-0.9,2c-0.6,0.5-1.3,0.8-2.2,0.8C332.6,349.1,330.8,349.8,329.4,351.3z"/>
	</g>
	<g>
		<path class="st28" d="M364.9,359.5c2.5,1.4,4.5,3.4,5.9,5.9c1.4,2.5,2.1,5.4,2.1,8.6c0,3.2-0.7,6.1-2.1,8.6
			c-1.4,2.5-3.4,4.5-5.9,5.9c-2.5,1.4-5.4,2.1-8.6,2.1c-3.2,0-6.1-0.7-8.6-2.1c-2.5-1.4-4.5-3.4-5.9-5.9c-1.4-2.5-2.1-5.4-2.1-8.6
			c0-3.2,0.7-6.1,2.1-8.6c1.4-2.5,3.4-4.5,5.9-5.9c2.5-1.4,5.4-2.1,8.6-2.1C359.5,357.3,362.4,358.1,364.9,359.5z M350.9,364.2
			c-1.6,1-2.9,2.3-3.8,4c-0.9,1.7-1.4,3.7-1.4,5.8c0,2.2,0.5,4.1,1.4,5.8c0.9,1.7,2.2,3,3.8,4s3.5,1.4,5.5,1.4c2,0,3.9-0.5,5.5-1.4
			s2.9-2.3,3.8-4c0.9-1.7,1.4-3.6,1.4-5.8c0-2.2-0.4-4.1-1.4-5.8c-0.9-1.7-2.2-3.1-3.8-4c-1.6-1-3.5-1.4-5.5-1.4
			C354.3,362.7,352.5,363.2,350.9,364.2z"/>
	</g>
	<g>
		<path class="st28" d="M403.1,358.2c1.2,0.6,1.8,1.4,1.8,2.4c0,0.3,0,0.5-0.1,0.6c-0.4,1.3-1.2,1.9-2.4,1.9c-0.2,0-0.5,0-0.9-0.1
			c-1.6-0.3-2.9-0.4-3.9-0.4c-2.9,0-5.2,0.7-7,2c-1.8,1.3-2.6,3.1-2.6,5.3v17.5c0,1-0.3,1.7-0.8,2.2c-0.5,0.5-1.3,0.8-2.3,0.8
			c-1,0-1.7-0.2-2.2-0.8c-0.5-0.5-0.8-1.2-0.8-2.3v-26.8c0-1,0.3-1.7,0.8-2.2c0.5-0.5,1.3-0.8,2.2-0.8c2,0,3,1,3,3v1.1
			c1.2-1.4,2.7-2.5,4.4-3.3c1.8-0.8,3.6-1.2,5.6-1.2C400.2,357.2,401.9,357.5,403.1,358.2z"/>
	</g>
	<g>
		<path class="st28" d="M454.1,360.7c2.1,2.3,3.2,5.5,3.2,9.5v17.2c0,0.9-0.3,1.6-0.8,2.2c-0.6,0.6-1.3,0.9-2.2,0.9
			c-0.9,0-1.6-0.3-2.2-0.9c-0.6-0.6-0.9-1.3-0.9-2.2v-17.2c0-2.4-0.6-4.3-1.8-5.5c-1.2-1.3-2.8-1.9-4.9-1.9c-2.1,0-3.8,0.7-5.1,2.2
			c-1.3,1.4-2,3.3-2,5.5v16.9c0,0.9-0.3,1.6-0.8,2.2c-0.6,0.6-1.3,0.9-2.2,0.9c-0.9,0-1.6-0.3-2.2-0.9c-0.6-0.6-0.9-1.3-0.9-2.2
			v-17.2c0-2.4-0.6-4.3-1.8-5.5c-1.2-1.3-2.9-1.9-4.9-1.9c-2.1,0-3.9,0.7-5.2,2.2c-1.3,1.4-2,3.3-2,5.5v16.9c0,0.9-0.3,1.6-0.8,2.2
			c-0.6,0.6-1.3,0.9-2.2,0.9c-0.9,0-1.6-0.3-2.2-0.9c-0.6-0.6-0.9-1.3-0.9-2.2v-26.7c0-0.9,0.3-1.7,0.9-2.2c0.6-0.6,1.3-0.8,2.2-0.8
			c0.9,0,1.6,0.3,2.2,0.8c0.6,0.5,0.9,1.3,0.9,2.1c1-1,2.3-1.9,3.7-2.4c1.4-0.6,3-0.9,4.7-0.9c2,0,3.9,0.4,5.5,1.2
			c1.6,0.8,2.9,2,4,3.5c1.2-1.5,2.7-2.6,4.5-3.5c1.8-0.8,3.8-1.3,6-1.3C449.1,357.3,452,358.4,454.1,360.7z"/>
	</g>
	<g>
		<path class="st28" d="M490.7,359.5c2.5,1.5,4.5,3.5,5.9,6c1.5,2.5,2.2,5.4,2.2,8.5v13.4c0,0.9-0.3,1.6-0.9,2.2
			c-0.6,0.6-1.3,0.9-2.2,0.9s-1.6-0.3-2.2-0.9c-0.6-0.6-0.9-1.3-0.9-2.2v-2.2c-1.4,1.7-3.1,3.1-5.1,4s-4.2,1.4-6.5,1.4
			c-2.9,0-5.5-0.7-7.8-2.2s-4.2-3.4-5.5-6c-1.3-2.5-2-5.4-2-8.5s0.7-5.9,2.2-8.5c1.4-2.5,3.4-4.5,6-6c2.5-1.5,5.3-2.2,8.4-2.2
			C485.4,357.3,488.2,358.1,490.7,359.5z M487.8,383.8c1.6-1,2.9-2.3,3.8-4c0.9-1.7,1.4-3.6,1.4-5.7c0-2.1-0.5-4-1.4-5.8
			c-0.9-1.7-2.2-3.1-3.8-4c-1.6-1-3.4-1.5-5.4-1.5c-2,0-3.8,0.5-5.4,1.5c-1.6,1-2.9,2.3-3.8,4c-0.9,1.7-1.4,3.6-1.4,5.8
			c0,2.1,0.5,4,1.4,5.7c0.9,1.7,2.2,3,3.8,4c1.6,1,3.4,1.5,5.4,1.5C484.3,385.2,486.1,384.8,487.8,383.8z"/>
	</g>
	<g>
		<path class="st28" d="M523.8,385.2c0.5,0.6,0.8,1.3,0.8,2.2c0,0.9-0.3,1.6-1,2.2c-0.7,0.6-1.5,0.8-2.5,0.8h-1.1
			c-2,0-3.8-0.5-5.4-1.5s-2.9-2.4-3.8-4.2c-0.9-1.8-1.4-3.7-1.4-5.9v-14.8h-2.8c-0.8,0-1.5-0.2-2-0.7c-0.5-0.5-0.8-1.1-0.8-1.8
			c0-0.8,0.3-1.4,0.8-1.9c0.5-0.5,1.2-0.7,2-0.7h2.8v-8.6c0-0.9,0.3-1.6,0.8-2.2c0.6-0.6,1.3-0.8,2.2-0.8c0.9,0,1.6,0.3,2.2,0.8
			c0.6,0.6,0.8,1.3,0.8,2.2v8.6h5.1c0.8,0,1.5,0.2,2,0.7c0.5,0.5,0.8,1.1,0.8,1.9c0,0.7-0.3,1.3-0.8,1.8c-0.5,0.5-1.2,0.7-2,0.7
			h-5.1v14.8c0,1.6,0.4,2.9,1.3,4s2,1.6,3.2,1.6h2C522.6,384.4,523.3,384.7,523.8,385.2z"/>
	</g>
	<g>
		<path class="st28" d="M538.4,345.5c0.8,0.8,1.2,1.7,1.2,2.8s-0.4,2-1.2,2.8c-0.8,0.8-1.7,1.2-2.8,1.2c-1.1,0-2-0.4-2.8-1.2
			c-0.8-0.8-1.2-1.7-1.2-2.8s0.4-2,1.2-2.8c0.8-0.8,1.7-1.2,2.8-1.2C536.7,344.3,537.7,344.7,538.4,345.5z M533.5,358.4
			c0.6-0.6,1.3-0.8,2.2-0.8c0.9,0,1.7,0.3,2.2,0.8c0.6,0.6,0.8,1.3,0.8,2.2v26.7c0,0.9-0.3,1.6-0.8,2.2c-0.6,0.6-1.3,0.9-2.2,0.9
			c-0.9,0-1.6-0.3-2.2-0.9c-0.6-0.6-0.9-1.3-0.9-2.2v-26.7C532.6,359.7,532.9,359,533.5,358.4z"/>
	</g>
	<g>
		<path class="st28" d="M573.5,359.5c2.5,1.4,4.5,3.4,5.9,5.9c1.4,2.5,2.1,5.4,2.1,8.6c0,3.2-0.7,6.1-2.1,8.6s-3.4,4.5-5.8,5.9
			c-2.5,1.4-5.4,2.1-8.5,2.1c-3.2,0-6.1-0.7-8.6-2.1c-2.5-1.4-4.5-3.4-5.9-5.9c-1.4-2.5-2.1-5.4-2.1-8.6c0-3.2,0.7-6.1,2.1-8.6
			c1.4-2.5,3.4-4.5,5.9-5.9c2.5-1.4,5.4-2.1,8.6-2.1C568.2,357.3,571,358.1,573.5,359.5z M559.5,364.2c-1.6,1-2.9,2.3-3.8,4
			c-0.9,1.7-1.4,3.7-1.4,5.8c0,2.2,0.5,4.1,1.4,5.8c0.9,1.7,2.2,3,3.8,4s3.5,1.4,5.5,1.4s3.9-0.5,5.5-1.4c1.6-1,2.9-2.3,3.8-4
			c0.9-1.7,1.4-3.6,1.4-5.8c0-2.2-0.5-4.1-1.4-5.8c-0.9-1.7-2.2-3.1-3.8-4c-1.6-1-3.4-1.4-5.5-1.4S561.1,363.2,559.5,364.2z"/>
	</g>
	<g>
		<path class="st28" d="M614.4,359.1c2.2,1.2,3.9,3,5.2,5.3c1.2,2.3,1.9,5.1,1.9,8.3v14.8c0,0.9-0.3,1.6-0.9,2.2
			c-0.6,0.6-1.3,0.9-2.2,0.9c-0.9,0-1.6-0.3-2.2-0.9c-0.6-0.6-0.9-1.3-0.9-2.2v-14.8c0-3.2-0.9-5.7-2.6-7.4c-1.7-1.7-4-2.5-6.9-2.5
			c-1.7,0-3.2,0.3-4.6,1c-1.4,0.7-2.5,1.6-3.2,2.8c-0.8,1.2-1.2,2.5-1.2,3.9v16.9c0,0.9-0.3,1.6-0.8,2.2c-0.6,0.6-1.3,0.9-2.2,0.9
			c-0.9,0-1.6-0.3-2.2-0.9c-0.6-0.6-0.9-1.3-0.9-2.2v-26.8c0-0.9,0.3-1.7,0.9-2.2c0.6-0.6,1.3-0.8,2.2-0.8c0.9,0,1.7,0.3,2.2,0.8
			c0.6,0.6,0.8,1.3,0.8,2.2v0.7c1.3-1.3,2.8-2.3,4.6-3c1.8-0.7,3.6-1.1,5.6-1.1C609.7,357.3,612.2,357.9,614.4,359.1z"/>
	</g>
	<g>
		<path class="st28" d="M655.6,345.5c0.8,0.8,1.2,1.7,1.2,2.8s-0.4,2-1.2,2.8c-0.8,0.8-1.7,1.2-2.8,1.2c-1.1,0-2-0.4-2.8-1.2
			c-0.8-0.8-1.2-1.7-1.2-2.8s0.4-2,1.2-2.8c0.8-0.8,1.7-1.2,2.8-1.2C653.9,344.3,654.8,344.7,655.6,345.5z M650.6,358.4
			c0.6-0.6,1.3-0.8,2.2-0.8c0.9,0,1.7,0.3,2.2,0.8c0.6,0.6,0.8,1.3,0.8,2.2v26.7c0,0.9-0.3,1.6-0.8,2.2c-0.6,0.6-1.3,0.9-2.2,0.9
			c-0.9,0-1.6-0.3-2.2-0.9c-0.6-0.6-0.9-1.3-0.9-2.2v-26.7C649.7,359.7,650,359,650.6,358.4z"/>
	</g>
	<g>
		<path class="st28" d="M685.7,358.6c2.1,0.8,3.7,2,4.9,3.5c0.5,0.6,0.8,1.3,0.8,1.9c0,0.7-0.3,1.3-1,1.9c-0.4,0.3-1,0.5-1.7,0.5
			c-1,0-2-0.4-2.8-1.1c-1-0.9-2.1-1.6-3.2-1.9c-1.1-0.4-2.5-0.6-4.1-0.6c-1.8,0-3.4,0.3-4.5,0.9c-1.2,0.6-1.8,1.5-1.8,2.6
			c0,0.8,0.2,1.5,0.6,2c0.4,0.5,1.2,1,2.3,1.5c1.1,0.5,2.7,0.9,4.9,1.4c4.4,0.9,7.4,2.1,9.3,3.7s2.7,3.6,2.7,6.1
			c0,1.8-0.5,3.5-1.5,5c-1,1.5-2.5,2.7-4.4,3.5c-1.9,0.9-4.3,1.3-7,1.3c-2.7,0-5.3-0.4-7.7-1.3c-2.4-0.8-4.3-1.9-5.6-3.3
			c-0.5-0.5-0.8-1.1-0.8-1.9c0-1,0.4-1.7,1.2-2.3c0.8-0.6,1.5-0.8,2.1-0.8c0.8,0,1.6,0.4,2.3,1.1c0.8,0.8,1.9,1.6,3.4,2.2
			c1.5,0.6,3.1,0.9,4.9,0.9c2.3,0,4.1-0.4,5.3-1.1c1.3-0.8,1.9-1.8,1.9-3.1c0-1.2-0.6-2.3-1.9-3.1c-1.2-0.8-3.3-1.5-6.3-2.1
			c-7.7-1.5-11.5-4.6-11.5-9.5c0-2,0.6-3.6,1.7-5c1.2-1.4,2.7-2.4,4.6-3.1c1.9-0.7,3.9-1,6-1C681.4,357.3,683.7,357.8,685.7,358.6z"
			/>
	</g>
	<g>
		<path class="st28" d="M742.8,387.9c0,0.9-0.4,1.6-1.1,2.2c-0.6,0.5-1.2,0.7-1.9,0.7c-0.9,0-1.6-0.4-2.2-1.1l-11.4-14.1l-3,2.6v9.2
			c0,0.9-0.3,1.6-0.8,2.1s-1.3,0.8-2.1,0.8s-1.6-0.3-2.1-0.8s-0.8-1.2-0.8-2.1v-41c0-0.9,0.3-1.6,0.8-2.1s1.3-0.8,2.1-0.8
			s1.6,0.3,2.1,0.8s0.8,1.3,0.8,2.1v24.4l14.6-13c0.5-0.5,1.1-0.8,1.9-0.8c0.8,0,1.5,0.3,2,1c0.5,0.5,0.8,1.1,0.8,1.9
			c0,0.8-0.3,1.5-1,2l-11,9.8l11.6,14.3C742.6,386.6,742.8,387.2,742.8,387.9z"/>
	</g>
	<g>
		<path class="st28" d="M777.2,375.4c-0.5,0.5-1.2,0.8-2,0.8h-22.8c0.4,2.8,1.7,5.1,3.8,6.8c2.1,1.7,4.7,2.6,7.7,2.6
			c1.2,0,2.4-0.2,3.8-0.7c1.3-0.4,2.4-1,3.2-1.6c0.6-0.4,1.2-0.7,2-0.7s1.4,0.2,1.8,0.6c0.7,0.6,1.1,1.3,1.1,2c0,0.7-0.3,1.3-1,1.8
			c-1.4,1.1-3.1,2-5.1,2.6c-2,0.7-4,1-5.8,1c-3.3,0-6.2-0.7-8.8-2.1c-2.6-1.4-4.6-3.4-6.1-5.9c-1.5-2.5-2.2-5.4-2.2-8.6
			c0-3.2,0.7-6.1,2.1-8.6c1.4-2.5,3.3-4.5,5.8-5.9c2.5-1.4,5.3-2.1,8.4-2.1c3.1,0,5.7,0.7,8,2c2.2,1.4,4,3.3,5.2,5.7
			c1.2,2.4,1.8,5.2,1.8,8.4C778,374.2,777.7,374.9,777.2,375.4z M755.9,364.9c-1.8,1.6-3,3.7-3.4,6.4h20c-0.4-2.7-1.4-4.8-3-6.4
			c-1.6-1.6-3.8-2.4-6.4-2.4C760.1,362.5,757.8,363.3,755.9,364.9z"/>
	</g>
	<g>
		<path class="st28" d="M810.7,359.5c2.5,1.5,4.5,3.5,6,6c1.4,2.5,2.2,5.4,2.2,8.5s-0.7,6-2,8.5c-1.3,2.5-3.2,4.5-5.5,6
			s-4.9,2.2-7.8,2.2c-2.3,0-4.5-0.5-6.5-1.4c-2-1-3.7-2.3-5.1-4v16.2c0,0.9-0.3,1.7-0.8,2.2c-0.6,0.6-1.3,0.8-2.2,0.8
			c-0.9,0-1.6-0.3-2.2-0.8c-0.6-0.6-0.9-1.3-0.9-2.2V374c0-3.1,0.7-5.9,2.2-8.5c1.5-2.5,3.4-4.5,5.9-6c2.5-1.5,5.3-2.2,8.4-2.2
			C805.4,357.3,808.2,358.1,810.7,359.5z M807.7,383.8c1.6-1,2.9-2.3,3.8-4c0.9-1.7,1.4-3.6,1.4-5.7c0-2.1-0.5-4-1.4-5.8
			c-0.9-1.7-2.2-3.1-3.8-4c-1.6-1-3.4-1.5-5.4-1.5c-2,0-3.8,0.5-5.4,1.5c-1.6,1-2.9,2.3-3.8,4c-0.9,1.7-1.4,3.6-1.4,5.8
			c0,2.1,0.5,4,1.4,5.7c0.9,1.7,2.2,3,3.8,4c1.6,1,3.4,1.5,5.4,1.5C804.3,385.2,806.1,384.8,807.7,383.8z"/>
	</g>
	<g>
		<path class="st28" d="M839.9,391.9c-2.2,0-4.3-0.6-6.2-1.8c-1.8-1.2-3.3-2.8-4.3-4.7c-1-2-1.6-4.2-1.6-6.6v-13.3h-1.3
			c-1.2,0-2.3-0.4-3.1-1.1c-0.8-0.8-1.3-1.8-1.3-2.9c0-1.2,0.4-2.3,1.3-3c0.8-0.7,1.8-1.1,3.1-1.1h1.3v-7.1c0-1.3,0.4-2.4,1.3-3.2
			s2-1.3,3.2-1.3c1.3,0,2.4,0.4,3.2,1.3c0.8,0.8,1.3,2,1.3,3.2v7.1h3.6c1.2,0,2.3,0.4,3.1,1.1c0.8,0.8,1.3,1.8,1.3,3
			c0,1.1-0.4,2.1-1.3,2.9c-0.8,0.7-1.8,1.1-3.1,1.1h-3.6v13.3c0,1.3,0.3,2.3,1,3.1c0.6,0.7,1.3,1.1,2.1,1.1h2c1.1,0,2.2,0.5,2.9,1.3
			c0.8,0.8,1.1,1.9,1.1,3.2c0,1.3-0.5,2.5-1.5,3.3c-0.9,0.8-2.1,1.2-3.5,1.2H839.9z"/>
		<path class="st4" d="M832.4,347.1c0.9,0,1.6,0.3,2.2,0.8c0.6,0.6,0.8,1.3,0.8,2.2v8.6h5.1c0.8,0,1.5,0.2,2,0.7
			c0.5,0.5,0.8,1.1,0.8,1.9c0,0.7-0.3,1.3-0.8,1.8c-0.5,0.5-1.2,0.7-2,0.7h-5.1v14.8c0,1.6,0.4,2.9,1.3,4s2,1.6,3.2,1.6h2
			c0.7,0,1.3,0.3,1.8,0.8c0.5,0.6,0.8,1.3,0.8,2.2c0,0.9-0.3,1.6-1,2.2c-0.7,0.6-1.5,0.8-2.5,0.8h-1.1c-2,0-3.8-0.5-5.4-1.5
			s-2.9-2.4-3.8-4.2c-0.9-1.8-1.4-3.7-1.4-5.9v-14.8h-2.8c-0.8,0-1.5-0.2-2-0.7c-0.5-0.5-0.8-1.1-0.8-1.8c0-0.8,0.3-1.4,0.8-1.9
			c0.5-0.5,1.2-0.7,2-0.7h2.8v-8.6c0-0.9,0.3-1.6,0.8-2.2C830.8,347.4,831.5,347.1,832.4,347.1 M832.4,344.1c-1.7,0-3.2,0.6-4.3,1.7
			c-1.1,1.1-1.7,2.6-1.7,4.3v5.6c-1.5,0.1-2.8,0.6-3.8,1.5c-1.1,1-1.7,2.5-1.7,4.1c0,1.6,0.6,3,1.7,4c1,0.9,2.3,1.5,3.8,1.5v11.8
			c0,2.7,0.6,5.1,1.7,7.3c1.2,2.2,2.8,4,4.9,5.3c2.1,1.3,4.4,2,7,2h1.1c1.8,0,3.3-0.5,4.5-1.6c1.3-1.1,2-2.7,2-4.4
			c0-1.6-0.5-3-1.5-4.2c-1.1-1.2-2.5-1.8-4.1-1.8h-2c-0.3,0-0.5,0-0.9-0.5c-0.3-0.3-0.6-0.9-0.6-2.1v-11.8h2.1c1.6,0,3-0.5,4.1-1.5
			c1.1-1.1,1.7-2.4,1.7-4c0-1.6-0.6-3.1-1.7-4.1c-1.1-1-2.5-1.5-4.1-1.5h-2.1v-5.6c0-1.7-0.6-3.2-1.7-4.3
			C835.5,344.7,834,344.1,832.4,344.1L832.4,344.1z"/>
	</g>
	<g>
		<path class="st28" d="M200.1,430.6c2.1,0.8,3.7,2,4.9,3.5c0.5,0.6,0.8,1.3,0.8,1.9c0,0.7-0.3,1.3-1,1.9c-0.4,0.3-1,0.5-1.7,0.5
			c-1,0-2-0.4-2.8-1.1c-1-0.9-2.1-1.6-3.2-2c-1.1-0.4-2.5-0.6-4.1-0.6c-1.8,0-3.4,0.3-4.5,0.9c-1.2,0.6-1.8,1.5-1.8,2.6
			c0,0.8,0.2,1.5,0.6,2c0.4,0.5,1.2,1,2.3,1.5c1.1,0.5,2.7,0.9,4.9,1.3c4.4,0.9,7.4,2.1,9.3,3.7c1.8,1.6,2.7,3.6,2.7,6.1
			c0,1.8-0.5,3.5-1.5,5c-1,1.5-2.5,2.7-4.4,3.5c-1.9,0.9-4.3,1.3-7,1.3c-2.7,0-5.3-0.4-7.7-1.3c-2.4-0.8-4.3-1.9-5.6-3.3
			c-0.5-0.5-0.8-1.1-0.8-1.9c0-1,0.4-1.7,1.2-2.3c0.8-0.6,1.5-0.8,2.1-0.8c0.8,0,1.6,0.4,2.3,1.1c0.8,0.8,1.9,1.6,3.4,2.2
			c1.5,0.6,3.1,0.9,4.9,0.9c2.3,0,4-0.4,5.3-1.1c1.3-0.8,1.9-1.8,1.9-3.1c0-1.2-0.6-2.3-1.9-3.1c-1.2-0.8-3.3-1.5-6.3-2.1
			c-7.7-1.5-11.5-4.6-11.5-9.5c0-2,0.6-3.6,1.7-5c1.2-1.4,2.7-2.4,4.6-3.1c1.9-0.7,3.9-1,6-1C195.8,429.3,198.1,429.8,200.1,430.6z"
			/>
	</g>
	<g>
		<path class="st28" d="M242.9,447.4c-0.5,0.5-1.2,0.8-2,0.8h-22.8c0.4,2.8,1.7,5.1,3.8,6.8c2.1,1.7,4.7,2.6,7.7,2.6
			c1.2,0,2.4-0.2,3.8-0.7c1.3-0.4,2.4-1,3.2-1.6c0.6-0.4,1.2-0.7,2-0.7c0.8,0,1.4,0.2,1.8,0.6c0.7,0.6,1.1,1.3,1.1,2
			c0,0.7-0.3,1.3-1,1.8c-1.4,1.1-3.1,2-5.1,2.6c-2,0.7-4,1-5.8,1c-3.3,0-6.2-0.7-8.8-2.1c-2.6-1.4-4.6-3.4-6.1-5.9
			c-1.5-2.5-2.2-5.4-2.2-8.6s0.7-6.1,2.1-8.6c1.4-2.5,3.3-4.5,5.8-5.9s5.3-2.1,8.4-2.1c3.1,0,5.7,0.7,8,2c2.2,1.4,4,3.3,5.2,5.7
			c1.2,2.4,1.8,5.2,1.8,8.4C243.7,446.2,243.4,446.9,242.9,447.4z M221.6,436.9c-1.8,1.6-3,3.7-3.5,6.4h20c-0.4-2.7-1.4-4.8-3-6.4
			c-1.6-1.6-3.8-2.4-6.4-2.4C225.8,434.5,223.4,435.3,221.6,436.9z"/>
	</g>
	<g>
		<path class="st28" d="M276.6,434.7c0.4,0.4,0.6,1,0.6,1.6c0,0.9-0.4,1.6-1.3,2.2c-0.4,0.3-0.9,0.4-1.4,0.4c-0.9,0-1.7-0.4-2.3-1.1
			c-1-1.1-2.1-1.9-3.3-2.4c-1.2-0.5-2.5-0.8-4-0.8c-3.1,0-5.6,1-7.5,3.1c-1.9,2.1-2.9,4.8-2.9,8.2c0,2.2,0.4,4.1,1.4,5.8
			c0.9,1.7,2.2,3,3.8,4s3.5,1.4,5.5,1.4c2.7,0,4.9-0.7,6.6-2.1c0.8-0.6,1.5-0.8,2.2-0.8c0.6,0,1.1,0.2,1.6,0.5
			c0.8,0.6,1.1,1.4,1.1,2.2c0,0.6-0.2,1.1-0.7,1.6c-2.9,2.7-6.5,4-10.8,4c-3.2,0-6-0.7-8.5-2.2c-2.5-1.4-4.5-3.4-5.9-6
			c-1.4-2.5-2.1-5.4-2.1-8.5c0-3.2,0.7-6.1,2.1-8.6c1.4-2.5,3.3-4.5,5.8-5.9c2.5-1.4,5.3-2.1,8.4-2.1
			C269.6,429.3,273.5,431.1,276.6,434.7z"/>
	</g>
	<g>
		<path class="st28" d="M315.6,430.4c0.6,0.6,0.8,1.3,0.8,2.2v26.8c0,0.9-0.3,1.6-0.8,2.2c-0.6,0.6-1.3,0.9-2.2,0.9
			c-0.9,0-1.6-0.3-2.2-0.9c-0.6-0.6-0.9-1.3-0.9-2.2v-0.7c-1.3,1.3-2.8,2.3-4.6,3c-1.8,0.7-3.6,1-5.6,1c-2.8,0-5.2-0.6-7.4-1.8
			c-2.2-1.2-3.9-2.9-5.2-5.3c-1.2-2.3-1.9-5.1-1.9-8.3v-14.8c0-0.9,0.3-1.6,0.9-2.2c0.6-0.6,1.3-0.9,2.2-0.9c0.9,0,1.6,0.3,2.2,0.9
			c0.6,0.6,0.9,1.3,0.9,2.2v14.8c0,3.2,0.9,5.7,2.6,7.3c1.7,1.7,4,2.5,6.9,2.5c1.7,0,3.2-0.3,4.6-1c1.4-0.7,2.5-1.6,3.2-2.8
			s1.2-2.5,1.2-3.9v-16.9c0-0.9,0.3-1.7,0.9-2.2c0.6-0.6,1.3-0.8,2.2-0.8C314.3,429.5,315.1,429.8,315.6,430.4z"/>
	</g>
	<g>
		<path class="st28" d="M348.3,430.2c1.2,0.6,1.8,1.4,1.8,2.4c0,0.3,0,0.5-0.1,0.6c-0.4,1.3-1.2,1.9-2.4,1.9c-0.2,0-0.5,0-0.9-0.1
			c-1.6-0.3-2.9-0.4-3.9-0.4c-2.9,0-5.2,0.7-7,2c-1.8,1.3-2.6,3.1-2.6,5.3v17.5c0,1-0.3,1.7-0.8,2.2c-0.5,0.5-1.3,0.8-2.3,0.8
			c-1,0-1.7-0.2-2.2-0.8c-0.5-0.5-0.8-1.3-0.8-2.3v-26.8c0-1,0.3-1.7,0.8-2.2c0.5-0.5,1.3-0.8,2.2-0.8c2,0,3,1,3,3v1.1
			c1.2-1.4,2.7-2.5,4.4-3.3c1.8-0.8,3.6-1.2,5.6-1.2C345.5,429.2,347.1,429.5,348.3,430.2z"/>
	</g>
	<g>
		<path class="st28" d="M382.7,447.4c-0.5,0.5-1.2,0.8-2,0.8h-22.8c0.4,2.8,1.7,5.1,3.8,6.8c2.1,1.7,4.7,2.6,7.7,2.6
			c1.2,0,2.4-0.2,3.8-0.7c1.3-0.4,2.4-1,3.2-1.6c0.6-0.4,1.2-0.7,2-0.7c0.8,0,1.4,0.2,1.8,0.6c0.7,0.6,1.1,1.3,1.1,2
			c0,0.7-0.3,1.3-1,1.8c-1.4,1.1-3.1,2-5.1,2.6c-2,0.7-4,1-5.8,1c-3.3,0-6.2-0.7-8.8-2.1c-2.6-1.4-4.6-3.4-6.1-5.9
			c-1.5-2.5-2.2-5.4-2.2-8.6s0.7-6.1,2.1-8.6c1.4-2.5,3.3-4.5,5.8-5.9s5.3-2.1,8.4-2.1c3.1,0,5.7,0.7,8,2c2.2,1.4,4,3.3,5.2,5.7
			c1.2,2.4,1.8,5.2,1.8,8.4C383.5,446.2,383.2,446.9,382.7,447.4z M361.4,436.9c-1.8,1.6-3,3.7-3.5,6.4h20c-0.4-2.7-1.4-4.8-3-6.4
			c-1.6-1.6-3.8-2.4-6.4-2.4C365.6,434.5,363.2,435.3,361.4,436.9z"/>
	</g>
	<g>
		<path class="st28" d="M432.1,431.5c2.5,1.5,4.5,3.5,5.9,6c1.5,2.5,2.2,5.4,2.2,8.5v13.4c0,0.9-0.3,1.6-0.9,2.2
			c-0.6,0.6-1.3,0.9-2.2,0.9c-0.9,0-1.6-0.3-2.2-0.9c-0.6-0.6-0.9-1.3-0.9-2.2v-2.2c-1.4,1.7-3.1,3.1-5.1,4c-2,1-4.2,1.4-6.5,1.4
			c-2.9,0-5.5-0.7-7.8-2.2c-2.3-1.4-4.2-3.4-5.5-6c-1.3-2.5-2-5.4-2-8.5s0.7-5.9,2.2-8.5c1.4-2.5,3.4-4.5,6-6
			c2.5-1.5,5.3-2.2,8.4-2.2C426.8,429.3,429.6,430.1,432.1,431.5z M429.2,455.8c1.6-1,2.9-2.3,3.8-4c0.9-1.7,1.4-3.6,1.4-5.7
			s-0.5-4-1.4-5.8c-0.9-1.7-2.2-3.1-3.8-4.1c-1.6-1-3.4-1.5-5.4-1.5c-2,0-3.8,0.5-5.4,1.5c-1.6,1-2.9,2.3-3.8,4.1
			c-0.9,1.7-1.4,3.6-1.4,5.8s0.5,4,1.4,5.7c0.9,1.7,2.2,3,3.8,4c1.6,1,3.4,1.5,5.4,1.5C425.7,457.2,427.5,456.8,429.2,455.8z"/>
	</g>
	<g>
		<path class="st28" d="M473.1,431.1c2.2,1.2,3.9,3,5.2,5.3c1.2,2.3,1.9,5.1,1.9,8.3v14.8c0,0.9-0.3,1.6-0.9,2.2s-1.3,0.9-2.2,0.9
			c-0.9,0-1.6-0.3-2.2-0.9c-0.6-0.6-0.9-1.3-0.9-2.2v-14.8c0-3.2-0.9-5.7-2.6-7.4c-1.7-1.7-4.1-2.5-6.9-2.5c-1.7,0-3.2,0.3-4.6,1
			c-1.4,0.7-2.5,1.6-3.2,2.8c-0.8,1.2-1.2,2.5-1.2,3.9v16.9c0,0.9-0.3,1.6-0.8,2.2c-0.6,0.6-1.3,0.9-2.2,0.9c-0.9,0-1.6-0.3-2.2-0.9
			c-0.6-0.6-0.9-1.3-0.9-2.2v-26.8c0-0.9,0.3-1.7,0.9-2.2c0.6-0.6,1.3-0.8,2.2-0.8c0.9,0,1.7,0.3,2.2,0.8c0.6,0.6,0.8,1.3,0.8,2.2
			v0.7c1.3-1.3,2.8-2.3,4.6-3c1.8-0.7,3.6-1,5.6-1C468.4,429.3,470.9,429.9,473.1,431.1z"/>
	</g>
	<g>
		<path class="st28" d="M520.8,416.4c0.6,0.6,0.8,1.3,0.8,2.2V446c0,3.1-0.7,6-2.2,8.5c-1.5,2.5-3.4,4.5-5.9,6
			c-2.5,1.5-5.3,2.2-8.4,2.2c-3.1,0-5.9-0.7-8.4-2.2c-2.5-1.5-4.5-3.5-6-6c-1.4-2.5-2.2-5.4-2.2-8.5c0-3.1,0.7-5.9,2-8.5
			c1.3-2.5,3.2-4.5,5.5-6c2.3-1.4,5-2.2,7.8-2.2c2.3,0,4.5,0.5,6.5,1.4c2,1,3.7,2.3,5.1,4v-16.2c0-0.9,0.3-1.7,0.9-2.2
			c0.6-0.6,1.3-0.8,2.2-0.8C519.5,415.5,520.3,415.8,520.8,416.4z M510.6,455.8c1.6-1,2.9-2.3,3.8-4s1.4-3.6,1.4-5.8
			c0-2.1-0.5-4-1.4-5.7s-2.2-3-3.8-4c-1.6-1-3.4-1.5-5.4-1.5c-2,0-3.8,0.5-5.4,1.5c-1.6,1-2.9,2.3-3.8,4c-0.9,1.7-1.4,3.6-1.4,5.7
			c0,2.1,0.5,4,1.4,5.8c0.9,1.7,2.2,3.1,3.8,4c1.6,1,3.4,1.5,5.4,1.5C507.2,457.2,509,456.8,510.6,455.8z"/>
	</g>
	<g>
		<path class="st28" d="M575,431.5c2.5,1.5,4.5,3.5,6,6c1.4,2.5,2.2,5.4,2.2,8.5s-0.7,6-2,8.5c-1.3,2.5-3.2,4.5-5.5,6
			c-2.3,1.4-4.9,2.2-7.8,2.2c-2.3,0-4.5-0.5-6.5-1.4c-2-1-3.7-2.3-5.1-4v16.2c0,0.9-0.3,1.7-0.8,2.2c-0.6,0.6-1.3,0.8-2.2,0.8
			c-0.9,0-1.6-0.3-2.2-0.8c-0.6-0.6-0.9-1.3-0.9-2.2V446c0-3.1,0.7-5.9,2.2-8.5c1.5-2.5,3.4-4.5,5.9-6c2.5-1.5,5.3-2.2,8.4-2.2
			C569.6,429.3,572.4,430.1,575,431.5z M572,455.8c1.6-1,2.9-2.3,3.8-4c0.9-1.7,1.4-3.6,1.4-5.7s-0.5-4-1.4-5.8
			c-0.9-1.7-2.2-3.1-3.8-4.1c-1.6-1-3.4-1.5-5.4-1.5c-2,0-3.8,0.5-5.4,1.5c-1.6,1-2.9,2.3-3.8,4.1c-0.9,1.7-1.4,3.6-1.4,5.8
			s0.5,4,1.4,5.7c0.9,1.7,2.2,3,3.8,4c1.6,1,3.4,1.5,5.4,1.5C568.5,457.2,570.3,456.8,572,455.8z"/>
	</g>
	<g>
		<path class="st28" d="M613.3,430.2c1.2,0.6,1.8,1.4,1.8,2.4c0,0.3,0,0.5-0.1,0.6c-0.4,1.3-1.2,1.9-2.4,1.9c-0.2,0-0.5,0-0.9-0.1
			c-1.6-0.3-2.9-0.4-3.9-0.4c-2.9,0-5.2,0.7-7,2c-1.8,1.3-2.6,3.1-2.6,5.3v17.5c0,1-0.3,1.7-0.8,2.2c-0.5,0.5-1.3,0.8-2.3,0.8
			c-1,0-1.7-0.2-2.2-0.8c-0.5-0.5-0.8-1.3-0.8-2.3v-26.8c0-1,0.3-1.7,0.8-2.2c0.5-0.5,1.3-0.8,2.2-0.8c2,0,3,1,3,3v1.1
			c1.2-1.4,2.7-2.5,4.4-3.3c1.8-0.8,3.6-1.2,5.6-1.2C610.4,429.2,612.1,429.5,613.3,430.2z"/>
	</g>
	<g>
		<path class="st28" d="M627.8,417.5c0.8,0.8,1.2,1.7,1.2,2.8s-0.4,2-1.2,2.8c-0.8,0.8-1.7,1.2-2.8,1.2c-1.1,0-2-0.4-2.8-1.2
			c-0.8-0.8-1.2-1.7-1.2-2.8s0.4-2,1.2-2.8c0.8-0.8,1.7-1.2,2.8-1.2C626.1,416.3,627,416.7,627.8,417.5z M622.8,430.4
			c0.6-0.6,1.3-0.8,2.2-0.8c0.9,0,1.7,0.3,2.2,0.8c0.6,0.6,0.8,1.3,0.8,2.2v26.7c0,0.9-0.3,1.6-0.8,2.2c-0.6,0.6-1.3,0.9-2.2,0.9
			c-0.9,0-1.6-0.3-2.2-0.9c-0.6-0.6-0.9-1.3-0.9-2.2v-26.7C622,431.7,622.3,431,622.8,430.4z"/>
	</g>
	<g>
		<path class="st28" d="M665.9,431c0.3,0.4,0.4,0.9,0.4,1.4c0,0.4-0.1,0.7-0.3,1.1l-12.7,26.8c-0.6,1.3-1.5,2-2.8,2
			c-0.7,0-1.2-0.2-1.7-0.5c-0.4-0.3-0.8-0.8-1.2-1.5L635,433.5c-0.2-0.3-0.2-0.7-0.2-1.1c0-1.1,0.6-1.9,1.7-2.5
			c0.4-0.2,0.8-0.3,1.3-0.3c0.5,0,0.9,0.1,1.4,0.4c0.4,0.3,0.8,0.6,1,1.1l10.4,22.5l10.3-22.5c0.2-0.5,0.6-0.8,1-1.1s1-0.4,1.5-0.4
			c0.5,0,1,0.1,1.4,0.3C665.3,430.2,665.7,430.6,665.9,431z"/>
	</g>
	<g>
		<path class="st28" d="M694.4,431.5c2.5,1.5,4.5,3.5,5.9,6c1.5,2.5,2.2,5.4,2.2,8.5v13.4c0,0.9-0.3,1.6-0.9,2.2
			c-0.6,0.6-1.3,0.9-2.2,0.9s-1.6-0.3-2.2-0.9c-0.6-0.6-0.9-1.3-0.9-2.2v-2.2c-1.4,1.7-3.1,3.1-5.1,4s-4.2,1.4-6.5,1.4
			c-2.9,0-5.5-0.7-7.8-2.2c-2.3-1.4-4.2-3.4-5.5-6c-1.3-2.5-2-5.4-2-8.5s0.7-5.9,2.2-8.5c1.4-2.5,3.4-4.5,6-6
			c2.5-1.5,5.3-2.2,8.4-2.2C689.1,429.3,691.9,430.1,694.4,431.5z M691.5,455.8c1.6-1,2.9-2.3,3.8-4c0.9-1.7,1.4-3.6,1.4-5.7
			s-0.5-4-1.4-5.8s-2.2-3.1-3.8-4.1c-1.6-1-3.4-1.5-5.4-1.5c-2,0-3.8,0.5-5.4,1.5c-1.6,1-2.9,2.3-3.8,4.1c-0.9,1.7-1.4,3.6-1.4,5.8
			s0.5,4,1.4,5.7c0.9,1.7,2.2,3,3.8,4c1.6,1,3.4,1.5,5.4,1.5C688,457.2,689.9,456.8,691.5,455.8z"/>
	</g>
	<g>
		<path class="st28" d="M727.5,457.2c0.5,0.6,0.8,1.3,0.8,2.2c0,0.9-0.3,1.6-1,2.2c-0.7,0.6-1.5,0.8-2.5,0.8h-1.1
			c-2,0-3.8-0.5-5.4-1.5c-1.6-1-2.9-2.4-3.8-4.2c-0.9-1.8-1.4-3.7-1.4-5.9v-14.8h-2.8c-0.8,0-1.5-0.2-2-0.7
			c-0.5-0.5-0.8-1.1-0.8-1.8c0-0.8,0.3-1.4,0.8-1.9c0.5-0.5,1.2-0.7,2-0.7h2.8v-8.6c0-0.9,0.3-1.6,0.8-2.2c0.6-0.6,1.3-0.8,2.2-0.8
			c0.9,0,1.6,0.3,2.2,0.8c0.6,0.6,0.8,1.3,0.8,2.2v8.6h5.1c0.8,0,1.5,0.2,2,0.7c0.5,0.5,0.8,1.1,0.8,1.9c0,0.7-0.3,1.3-0.8,1.8
			c-0.5,0.5-1.2,0.7-2,0.7H719v14.8c0,1.6,0.4,2.9,1.3,4s2,1.6,3.2,1.6h2C726.4,456.4,727,456.7,727.5,457.2z"/>
	</g>
	<g>
		<path class="st28" d="M764.4,447.4c-0.5,0.5-1.2,0.8-2,0.8h-22.8c0.4,2.8,1.7,5.1,3.8,6.8c2.1,1.7,4.7,2.6,7.7,2.6
			c1.2,0,2.4-0.2,3.8-0.7c1.3-0.4,2.4-1,3.2-1.6c0.6-0.4,1.2-0.7,2-0.7s1.4,0.2,1.8,0.6c0.7,0.6,1.1,1.3,1.1,2c0,0.7-0.3,1.3-1,1.8
			c-1.4,1.1-3.1,2-5.1,2.6c-2,0.7-4,1-5.8,1c-3.3,0-6.2-0.7-8.8-2.1c-2.6-1.4-4.6-3.4-6.1-5.9c-1.5-2.5-2.2-5.4-2.2-8.6
			s0.7-6.1,2.1-8.6c1.4-2.5,3.3-4.5,5.8-5.9s5.3-2.1,8.4-2.1c3.1,0,5.7,0.7,8,2c2.2,1.4,4,3.3,5.2,5.7c1.2,2.4,1.8,5.2,1.8,8.4
			C765.2,446.2,764.9,446.9,764.4,447.4z M743.1,436.9c-1.8,1.6-3,3.7-3.4,6.4h20c-0.4-2.7-1.4-4.8-3-6.4c-1.6-1.6-3.8-2.4-6.4-2.4
			C747.3,434.5,745,435.3,743.1,436.9z"/>
	</g>
	<g>
		<path class="st28" d="M777.6,456.3c0.8,0.8,1.2,1.8,1.2,3c0,1.1-0.4,2.1-1.2,2.9c-0.8,0.8-1.8,1.2-2.9,1.2c-1.1,0-2.1-0.4-2.9-1.2
			c-0.8-0.8-1.2-1.8-1.2-2.9c0-1.2,0.4-2.2,1.2-3c0.8-0.8,1.8-1.2,2.9-1.2S776.8,455.4,777.6,456.3z"/>
	</g>
</g>
</svg>
