<svg id="Layer_1" data-name="Layer 1" xmlns="http://www.w3.org/2000/svg" viewBox="0 0 377.02 399.85"><defs><style>.cls-1{fill:#484a97;}.cls-2{opacity:0.9;}.cls-3{fill:#5862a8;}.cls-4{opacity:0.5;}.cls-5{opacity:0.7;}.cls-6{opacity:0.1;}.cls-7{opacity:0.3;}</style></defs><title>Artboard 1</title><rect class="cls-1" x="-11.48" y="-4.83" width="400" height="410"/><g class="cls-2"><circle class="cls-3" cx="173.97" cy="91.27" r="27.8"/></g><g class="cls-4"><circle class="cls-3" cx="215.44" cy="50.28" r="13.93"/></g><g class="cls-4"><circle class="cls-3" cx="76.54" cy="41.15" r="22.12"/></g><g class="cls-4"><path class="cls-3" d="M134.57,34.35a17.18,17.18,0,1,1,17.17-17.17A17.19,17.19,0,0,1,134.57,34.35Zm0-29.76a12.59,12.59,0,1,0,12.58,12.59A12.61,12.61,0,0,0,134.57,4.59Z"/></g><g class="cls-4"><path class="cls-3" d="M202.94,252.85A15.9,15.9,0,1,1,218.83,237,15.91,15.91,0,0,1,202.94,252.85Zm0-27.2a11.31,11.31,0,1,0,11.3,11.3A11.31,11.31,0,0,0,202.94,225.65Z"/></g><g class="cls-4"><circle class="cls-3" cx="202.53" cy="200.62" r="9.52"/></g><g class="cls-5"><circle class="cls-3" cx="225.51" cy="276.92" r="17.31"/></g><g class="cls-4"><circle class="cls-3" cx="187.61" cy="320.87" r="23.57"/></g><g class="cls-4"><circle class="cls-3" cx="301.11" cy="337.89" r="23.57"/></g><g class="cls-2"><circle class="cls-3" cx="330.39" cy="292.24" r="12.95"/></g><g class="cls-5"><circle class="cls-3" cx="315.44" cy="96.16" r="39.73"/></g><g class="cls-4"><circle class="cls-3" cx="298.16" cy="241.49" r="31.07"/></g><g class="cls-5"><circle class="cls-3" cx="61.47" cy="128.77" r="45.39"/></g><g class="cls-4"><circle class="cls-3" cx="115.87" cy="292.86" r="27.43"/></g><g class="cls-6"><path class="cls-3" d="M26.72,286.17a23.82,23.82,0,1,1,23.82-23.81A23.84,23.84,0,0,1,26.72,286.17Zm0-43a19.23,19.23,0,1,0,19.22,19.23A19.25,19.25,0,0,0,26.72,243.13Z"/></g><g class="cls-4"><path class="cls-3" d="M321.83,186.86a16.25,16.25,0,1,1,16.25-16.25A16.27,16.27,0,0,1,321.83,186.86Zm0-27.91a11.66,11.66,0,1,0,11.65,11.66A11.67,11.67,0,0,0,321.83,159Z"/></g><g class="cls-4"><path class="cls-3" d="M181.29,163.89a16.25,16.25,0,1,1,16.25-16.25A16.27,16.27,0,0,1,181.29,163.89Zm0-27.9A11.66,11.66,0,1,0,193,147.64,11.66,11.66,0,0,0,181.29,136Z"/></g><g class="cls-5"><circle class="cls-3" cx="42.8" cy="340.39" r="42.8"/></g><g class="cls-4"><circle class="cls-3" cx="324.67" cy="24.94" r="18.21"/></g><g class="cls-4"><path class="cls-3" d="M287.53,166.92c-.33.14-.67.26-1,.37-5.91,1.91-12.33-.33-17.82-3.23a73.88,73.88,0,0,1-36.45-85.62c2-6.92,5.34-14,11.53-17.62s15.69-2.24,18.59,4.35c2.62,6-.92,12.59-3.11,18.71-7,19.62,1.05,44.81,20.13,54.6,6.47,3.32,14.17,3.84,16.3,12.24A14.41,14.41,0,0,1,287.53,166.92Z"/></g><g class="cls-6"><path class="cls-3" d="M210.76,121.41h.54c3.11.09,5.76,2.22,7.86,4.51A36.94,36.94,0,0,1,222,172.37c-2.09,2.93-4.85,5.69-8.38,6.38s-7.78-1.57-8-5.16c-.24-3.24,2.54-5.78,4.59-8.3,6.59-8.08,7-21.31-.36-29.11-2.5-2.65-6-4.18-5.64-8.49A7.21,7.21,0,0,1,210.76,121.41Z"/></g><g class="cls-4"><path class="cls-3" d="M45.48,212.88c.24.33.49.64.76,1,4.66,5.27,12.22,6.8,19.25,7.13a83.71,83.71,0,0,0,85-62.43c2.06-7.89,2.85-16.69-1.08-23.84s-14-11.24-20.63-6.5c-6,4.29-6.37,12.81-7.77,20.05-4.49,23.19-26.9,43.09-51.15,41.61-8.23-.5-16-4.44-23,2.52C41.6,197.67,41.07,206.91,45.48,212.88Z"/></g><g class="cls-7"><path class="cls-3" d="M172.87,271.12c.1-.24.19-.49.27-.74,1.37-4.33-.3-9-2.45-13a54.06,54.06,0,0,0-62.84-26.28c-5,1.48-10.19,4-12.84,8.53s-1.57,11.49,3.27,13.58c4.36,1.89,9.21-.73,13.68-2.36,14.33-5.24,32.8.55,40.06,14.47,2.46,4.73,2.87,10.36,9,11.88A10.54,10.54,0,0,0,172.87,271.12Z"/></g><g class="cls-4"><path class="cls-3" d="M77.62,275.81a7.48,7.48,0,0,1-6-2.85c-2.19-2.86-1.33-5.66-.7-7.7a15.67,15.67,0,0,0,.45-1.68c1.25-6.33-3.2-13.54-9.72-15.74l-1.08-.34c-2.21-.68-5-1.52-6.36-4.14a6.1,6.1,0,0,1-.24-5.08,7.83,7.83,0,0,1,4.44-4.53c2.65-1,5.83-.78,9.46.71A29.61,29.61,0,0,1,85.81,267.2c-.66,3.56-2,6-4.13,7.41-.16.11-.34.21-.51.31h0A7.31,7.31,0,0,1,77.62,275.81ZM62,237.72a5.07,5.07,0,0,0-1.84.31,3.34,3.34,0,0,0-1.8,1.85,1.66,1.66,0,0,0,0,1.33c.5.94,2,1.4,3.65,1.9l1.2.38c8.73,2.94,14.46,12.35,12.76,21a21.85,21.85,0,0,1-.57,2.13c-.6,2-.74,2.66,0,3.57a3,3,0,0,0,3.65.72h0l.16-.1c1-.69,1.75-2.14,2.17-4.42a25,25,0,0,0-15.11-27.66A11.41,11.41,0,0,0,62,237.72Z"/></g><g class="cls-4"><path class="cls-3" d="M369.1,331.52a2.55,2.55,0,0,0,.13-.29c.68-1.7.16-3.64-.58-5.32a21.81,21.81,0,0,0-24.47-12.55c-2.08.43-4.23,1.27-5.44,3s-1,4.58.89,5.58c1.7.89,3.73,0,5.58-.53,5.94-1.65,13.19,1.26,15.67,7.09.85,2,.84,4.26,3.27,5.06A4.25,4.25,0,0,0,369.1,331.52Z"/></g><g class="cls-7"><path class="cls-3" d="M98.37,339.49c0,.13,0,.26,0,.39.43,2.26,2.3,3.95,4.21,5.21a27.32,27.32,0,0,0,34.26-3.33c1.89-1.87,3.58-4.21,3.67-6.86s-2.05-5.5-4.7-5.27c-2.4.2-3.93,2.53-5.53,4.32-5.12,5.76-14.73,7.6-21.29,3.14-2.22-1.51-3.76-3.92-6.86-3.12A5.33,5.33,0,0,0,98.37,339.49Z"/></g><g class="cls-4"><path class="cls-3" d="M177.53,375.86l.3-.26c1.66-1.59,2.06-4.07,2.08-6.37a27.3,27.3,0,0,0-21.41-26.94c-2.59-.58-5.48-.73-7.76.64s-3.49,4.71-1.86,6.81c1.47,1.9,4.25,1.92,6.63,2.29,7.62,1.18,14.39,8.24,14.21,16.17-.07,2.69-1.25,5.28,1.1,7.46A5.34,5.34,0,0,0,177.53,375.86Z"/></g><g class="cls-6"><path class="cls-3" d="M242.68,399.83a7.29,7.29,0,0,0,.79-.08c4.49-.68,8-4.24,10.62-7.92a54.07,54.07,0,0,0-4-68c-3.55-3.89-8-7.41-13.3-7.79s-11,3.64-10.77,8.9c.22,4.76,4.7,7.95,8.13,11.25,11,10.58,13.92,29.72,4.6,42.35-3.17,4.28-8,7.13-6.7,13.33A10.53,10.53,0,0,0,242.68,399.83Z"/></g><g class="cls-4"><path class="cls-3" d="M251.11,255.92a12.28,12.28,0,0,1-3.27-.44c-4.72-1.34-8.77-4.91-12.36-10.94a54.24,54.24,0,0,1,9.79-67.62c4.62-4.27,8.94-6.23,13.21-6,.32,0,.63.05.95.09h0a12.5,12.5,0,0,1,10.44,11.8c.06,5.77-3.63,8.45-6.87,10.82a33.24,33.24,0,0,0-2.77,2.16c-9.86,8.87-11.47,26.15-3.5,37.73.41.6.85,1.2,1.29,1.81,2.49,3.41,5.31,7.29,4.57,12a9.64,9.64,0,0,1-4.5,6.59A13.12,13.12,0,0,1,251.11,255.92Zm6.72-80.43c-2.85,0-5.94,1.57-9.45,4.81a49.63,49.63,0,0,0-8.95,61.89c2.92,4.9,6.17,7.88,9.66,8.87a8.4,8.4,0,0,0,6.52-1,5.13,5.13,0,0,0,2.44-3.44c.44-2.84-1.59-5.63-3.74-8.59-.47-.64-.93-1.28-1.37-1.91-9.36-13.61-7.47-33.23,4.21-43.74a38.07,38.07,0,0,1,3.14-2.47c3.21-2.33,5-3.81,5-7.06a7.84,7.84,0,0,0-6.48-7.29,5.07,5.07,0,0,0-.56-.05Z"/></g><g class="cls-2"><path class="cls-3" d="M142.75,224.51c-4.22,0-7.44-1-9.78-3.1a8.11,8.11,0,0,1-.59-.58h0a10.71,10.71,0,0,1-.7-13.51c3.07-3.93,7.1-3.75,10.35-3.61a25,25,0,0,0,2.86,0c10.75-.64,20.52-10.81,21.32-22.2,0-.6.07-1.21.1-1.82.15-3.57.33-7.61,3.36-10.39a8.35,8.35,0,0,1,6.61-2.05,11.12,11.12,0,0,1,7.71,4.44c2.43,3.38,3.22,7.86,2.43,13.71a45.23,45.23,0,0,1-41.52,39C144.16,224.48,143.44,224.51,142.75,224.51Zm-7-6.83.3.3c1.75,1.55,4.54,2.16,8.54,1.87a40.63,40.63,0,0,0,37.3-35c.63-4.56.09-8.07-1.6-10.41a6.52,6.52,0,0,0-4.45-2.55,3.85,3.85,0,0,0-3,.86c-1.63,1.5-1.75,4.27-1.87,7.21,0,.65-.06,1.31-.11,1.94-1,13.81-12.47,25.68-25.62,26.47a30.79,30.79,0,0,1-3.34,0c-3.23-.14-5-.12-6.52,1.84a6.06,6.06,0,0,0,.41,7.54Z"/></g><g class="cls-4"><path class="cls-3" d="M268.28,312.66a33.67,33.67,0,0,1-16-4c-3.57-1.93-5.68-4.19-6.45-6.91-.06-.21-.11-.43-.15-.64h0a8.37,8.37,0,0,1,5.28-9.29c3.73-1.32,6.4.56,8.34,1.92.59.41,1.14.8,1.7,1.11,6.6,3.68,16.22,1.34,21-5.11.26-.35.51-.71.77-1.07,1.48-2.12,3.33-4.76,6.54-5.32a6.68,6.68,0,0,1,5.36,1.46,8.65,8.65,0,0,1,3.23,6.2c.18,3.2-1.14,6.41-4,9.82a33.48,33.48,0,0,1-25.6,11.86ZM250.2,300.21a1.84,1.84,0,0,0,.05.25c.42,1.47,1.8,2.82,4.22,4.13a29,29,0,0,0,35.9-6.76c2.07-2.44,3.06-4.66,3-6.6a4.1,4.1,0,0,0-1.51-2.85,2.18,2.18,0,0,0-1.71-.54c-1.33.23-2.42,1.79-3.57,3.43-.28.4-.56.8-.84,1.17-6.2,8.35-18.28,11.22-26.94,6.39a21,21,0,0,1-2.09-1.36c-2-1.39-2.8-1.83-4.17-1.35A3.83,3.83,0,0,0,250.2,300.21Z"/></g><g class="cls-4"><path class="cls-3" d="M347.54,216.6a33.71,33.71,0,0,1-16.39-4.25c-3.54-2-5.62-4.27-6.36-7-.06-.21-.1-.43-.14-.65h0a8.34,8.34,0,0,1,5.4-9.2c3.74-1.27,6.39.64,8.32,2,.57.41,1.12.81,1.67,1.13,6.55,3.77,16.21,1.56,21.09-4.83.26-.34.51-.7.78-1.06,1.51-2.1,3.4-4.71,6.61-5.23a6.67,6.67,0,0,1,5.34,1.53,8.69,8.69,0,0,1,3.15,6.25c.13,3.2-1.23,6.39-4.17,9.76a33.47,33.47,0,0,1-25.3,11.52Zm-18.37-12.69a2.1,2.1,0,0,0,.06.24c.39,1.48,1.75,2.85,4.15,4.19a29,29,0,0,0,36-6.27c2.1-2.41,3.12-4.62,3-6.56a4.11,4.11,0,0,0-1.46-2.88,2.22,2.22,0,0,0-1.71-.56c-1.33.22-2.44,1.76-3.62,3.39l-.85,1.16c-6.31,8.26-18.44,11-27,6a22.58,22.58,0,0,1-2.07-1.39c-2-1.42-2.78-1.87-4.15-1.4a3.82,3.82,0,0,0-2.36,4.06Z"/></g><g class="cls-5"><path class="cls-3" d="M187.13,48.45c0-.16-.1-.32-.16-.47-1-2.64-3.7-4.27-6.31-5.37a33.78,33.78,0,0,0-40.85,11.92c-1.88,2.71-3.39,5.94-2.89,9.19s3.75,6.2,6.92,5.32c2.87-.8,4.19-4,5.72-6.53,4.91-8.17,16.16-12.62,25.15-8.7,3,1.33,5.46,3.9,9,2.22A6.6,6.6,0,0,0,187.13,48.45Z"/></g><g class="cls-7"><path class="cls-3" d="M257.61,48.86a36.16,36.16,0,0,1-21-6.73c-3.51-2.51-5.44-5.17-5.9-8.15,0-.22-.06-.46-.07-.69a8.83,8.83,0,0,1,6.76-9c4.08-.89,6.53,1.35,8.51,3.14a21.31,21.31,0,0,0,1.68,1.43C254.23,33.7,265,32.48,271,26.16l1-1.05c1.85-2,4.16-4.59,7.6-4.76a7,7,0,0,1,5.4,2.24,9.27,9.27,0,0,1,2.57,6.94c-.23,3.35-2.11,6.66-5.58,9.85a36.21,36.21,0,0,1-22.2,9.42C259.06,48.84,258.33,48.86,257.61,48.86ZM239.16,28.65a3.66,3.66,0,0,0-.78.09A4.32,4.32,0,0,0,235.22,33h0l0,.29c.26,1.68,1.58,3.35,4,5.11A31.49,31.49,0,0,0,278.87,36c2.58-2.36,4-4.65,4.11-6.78a4.61,4.61,0,0,0-1.27-3.41,2.55,2.55,0,0,0-1.9-.86c-1.54.08-2.94,1.62-4.42,3.26-.35.39-.7.77-1.05,1.13-7.7,8-20.92,9.47-29.47,3.19a25.88,25.88,0,0,1-2.05-1.73C241.31,29.42,240.4,28.65,239.16,28.65Z"/></g><g class="cls-2"><path class="cls-3" d="M25,81.89c.21,0,.43,0,.64-.07,3.64-.55,6.46-3.45,8.6-6.44a44.23,44.23,0,0,0,8.1-28.16,44.21,44.21,0,0,0-11.44-27c-2.89-3.15-6.54-6-10.8-6.3s-8.93,3-8.72,7.24C11.6,25,15.24,27.63,18,30.3,27,38.86,29.35,54.37,21.82,64.63c-2.56,3.48-6.51,5.8-5.42,10.82A8.57,8.57,0,0,0,25,81.89Z"/></g><g class="cls-7"><path class="cls-3" d="M131.41,114c-3.87,0-7.87-1.65-12.19-5a46.73,46.73,0,0,1-13.17-57.36c2.41-4.92,5.32-7.88,8.87-9.05l.83-.23a11,11,0,0,1,12.34,6.39c1.9,4.75-.36,8.25-2.17,11.06a28.84,28.84,0,0,0-1.52,2.54c-5.05,10-1.05,24.06,8.75,30.75.51.35,1,.69,1.58,1,3.09,2,6.6,4.25,7.5,8.37a8.63,8.63,0,0,1-1.61,6.92,11.48,11.48,0,0,1-7.93,4.54C132.26,114,131.84,114,131.41,114ZM118,46.65a5.27,5.27,0,0,0-1.25.14h0a3.45,3.45,0,0,0-.43.12c-2.32.76-4.34,3-6.17,6.7a42.1,42.1,0,0,0,11.87,51.72c3.77,3,7.2,4.3,10.21,4a6.86,6.86,0,0,0,4.65-2.68,4.05,4.05,0,0,0,.83-3.23c-.49-2.27-2.92-3.83-5.49-5.49-.58-.37-1.15-.73-1.69-1.11-11.8-8-16.4-24.48-10.26-36.61a32.12,32.12,0,0,1,1.76-3c1.83-2.84,2.74-4.43,1.77-6.87A6.39,6.39,0,0,0,118,46.65Z"/></g></svg>