<?xml version="1.0" encoding="utf-8"?>
<!-- Generator: Adobe Illustrator 16.0.0, SVG Export Plug-In . SVG Version: 6.00 Build 0)  -->
<!DOCTYPE svg PUBLIC "-//W3C//DTD SVG 1.1//EN" "http://www.w3.org/Graphics/SVG/1.1/DTD/svg11.dtd">
<svg version="1.1" id="Layer_1" xmlns="http://www.w3.org/2000/svg" xmlns:xlink="http://www.w3.org/1999/xlink" x="0px" y="0px"
	 width="20px" height="20px" viewBox="0 0 80 80" enable-background="new 0 0 80 80" xml:space="preserve">
<g>
	<path d="M70-304.5H10c-4.125,0-7.5,3.375-7.5,7.5v65c0,4.125,3.375,7.5,7.5,7.5h60c4.125,0,7.5-3.375,7.5-7.5v-65
		C77.5-301.125,74.125-304.5,70-304.5L70-304.5z M70.042-231.728H9.958v-65.546h60.084V-231.728z M22.5-259.5h35v5h-35V-259.5z
		 M22.5-249.5h35v5h-35V-249.5z M27.5-282c0,4.142,3.357,7.5,7.5,7.5s7.5-3.359,7.5-7.5c0-4.142-3.357-7.5-7.5-7.5
		S27.5-286.142,27.5-282L27.5-282z M40-274.5H30c-4.125,0-7.5,2.25-7.5,4.999v5h25v-5C47.5-272.25,44.125-274.5,40-274.5L40-274.5z
		 M40-274.5"/>
</g>
<g>
	<path d="M209.113-231.652h-74.227c-1.598,0-2.887-1.367-2.887-3.043v-59.608c0-1.684,1.289-3.043,2.887-3.043h74.227
		c1.598,0,2.887,1.36,2.887,3.043v59.608C212-233.02,210.711-231.652,209.113-231.652L209.113-231.652z M137.772-237.74h68.455
		v-53.527h-68.455V-237.74z M137.772-237.74"/>
	<path d="M151.579-265.178c-5.305,0-9.624-4.32-9.624-9.629c0-5.312,4.319-9.63,9.624-9.63c5.312,0,9.63,4.318,9.63,9.63
		C161.209-269.498,156.891-265.178,151.579-265.178L151.579-265.178z M151.579-278.358c-1.95,0-3.545,1.594-3.545,3.551
		c0,1.958,1.595,3.545,3.545,3.545c1.956,0,3.55-1.588,3.55-3.545C155.129-276.764,153.535-278.358,151.579-278.358L151.579-278.358
		z M151.579-278.358"/>
	<path d="M158.174-244.568h-13.177c-1.682,0-3.042-1.365-3.042-3.043v-13.176c0-1.678,1.36-3.045,3.042-3.045h13.177
		c1.676,0,3.035,1.367,3.035,3.045v13.176C161.209-245.934,159.85-244.568,158.174-244.568L158.174-244.568z M148.034-250.648h7.095
		v-7.096h-7.095V-250.648z M148.034-250.648"/>
	<g>
		<path d="M198.399-274.958h-28.964c-1.676,0-3.035-1.364-3.035-3.042c0-1.678,1.359-3.038,3.035-3.038h28.964
			c1.676,0,3.035,1.36,3.035,3.038C201.435-276.322,200.075-274.958,198.399-274.958L198.399-274.958z M198.399-274.958"/>
		<path d="M198.399-261.781h-28.964c-1.676,0-3.035-1.359-3.035-3.037c0-1.684,1.359-3.043,3.035-3.043h28.964
			c1.676,0,3.035,1.359,3.035,3.043C201.435-263.141,200.075-261.781,198.399-261.781L198.399-261.781z M198.399-261.781"/>
		<path d="M198.399-248.605h-28.964c-1.676,0-3.035-1.365-3.035-3.045c0-1.676,1.359-3.033,3.035-3.033h28.964
			c1.676,0,3.035,1.357,3.035,3.033C201.435-249.971,200.075-248.605,198.399-248.605L198.399-248.605z M198.399-248.605"/>
	</g>
</g>
<g>
	<path d="M275.04-299.666h-7.018c-2.116,0-3.522,1.406-3.522,3.52v7.022c0,2.113,1.406,3.521,3.522,3.521h7.018
		c2.116,0,3.522-1.407,3.522-3.521v-7.022C278.563-298.26,277.156-299.666,275.04-299.666L275.04-299.666z M275.04-299.666"/>
	<path d="M275.04-271.542h-7.018c-2.116,0-3.522,1.41-3.522,3.523v7.036c0,2.116,1.406,3.522,3.522,3.522h7.018
		c2.116,0,3.522-1.406,3.522-3.522v-7.036C278.563-270.132,277.156-271.542,275.04-271.542L275.04-271.542z M275.04-271.542"/>
	<path d="M275.04-243.397h-7.018c-2.116,0-3.522,1.407-3.522,3.523v7.017c0,2.116,1.406,3.523,3.522,3.523h7.018
		c2.116,0,3.522-1.407,3.522-3.523v-7.017C278.563-241.99,277.156-243.397,275.04-243.397L275.04-243.397z M275.04-243.397"/>
	<path d="M340.978-299.666H291.75c-2.116,0-3.522,1.406-3.522,3.52v7.022c0,2.113,1.406,3.521,3.522,3.521h49.228
		c2.116,0,3.522-1.407,3.522-3.521v-7.022C344.5-298.26,343.094-299.666,340.978-299.666L340.978-299.666z M340.978-299.666"/>
	<path d="M340.978-271.542H291.75c-2.116,0-3.522,1.41-3.522,3.523v7.036c0,2.116,1.406,3.522,3.522,3.522h49.228
		c2.116,0,3.522-1.406,3.522-3.522v-7.036C344.5-270.132,343.094-271.542,340.978-271.542L340.978-271.542z M340.978-271.542"/>
	<path d="M340.978-243.397H291.75c-2.116,0-3.522,1.407-3.522,3.523v7.017c0,2.116,1.406,3.523,3.522,3.523h49.228
		c2.116,0,3.522-1.407,3.522-3.523v-7.017C344.5-241.99,343.094-243.397,340.978-243.397L340.978-243.397z M340.978-243.397"/>
</g>
<g>
	<g>
		<path fill-rule="evenodd" clip-rule="evenodd" d="M421.665-282.276c-4.914,0-8.884,3.984-8.884,8.888
			c0,4.913,3.97,8.897,8.884,8.897c4.905,0,8.889-3.984,8.889-8.897C430.554-278.292,426.579-282.276,421.665-282.276
			L421.665-282.276z M470.554-300.057h-71.107c-2.447,0-4.446,1.999-4.446,4.449v62.218c0,2.452,1.999,4.446,4.446,4.446h71.107
			c2.462,0,4.446-1.994,4.446-4.446v-62.218C475-298.058,473.016-300.057,470.554-300.057L470.554-300.057z M466.116-240.053
			c0,1.227-0.999,2.217-2.226,2.217h-35.999l24.898-24.89l13.326,13.313V-240.053z M466.116-261.804l-9.688-9.688
			c-0.154-0.218-0.305-0.422-0.5-0.609c-0.867-0.866-2.021-1.297-3.17-1.288c-1.127-0.009-2.275,0.413-3.143,1.277
			c-0.155,0.164-0.288,0.328-0.405,0.5l-33.772,33.784h-9.329c-1.227,0-2.226-0.999-2.226-2.226v-48.895
			c0-1.224,0.999-2.224,2.226-2.224h57.781c1.227,0,2.226,1,2.226,2.224V-261.804z M466.116-261.804"/>
	</g>
</g>
<g>
	<path d="M587.077-267.41c-3.715,1.768-6.742,7.139-10.285,3.596c-2.149-2.336-4.703-6.055-7.64-10.258
		c-3.174-4.521-7.218-8.406-11.977-3.965c-5.315,4.998-8.963,18.561-9.28,25.541l50.206,0.016
		C596.953-256.585,592.491-269.988,587.077-267.41L587.077-267.41z M587.077-267.41"/>
	<path d="M593.017-281.457c0,3.408-2.762,6.173-6.174,6.173c-3.408,0-6.173-2.765-6.173-6.173c0-3.412,2.765-6.178,6.173-6.178
		C590.255-287.635,593.017-284.869,593.017-281.457L593.017-281.457z M593.017-281.457"/>
	<path d="M605.665-295.548h-65.33c-1.013,0-1.835,0.821-1.835,1.835v9.28h-9.165c-1.012,0-1.835,0.823-1.835,1.835v47.311
		c0,1.013,0.823,1.835,1.835,1.835h65.326c1.013,0,1.835-0.822,1.835-1.835v-9.28h9.169c1.012,0,1.835-0.818,1.835-1.831v-47.314
		C607.5-294.727,606.677-295.548,605.665-295.548L605.665-295.548z M591.57-238.379h-59.145v-41.128h6.074v28.595
		c-0.922,3.564-1.489,6.983-1.605,9.53l50.206,0.016c-0.219-0.786-0.56-1.91-1.009-3.201h5.479V-238.379z M602.574-249.493h-59.148
		v-41.13h59.148V-249.493z M602.574-249.493"/>
</g>
<g>
	<path d="M601.842-88.105c-9.43-7.742-19.594-12.886-21.693-13.922c-0.236-0.117-0.385-0.352-0.385-0.617v-14.688
		c1.864-1.242,3.078-3.344,3.078-5.705v-15.248c0-7.569-6.148-13.715-13.716-13.715h-3.253c-7.563,0-13.711,6.146-13.711,13.715
		v15.219c0,2.391,1.211,4.492,3.073,5.703v14.688c0,0.266-0.146,0.5-0.386,0.619c-2.063,1.006-12.234,6.146-21.688,13.92
		c-1.718,1.391-2.691,3.489-2.691,5.703V-72h74.059v-10.434C604.529-84.621,603.554-86.715,601.842-88.105L601.842-88.105z
		 M601.842-88.105"/>
</g>
<g>
	<g>
		<path d="M470.577-119.115L449.23-97.769c-5.896,5.896-15.449,5.896-21.346,0l-7.115-7.115l7.115-7.115l7.115,7.115
			c1.965,1.96,5.154,1.965,7.115,0l21.347-21.347c1.96-1.963,1.96-5.154,0-7.118l-7.115-7.115c-1.961-1.961-5.155-1.961-7.116,0
			l-7.621,7.621c-3.534-2.078-7.548-2.971-11.523-2.702l12.029-12.034c5.896-5.895,15.454-5.895,21.347,0l7.115,7.115
			C476.474-134.569,476.474-125.01,470.577-119.115L470.577-119.115z M428.386-91.154l-7.616,7.616
			c-1.966,1.966-5.155,1.961-7.116,0l-7.115-7.115c-1.966-1.961-1.966-5.15,0-7.115l21.347-21.347c1.96-1.96,5.154-1.96,7.115,0
			l7.115,7.116l7.115-7.116l-7.115-7.115c-5.897-5.894-15.449-5.894-21.346,0l-21.347,21.347c-5.897,5.896-5.897,15.454,0,21.346
			l7.115,7.116c5.892,5.896,15.449,5.896,21.347,0l12.029-12.03C435.938-88.187,431.933-89.081,428.386-91.154L428.386-91.154z
			 M428.386-91.154"/>
	</g>
</g>
<g>
	<path d="M342.25-117.916c3.221,1.475,2.951,2.699-0.598,2.699h-70.717c-3.531,0-6.436-2.904-6.436-6.436v-25.715
		c0-3.547,2.637-5.227,5.84-3.736L342.25-117.916z M270.34-151.104"/>
	<path d="M270.936-102.352h47.877l-47.877,22.104V-102.352 M270.936-108.789c-3.531,0-6.436,2.904-6.436,6.438v25.713
		c0,2.662,1.49,4.287,3.594,4.287c0.691,0,1.461-0.189,2.246-0.551l71.91-33.186c3.221-1.492,2.951-2.701-0.598-2.701H270.936
		L270.936-108.789z M270.936-108.789"/>
</g>
<g>
	<g>
		<path d="M156.754-138.289l9.523,5.339l-5.338-9.524l5.338-9.523l-9.523,5.339l-9.524-5.339l5.339,9.523l-5.339,9.524
			L156.754-138.289z M156.754-138.289"/>
		<path d="M202.476-100.956l-9.523-5.32l5.339,9.524l-5.339,9.523l9.523-5.343L212-87.229l-5.339-9.523l5.339-9.524L202.476-100.956
			z M202.476-100.956"/>
		<path d="M212-151.998l-9.524,5.339l-9.523-5.339l5.339,9.523l-5.339,9.524l9.523-5.339L212-132.95l-5.339-9.524L212-151.998z
			 M212-151.998"/>
		<path d="M183.038-131.815c-1.525-1.507-3.795-1.507-5.32,0L133.13-87.229c-1.507,1.525-1.507,3.79,0,5.32l8.762,8.762
			c1.525,1.525,3.813,1.525,5.338,0l44.569-44.569c1.525-1.525,1.525-3.813,0-5.339L183.038-131.815z M178.853-110.852l-7.999-7.999
			l9.134-9.151l8.017,7.998L178.853-110.852z M178.853-110.852"/>
	</g>
</g>
<g>
	<path d="M51.952-125.914H28.039c-1.078,0-1.953,0.875-1.953,1.953v1.309c0,1.078,0.875,1.952,1.953,1.952h23.913
		c1.087,0,1.962-0.874,1.962-1.952v-1.309C53.914-125.039,53.039-125.914,51.952-125.914L51.952-125.914z M52.173-113.736H27.827
		c-0.96,0-1.741,0.772-1.741,1.732v1.74c0,0.96,0.781,1.741,1.741,1.741h24.346c0.96,0,1.741-0.781,1.741-1.741v-1.74
		C53.914-112.964,53.133-113.736,52.173-113.736L52.173-113.736z M39.996-152C17.909-152,0-134.091,0-112.004
		C0-89.909,17.909-72,39.996-72C62.089-72,80-89.909,80-112.004C80-134.091,62.089-152,39.996-152L39.996-152z M39.996-78.955
		c-18.249,0-33.042-14.801-33.042-33.049c0-18.249,14.792-33.041,33.042-33.041c18.248,0,33.049,14.792,33.049,33.041
		C73.045-93.756,58.244-78.955,39.996-78.955L39.996-78.955z M52.173-101.568H27.827c-0.96,0-1.741,0.781-1.741,1.741v1.741
		c0,0.959,0.781,1.74,1.741,1.74h24.346c0.96,0,1.741-0.781,1.741-1.74v-1.741C53.914-100.787,53.133-101.568,52.173-101.568
		L52.173-101.568z M52.173-101.568"/>
</g>
<g>
	<path d="M75.918,68.027H4.082C1.827,68.027,0,69.854,0,72.109c0,2.253,1.827,4.081,4.082,4.081h71.836
		c2.255,0,4.082-1.828,4.082-4.081C80,69.854,78.173,68.027,75.918,68.027L75.918,68.027z M75.918,68.027"/>
	<path d="M8.299,62.04h12.79c1.428,0,2.586-1.157,2.586-2.584V24.082c0-1.429-1.158-2.586-2.586-2.586H8.299
		c-1.427,0-2.584,1.157-2.584,2.586v35.374C5.714,60.883,6.872,62.04,8.299,62.04L8.299,62.04z M8.299,62.04"/>
	<path d="M33.606,62.04h12.789c1.428,0,2.586-1.157,2.586-2.584V6.395c0-1.428-1.158-2.585-2.586-2.585H33.606
		c-1.428,0-2.586,1.157-2.586,2.585v53.062C31.02,60.883,32.178,62.04,33.606,62.04L33.606,62.04z M33.606,62.04"/>
	<path d="M58.912,62.04h12.789c1.427,0,2.584-1.157,2.584-2.584V30.885c0-1.429-1.157-2.586-2.584-2.586H58.912
		c-1.428,0-2.585,1.157-2.585,2.586v28.571C56.327,60.883,57.484,62.04,58.912,62.04L58.912,62.04z M58.912,62.04"/>
</g>
</svg>
