<?xml version="1.0" encoding="utf-8"?>
<!-- Generator: Adobe Illustrator 16.0.0, SVG Export Plug-In . SVG Version: 6.00 Build 0)  -->
<!DOCTYPE svg PUBLIC "-//W3C//DTD SVG 1.1//EN" "http://www.w3.org/Graphics/SVG/1.1/DTD/svg11.dtd">
<svg version="1.1" id="Layer_1" xmlns="http://www.w3.org/2000/svg" xmlns:xlink="http://www.w3.org/1999/xlink" x="0px" y="0px"
	 width="20px" height="20px" viewBox="0 0 80 80" enable-background="new 0 0 80 80" xml:space="preserve">
<g>
	<path d="M-62-304.5h-60c-4.125,0-7.5,3.375-7.5,7.5v65c0,4.125,3.375,7.5,7.5,7.5h60c4.125,0,7.5-3.375,7.5-7.5v-65
		C-54.5-301.125-57.875-304.5-62-304.5L-62-304.5z M-61.958-231.728h-60.084v-65.546h60.084V-231.728z M-109.5-259.5h35v5h-35
		V-259.5z M-109.5-249.5h35v5h-35V-249.5z M-104.5-282c0,4.142,3.357,7.5,7.5,7.5s7.5-3.359,7.5-7.5c0-4.142-3.357-7.5-7.5-7.5
		S-104.5-286.142-104.5-282L-104.5-282z M-92-274.5h-10c-4.125,0-7.5,2.25-7.5,4.999v5h25v-5C-84.5-272.25-87.875-274.5-92-274.5
		L-92-274.5z M-92-274.5"/>
</g>
<g>
	<path d="M77.113-231.652H2.887c-1.598,0-2.887-1.367-2.887-3.043v-59.608c0-1.684,1.289-3.043,2.887-3.043h74.227
		c1.598,0,2.887,1.36,2.887,3.043v59.608C80-233.02,78.711-231.652,77.113-231.652L77.113-231.652z M5.772-237.74h68.455v-53.527
		H5.772V-237.74z M5.772-237.74"/>
	<path d="M19.579-265.178c-5.305,0-9.624-4.32-9.624-9.629c0-5.312,4.319-9.63,9.624-9.63c5.312,0,9.63,4.318,9.63,9.63
		C29.209-269.498,24.891-265.178,19.579-265.178L19.579-265.178z M19.579-278.358c-1.95,0-3.545,1.594-3.545,3.551
		c0,1.958,1.595,3.545,3.545,3.545c1.956,0,3.55-1.588,3.55-3.545C23.129-276.764,21.535-278.358,19.579-278.358L19.579-278.358z
		 M19.579-278.358"/>
	<path d="M26.174-244.568H12.997c-1.682,0-3.042-1.365-3.042-3.043v-13.176c0-1.678,1.36-3.045,3.042-3.045h13.177
		c1.676,0,3.035,1.367,3.035,3.045v13.176C29.209-245.934,27.85-244.568,26.174-244.568L26.174-244.568z M16.034-250.648h7.095
		v-7.096h-7.095V-250.648z M16.034-250.648"/>
	<g>
		<path d="M66.399-274.958H37.436c-1.676,0-3.035-1.364-3.035-3.042c0-1.678,1.359-3.038,3.035-3.038h28.964
			c1.676,0,3.035,1.36,3.035,3.038C69.435-276.322,68.075-274.958,66.399-274.958L66.399-274.958z M66.399-274.958"/>
		<path d="M66.399-261.781H37.436c-1.676,0-3.035-1.359-3.035-3.037c0-1.684,1.359-3.043,3.035-3.043h28.964
			c1.676,0,3.035,1.359,3.035,3.043C69.435-263.141,68.075-261.781,66.399-261.781L66.399-261.781z M66.399-261.781"/>
		<path d="M66.399-248.605H37.436c-1.676,0-3.035-1.365-3.035-3.045c0-1.676,1.359-3.033,3.035-3.033h28.964
			c1.676,0,3.035,1.357,3.035,3.033C69.435-249.971,68.075-248.605,66.399-248.605L66.399-248.605z M66.399-248.605"/>
	</g>
</g>
<g>
	<path d="M143.04-299.666h-7.018c-2.116,0-3.522,1.406-3.522,3.52v7.022c0,2.113,1.406,3.521,3.522,3.521h7.018
		c2.116,0,3.522-1.407,3.522-3.521v-7.022C146.563-298.26,145.156-299.666,143.04-299.666L143.04-299.666z M143.04-299.666"/>
	<path d="M143.04-271.542h-7.018c-2.116,0-3.522,1.41-3.522,3.523v7.036c0,2.116,1.406,3.522,3.522,3.522h7.018
		c2.116,0,3.522-1.406,3.522-3.522v-7.036C146.563-270.132,145.156-271.542,143.04-271.542L143.04-271.542z M143.04-271.542"/>
	<path d="M143.04-243.397h-7.018c-2.116,0-3.522,1.407-3.522,3.523v7.017c0,2.116,1.406,3.523,3.522,3.523h7.018
		c2.116,0,3.522-1.407,3.522-3.523v-7.017C146.563-241.99,145.156-243.397,143.04-243.397L143.04-243.397z M143.04-243.397"/>
	<path d="M208.978-299.666H159.75c-2.116,0-3.522,1.406-3.522,3.52v7.022c0,2.113,1.406,3.521,3.522,3.521h49.228
		c2.116,0,3.522-1.407,3.522-3.521v-7.022C212.5-298.26,211.094-299.666,208.978-299.666L208.978-299.666z M208.978-299.666"/>
	<path d="M208.978-271.542H159.75c-2.116,0-3.522,1.41-3.522,3.523v7.036c0,2.116,1.406,3.522,3.522,3.522h49.228
		c2.116,0,3.522-1.406,3.522-3.522v-7.036C212.5-270.132,211.094-271.542,208.978-271.542L208.978-271.542z M208.978-271.542"/>
	<path d="M208.978-243.397H159.75c-2.116,0-3.522,1.407-3.522,3.523v7.017c0,2.116,1.406,3.523,3.522,3.523h49.228
		c2.116,0,3.522-1.407,3.522-3.523v-7.017C212.5-241.99,211.094-243.397,208.978-243.397L208.978-243.397z M208.978-243.397"/>
</g>
<g>
	<g>
		<path fill-rule="evenodd" clip-rule="evenodd" d="M289.665-282.276c-4.914,0-8.884,3.984-8.884,8.888
			c0,4.913,3.97,8.897,8.884,8.897c4.905,0,8.889-3.984,8.889-8.897C298.554-278.292,294.579-282.276,289.665-282.276
			L289.665-282.276z M338.554-300.057h-71.107c-2.447,0-4.446,1.999-4.446,4.449v62.218c0,2.452,1.999,4.446,4.446,4.446h71.107
			c2.462,0,4.446-1.994,4.446-4.446v-62.218C343-298.058,341.016-300.057,338.554-300.057L338.554-300.057z M334.116-240.053
			c0,1.227-0.999,2.217-2.226,2.217h-35.999l24.898-24.89l13.326,13.313V-240.053z M334.116-261.804l-9.688-9.688
			c-0.154-0.218-0.305-0.422-0.5-0.609c-0.867-0.866-2.021-1.297-3.17-1.288c-1.127-0.009-2.275,0.413-3.143,1.277
			c-0.155,0.164-0.288,0.328-0.405,0.5l-33.772,33.784h-9.329c-1.227,0-2.226-0.999-2.226-2.226v-48.895
			c0-1.224,0.999-2.224,2.226-2.224h57.781c1.227,0,2.226,1,2.226,2.224V-261.804z M334.116-261.804"/>
	</g>
</g>
<g>
	<path d="M455.077-267.41c-3.715,1.768-6.742,7.139-10.285,3.596c-2.149-2.336-4.703-6.055-7.64-10.258
		c-3.174-4.521-7.218-8.406-11.977-3.965c-5.315,4.998-8.963,18.561-9.28,25.541l50.206,0.016
		C464.953-256.585,460.491-269.988,455.077-267.41L455.077-267.41z M455.077-267.41"/>
	<path d="M461.017-281.457c0,3.408-2.762,6.173-6.174,6.173c-3.408,0-6.173-2.765-6.173-6.173c0-3.412,2.765-6.178,6.173-6.178
		C458.255-287.635,461.017-284.869,461.017-281.457L461.017-281.457z M461.017-281.457"/>
	<path d="M473.665-295.548h-65.33c-1.013,0-1.835,0.821-1.835,1.835v9.28h-9.165c-1.012,0-1.835,0.823-1.835,1.835v47.311
		c0,1.013,0.823,1.835,1.835,1.835h65.326c1.013,0,1.835-0.822,1.835-1.835v-9.28h9.169c1.012,0,1.835-0.818,1.835-1.831v-47.314
		C475.5-294.727,474.677-295.548,473.665-295.548L473.665-295.548z M459.57-238.379h-59.145v-41.128h6.074v28.595
		c-0.922,3.564-1.489,6.983-1.605,9.53l50.206,0.016c-0.219-0.786-0.56-1.91-1.009-3.201h5.479V-238.379z M470.574-249.493h-59.148
		v-41.13h59.148V-249.493z M470.574-249.493"/>
</g>
<g>
	<path d="M469.842-88.105c-9.43-7.742-19.594-12.886-21.693-13.922c-0.236-0.117-0.385-0.352-0.385-0.617v-14.688
		c1.864-1.242,3.078-3.344,3.078-5.705v-15.248c0-7.569-6.148-13.715-13.716-13.715h-3.253c-7.563,0-13.711,6.146-13.711,13.715
		v15.219c0,2.391,1.211,4.492,3.073,5.703v14.688c0,0.266-0.146,0.5-0.386,0.619c-2.063,1.006-12.234,6.146-21.688,13.92
		c-1.718,1.391-2.691,3.489-2.691,5.703V-72h74.059v-10.434C472.529-84.621,471.554-86.715,469.842-88.105L469.842-88.105z
		 M469.842-88.105"/>
</g>
<g>
	<g>
		<path d="M338.577-119.115L317.23-97.769c-5.896,5.896-15.449,5.896-21.346,0l-7.115-7.115l7.115-7.115l7.115,7.115
			c1.965,1.96,5.154,1.965,7.115,0l21.347-21.347c1.96-1.963,1.96-5.154,0-7.118l-7.115-7.115c-1.961-1.961-5.155-1.961-7.116,0
			l-7.621,7.621c-3.534-2.078-7.548-2.971-11.523-2.702l12.029-12.034c5.896-5.895,15.454-5.895,21.347,0l7.115,7.115
			C344.474-134.569,344.474-125.01,338.577-119.115L338.577-119.115z M296.386-91.154l-7.616,7.616
			c-1.966,1.966-5.155,1.961-7.116,0l-7.115-7.115c-1.966-1.961-1.966-5.15,0-7.115l21.347-21.347c1.96-1.96,5.154-1.96,7.115,0
			l7.115,7.116l7.115-7.116l-7.115-7.115c-5.897-5.894-15.449-5.894-21.346,0l-21.347,21.347c-5.897,5.896-5.897,15.454,0,21.346
			l7.115,7.116c5.892,5.896,15.449,5.896,21.347,0l12.029-12.03C303.938-88.187,299.933-89.081,296.386-91.154L296.386-91.154z
			 M296.386-91.154"/>
	</g>
</g>
<g>
	<path d="M210.25-117.916c3.221,1.475,2.951,2.699-0.598,2.699h-70.717c-3.531,0-6.436-2.904-6.436-6.436v-25.715
		c0-3.547,2.637-5.227,5.84-3.736L210.25-117.916z M138.34-151.104"/>
	<path d="M138.936-102.352h47.877l-47.877,22.104V-102.352 M138.936-108.789c-3.531,0-6.436,2.904-6.436,6.438v25.713
		c0,2.662,1.49,4.287,3.594,4.287c0.691,0,1.461-0.189,2.246-0.551l71.91-33.186c3.221-1.492,2.951-2.701-0.598-2.701H138.936
		L138.936-108.789z M138.936-108.789"/>
</g>
<g>
	<g>
		<path d="M24.754-138.289l9.523,5.339l-5.338-9.524l5.338-9.523l-9.523,5.339l-9.524-5.339l5.339,9.523l-5.339,9.524
			L24.754-138.289z M24.754-138.289"/>
		<path d="M70.476-100.956l-9.523-5.32l5.339,9.524l-5.339,9.523l9.523-5.343L80-87.229l-5.339-9.523L80-106.276L70.476-100.956z
			 M70.476-100.956"/>
		<path d="M80-151.998l-9.524,5.339l-9.523-5.339l5.339,9.523l-5.339,9.524l9.523-5.339L80-132.95l-5.339-9.524L80-151.998z
			 M80-151.998"/>
		<path d="M51.038-131.815c-1.525-1.507-3.795-1.507-5.32,0L1.13-87.229c-1.507,1.525-1.507,3.79,0,5.32l8.762,8.762
			c1.525,1.525,3.813,1.525,5.338,0l44.569-44.569c1.525-1.525,1.525-3.813,0-5.339L51.038-131.815z M46.853-110.852l-7.999-7.999
			l9.134-9.151l8.017,7.998L46.853-110.852z M46.853-110.852"/>
	</g>
</g>
<g>
	<path d="M-80.048-125.914h-23.913c-1.078,0-1.953,0.875-1.953,1.953v1.309c0,1.078,0.875,1.952,1.953,1.952h23.913
		c1.087,0,1.962-0.874,1.962-1.952v-1.309C-78.086-125.039-78.961-125.914-80.048-125.914L-80.048-125.914z M-79.827-113.736
		h-24.346c-0.96,0-1.741,0.772-1.741,1.732v1.74c0,0.96,0.781,1.741,1.741,1.741h24.346c0.96,0,1.741-0.781,1.741-1.741v-1.74
		C-78.086-112.964-78.867-113.736-79.827-113.736L-79.827-113.736z M-92.004-152C-114.091-152-132-134.091-132-112.004
		C-132-89.909-114.091-72-92.004-72C-69.911-72-52-89.909-52-112.004C-52-134.091-69.911-152-92.004-152L-92.004-152z
		 M-92.004-78.955c-18.249,0-33.042-14.801-33.042-33.049c0-18.249,14.792-33.041,33.042-33.041
		c18.248,0,33.049,14.792,33.049,33.041C-58.955-93.756-73.756-78.955-92.004-78.955L-92.004-78.955z M-79.827-101.568h-24.346
		c-0.96,0-1.741,0.781-1.741,1.741v1.741c0,0.959,0.781,1.74,1.741,1.74h24.346c0.96,0,1.741-0.781,1.741-1.74v-1.741
		C-78.086-100.787-78.867-101.568-79.827-101.568L-79.827-101.568z M-79.827-101.568"/>
</g>
<g>
	<path d="M-56.082,68.027h-71.836c-2.255,0-4.082,1.827-4.082,4.082c0,2.253,1.827,4.081,4.082,4.081h71.836
		c2.255,0,4.082-1.828,4.082-4.081C-52,69.854-53.827,68.027-56.082,68.027L-56.082,68.027z M-56.082,68.027"/>
	<path d="M-123.701,62.04h12.789c1.429,0,2.586-1.157,2.586-2.584V24.082c0-1.429-1.157-2.586-2.586-2.586h-12.789
		c-1.427,0-2.584,1.157-2.584,2.586v35.374C-126.285,60.883-125.128,62.04-123.701,62.04L-123.701,62.04z M-123.701,62.04"/>
	<path d="M-98.395,62.04h12.789c1.428,0,2.586-1.157,2.586-2.584V6.395c0-1.428-1.158-2.585-2.586-2.585h-12.789
		c-1.428,0-2.586,1.157-2.586,2.585v53.062C-100.98,60.883-99.822,62.04-98.395,62.04L-98.395,62.04z M-98.395,62.04"/>
	<path d="M-73.088,62.04h12.789c1.427,0,2.584-1.157,2.584-2.584V30.885c0-1.429-1.157-2.586-2.584-2.586h-12.789
		c-1.428,0-2.585,1.157-2.585,2.586v28.571C-75.673,60.883-74.516,62.04-73.088,62.04L-73.088,62.04z M-73.088,62.04"/>
</g>
<g>
	<path d="M40,0C17.945,0,0,17.945,0,40c0,22.059,17.945,40,40,40c22.059,0,40-17.941,40-40C80,17.945,62.059,0,40,0L40,0z
		 M40,73.369C21.601,73.369,6.631,58.399,6.631,40S21.601,6.631,40,6.631S73.369,21.601,73.369,40S58.399,73.369,40,73.369
		L40,73.369z M40,73.369"/>
	<path d="M40,13.569c-14.573,0-26.431,11.857-26.431,26.431S25.427,66.431,40,66.431S66.431,54.573,66.431,40
		S54.573,13.569,40,13.569L40,13.569z M40,59.8c-10.918,0-19.8-8.882-19.8-19.8S29.082,20.2,40,20.2S59.8,29.082,59.8,40
		S50.918,59.8,40,59.8L40,59.8z M40,59.8"/>
	<path d="M52.339,40c0,6.813-5.525,12.339-12.339,12.339S27.665,46.813,27.665,40S33.187,27.665,40,27.665S52.339,33.187,52.339,40
		L52.339,40z M52.339,40"/>
</g>
</svg>
