<?xml version="1.0" encoding="utf-8"?>
<!-- Generator: Adobe Illustrator 16.0.0, SVG Export Plug-In . SVG Version: 6.00 Build 0)  -->
<!DOCTYPE svg PUBLIC "-//W3C//DTD SVG 1.1//EN" "http://www.w3.org/Graphics/SVG/1.1/DTD/svg11.dtd">
<svg version="1.1" id="Layer_1" xmlns="http://www.w3.org/2000/svg" xmlns:xlink="http://www.w3.org/1999/xlink" x="0px" y="0px"
	 width="20px" height="20px" viewBox="0 0 80 80" enable-background="new 0 0 80 80" xml:space="preserve">
<g>
	<path d="M-457.5,0h-60c-4.125,0-7.5,3.375-7.5,7.5v65c0,4.125,3.375,7.5,7.5,7.5h60c4.125,0,7.5-3.375,7.5-7.5v-65
		C-450,3.375-453.375,0-457.5,0L-457.5,0z M-457.458,72.772h-60.084V7.227h60.084V72.772z M-505,45h35v5h-35V45z M-505,55h35v5h-35
		V55z M-500,22.5c0,4.142,3.357,7.5,7.5,7.5s7.5-3.359,7.5-7.5c0-4.142-3.357-7.5-7.5-7.5S-500,18.358-500,22.5L-500,22.5z
		 M-487.5,30h-10c-4.125,0-7.5,2.25-7.5,4.999v5h25v-5C-480,32.25-483.375,30-487.5,30L-487.5,30z M-487.5,30"/>
</g>
<g>
	<path d="M-318.387,72.848h-74.227c-1.598,0-2.887-1.367-2.887-3.043V10.196c0-1.684,1.289-3.043,2.887-3.043h74.227
		c1.598,0,2.887,1.36,2.887,3.043v59.608C-315.5,71.48-316.789,72.848-318.387,72.848L-318.387,72.848z M-389.728,66.76h68.455
		V13.232h-68.455V66.76z M-389.728,66.76"/>
	<path d="M-375.921,39.322c-5.305,0-9.624-4.32-9.624-9.629c0-5.312,4.319-9.63,9.624-9.63c5.312,0,9.63,4.318,9.63,9.63
		C-366.291,35.002-370.609,39.322-375.921,39.322L-375.921,39.322z M-375.921,26.142c-1.95,0-3.545,1.594-3.545,3.551
		c0,1.958,1.595,3.545,3.545,3.545c1.956,0,3.55-1.588,3.55-3.545C-372.371,27.736-373.965,26.142-375.921,26.142L-375.921,26.142z
		 M-375.921,26.142"/>
	<path d="M-369.326,59.932h-13.177c-1.682,0-3.042-1.365-3.042-3.043V43.713c0-1.678,1.36-3.045,3.042-3.045h13.177
		c1.676,0,3.035,1.367,3.035,3.045v13.176C-366.291,58.566-367.65,59.932-369.326,59.932L-369.326,59.932z M-379.466,53.852h7.095
		v-7.096h-7.095V53.852z M-379.466,53.852"/>
	<g>
		<path d="M-329.101,29.542h-28.964c-1.676,0-3.035-1.364-3.035-3.042c0-1.678,1.359-3.038,3.035-3.038h28.964
			c1.676,0,3.035,1.36,3.035,3.038C-326.065,28.178-327.425,29.542-329.101,29.542L-329.101,29.542z M-329.101,29.542"/>
		<path d="M-329.101,42.719h-28.964c-1.676,0-3.035-1.359-3.035-3.037c0-1.684,1.359-3.043,3.035-3.043h28.964
			c1.676,0,3.035,1.359,3.035,3.043C-326.065,41.359-327.425,42.719-329.101,42.719L-329.101,42.719z M-329.101,42.719"/>
		<path d="M-329.101,55.895h-28.964c-1.676,0-3.035-1.365-3.035-3.045c0-1.676,1.359-3.033,3.035-3.033h28.964
			c1.676,0,3.035,1.357,3.035,3.033C-326.065,54.529-327.425,55.895-329.101,55.895L-329.101,55.895z M-329.101,55.895"/>
	</g>
</g>
<g>
	<path d="M-252.46,4.834h-7.018c-2.116,0-3.522,1.406-3.522,3.52v7.022c0,2.113,1.406,3.521,3.522,3.521h7.018
		c2.116,0,3.522-1.407,3.522-3.521V8.354C-248.938,6.24-250.344,4.834-252.46,4.834L-252.46,4.834z M-252.46,4.834"/>
	<path d="M-252.46,32.958h-7.018c-2.116,0-3.522,1.41-3.522,3.523v7.036c0,2.116,1.406,3.522,3.522,3.522h7.018
		c2.116,0,3.522-1.406,3.522-3.522v-7.036C-248.938,34.368-250.344,32.958-252.46,32.958L-252.46,32.958z M-252.46,32.958"/>
	<path d="M-252.46,61.103h-7.018c-2.116,0-3.522,1.407-3.522,3.523v7.017c0,2.116,1.406,3.523,3.522,3.523h7.018
		c2.116,0,3.522-1.407,3.522-3.523v-7.017C-248.938,62.51-250.344,61.103-252.46,61.103L-252.46,61.103z M-252.46,61.103"/>
	<path d="M-186.522,4.834h-49.228c-2.116,0-3.522,1.406-3.522,3.52v7.022c0,2.113,1.406,3.521,3.522,3.521h49.228
		c2.116,0,3.522-1.407,3.522-3.521V8.354C-183,6.24-184.406,4.834-186.522,4.834L-186.522,4.834z M-186.522,4.834"/>
	<path d="M-186.522,32.958h-49.228c-2.116,0-3.522,1.41-3.522,3.523v7.036c0,2.116,1.406,3.522,3.522,3.522h49.228
		c2.116,0,3.522-1.406,3.522-3.522v-7.036C-183,34.368-184.406,32.958-186.522,32.958L-186.522,32.958z M-186.522,32.958"/>
	<path d="M-186.522,61.103h-49.228c-2.116,0-3.522,1.407-3.522,3.523v7.017c0,2.116,1.406,3.523,3.522,3.523h49.228
		c2.116,0,3.522-1.407,3.522-3.523v-7.017C-183,62.51-184.406,61.103-186.522,61.103L-186.522,61.103z M-186.522,61.103"/>
</g>
<g>
	<g>
		<path fill-rule="evenodd" clip-rule="evenodd" d="M-105.835,22.224c-4.914,0-8.884,3.984-8.884,8.888
			c0,4.913,3.97,8.897,8.884,8.897c4.905,0,8.889-3.984,8.889-8.897C-96.946,26.208-100.921,22.224-105.835,22.224L-105.835,22.224z
			 M-56.946,4.443h-71.107c-2.447,0-4.446,1.999-4.446,4.449V71.11c0,2.452,1.999,4.446,4.446,4.446h71.107
			c2.462,0,4.446-1.994,4.446-4.446V8.893C-52.5,6.442-54.484,4.443-56.946,4.443L-56.946,4.443z M-61.384,64.447
			c0,1.227-0.999,2.217-2.226,2.217h-35.999l24.898-24.89l13.326,13.313V64.447z M-61.384,42.696l-9.688-9.688
			c-0.154-0.218-0.305-0.422-0.5-0.609c-0.867-0.866-2.021-1.297-3.17-1.288c-1.127-0.009-2.275,0.413-3.143,1.277
			c-0.155,0.164-0.288,0.328-0.405,0.5l-33.772,33.784h-9.329c-1.227,0-2.226-0.999-2.226-2.226V15.553
			c0-1.224,0.999-2.224,2.226-2.224h57.781c1.227,0,2.226,1,2.226,2.224V42.696z M-61.384,42.696"/>
	</g>
</g>
<g>
	<path d="M59.577,37.09c-3.715,1.768-6.742,7.139-10.285,3.596c-2.149-2.336-4.703-6.054-7.64-10.257
		c-3.174-4.522-7.218-8.407-11.977-3.965c-5.315,4.998-8.963,18.561-9.28,25.541l50.206,0.016
		C69.453,47.915,64.991,34.511,59.577,37.09L59.577,37.09z M59.577,37.09"/>
	<path d="M65.517,23.042c0,3.409-2.762,6.173-6.174,6.173c-3.408,0-6.173-2.765-6.173-6.173c0-3.412,2.765-6.177,6.173-6.177
		C62.755,16.866,65.517,19.631,65.517,23.042L65.517,23.042z M65.517,23.042"/>
	<path d="M78.165,8.952h-65.33C11.822,8.952,11,9.774,11,10.787v9.28H1.835C0.823,20.067,0,20.89,0,21.902v47.311
		c0,1.013,0.823,1.835,1.835,1.835h65.326c1.013,0,1.835-0.822,1.835-1.835v-9.28h9.169c1.012,0,1.835-0.818,1.835-1.831V10.787
		C80,9.774,79.177,8.952,78.165,8.952L78.165,8.952z M64.07,66.121H4.926V24.993H11v28.595c-0.922,3.564-1.489,6.983-1.605,9.53
		l50.206,0.016c-0.219-0.786-0.56-1.91-1.009-3.201h5.479V66.121z M75.074,55.007H15.926V13.877h59.148V55.007z M75.074,55.007"/>
</g>
</svg>
